<svg width="87" height="61" viewBox="0 0 87 61" fill="none" xmlns="http://www.w3.org/2000/svg">
<g clip-path="url(#clip0_36_1564)">
<rect width="86.5" height="60.5" fill="white"/>
<path d="M55.6429 10.4835C54.3274 9.95288 53.5601 10.7046 53.3408 11.1468C52.6686 11.8102 49.3938 9.15577 50.3804 9.15577C51.367 9.15577 49.3938 8.1608 49.3938 7.49748C49.3938 6.83417 48.4077 6.83417 48.4077 7.49748C48.4077 8.1608 45.7768 8.49245 45.7768 9.15577C45.7768 9.81908 45.7768 10.4835 47.0918 10.4835C48.4068 10.4835 49.065 10.4835 49.3938 11.1468C49.7227 11.8102 48.4077 12.1407 47.0918 12.1407C45.7759 13.7978 45.7768 13.1356 45.1186 13.1356C44.4604 13.1356 43.4743 12.1407 42.8165 12.1407C42.1588 12.1407 41.5011 13.1356 41.1722 13.1356C40.8434 13.1356 38.8702 12.1407 38.2127 13.1356C37.5551 14.1306 35.9104 13.799 35.5815 13.1356C35.2527 12.4723 33.2795 12.804 32.6217 13.1356C31.964 13.4673 31.9642 15.4572 30.3199 15.4572C28.6756 15.4572 28.3465 16.1206 27.6888 16.4522C27.031 16.7839 27.3599 15.4572 27.031 14.7939C26.7022 14.1306 23.7424 13.799 23.4135 15.4572C23.0847 17.1155 22.0983 17.7788 22.7558 17.7788C23.4133 17.7788 24.4003 16.7839 24.4003 18.4421C24.4003 20.1004 21.4404 22.0904 21.4404 22.422C21.4404 22.7537 19.4671 24.412 18.8094 25.4069C18.1517 26.4019 15.5208 25.4069 16.1785 27.0652C16.8362 28.7235 15.5208 32.0401 14.863 32.0401C14.2053 32.0401 12.89 33.035 11.2456 35.6883C9.60131 38.3415 11.2456 37.6782 11.2456 39.0049C11.2456 40.3315 10.5879 42.6531 9.93017 42.6531C9.27244 42.6531 8.61471 44.9747 9.27244 44.9747C9.93017 44.9747 10.5879 44.3114 11.2456 44.9747C11.9034 45.638 12.89 43.3164 12.89 42.6531C12.89 41.9898 13.2188 40.9948 13.5477 40.3315C13.8765 39.6682 15.5209 40.3315 17.1652 39.0049C18.8095 37.6782 20.7827 39.6682 21.4404 40.9948C22.0982 42.3214 20.454 41.9898 20.1251 44.3114C19.7962 46.6329 21.1117 45.9696 22.0983 45.9696C23.0849 45.9696 23.4137 47.2963 24.4003 49.9495C25.3869 52.6028 25.7158 50.9445 26.3735 49.9495C27.0313 48.9545 29.6622 49.2862 30.3199 49.2862C30.9776 49.2862 31.6354 49.2862 31.9642 47.9596C32.2931 46.6329 33.2797 47.2963 33.9374 49.2862C34.5951 51.2761 36.2395 48.9545 38.2127 49.2862C40.1858 49.6179 39.857 46.3013 40.5149 45.9696C41.1729 45.638 41.1727 44.3114 40.5149 42.6531C39.8572 40.9948 42.1593 37.6782 45.7768 37.6782C46.8291 42.7194 47.9692 44.2008 48.4077 44.3114C49.3943 44.9747 51.5648 46.5003 52.3542 47.2963C53.341 48.2912 52.6831 49.2862 52.3542 50.9445C52.0254 52.6028 54.6563 52.2711 54.6563 51.6078C54.6563 50.9445 54.6563 50.6128 55.6429 49.9495C56.6295 49.2862 55.6429 48.9545 54.6563 47.9596C53.6697 46.9646 55.6429 44.643 56.3006 44.3114C56.9584 43.9797 58.2738 41.6581 58.2738 40.9948C58.2738 40.3315 58.9315 39.6682 58.2738 39.0049C57.6161 38.3415 58.2738 37.6782 58.9315 37.0149C59.5893 36.3516 59.9181 35.6883 61.2336 39.0049C61.5625 40.9948 63.2068 41.3264 64.5222 40.9948C65.8377 40.6631 67.482 38.6732 69.1263 39.6682C70.7707 40.6631 71.0995 42.9847 71.7573 42.6531C72.415 42.3214 73.4016 41.3264 71.0995 38.6732C68.7975 36.0199 72.7439 33.035 72.415 34.03C72.0861 35.025 76.0325 35.6883 76.6902 35.6883C77.348 35.6883 76.6902 34.6933 76.6902 34.03C76.6902 33.3667 75.3748 34.03 75.3748 33.035C75.3748 32.0401 76.3614 30.0501 76.6902 28.7235C77.0191 27.3969 76.0325 25.7386 75.3748 25.4069C74.717 25.0753 73.4016 28.0602 73.4016 28.7235C73.4016 29.3868 71.4284 29.3868 71.0995 28.7235C70.8364 28.1929 69.6745 28.0602 69.1263 28.0602C68.6879 28.0602 67.8767 27.7285 68.1398 26.4019C68.4686 24.7436 66.1666 25.0753 65.8377 24.412C65.5088 23.7487 60.9047 24.7436 61.8913 24.412C62.8779 24.0803 61.8913 21.7587 61.8913 21.0954C61.8913 20.4321 63.8645 18.1105 63.8645 17.7788C63.8645 17.4472 64.1934 16.1206 63.8645 15.4572C63.5356 14.7939 62.5491 14.7939 61.8913 14.7939C61.2336 14.7939 60.9047 15.1256 60.9047 13.799C60.9047 12.4723 58.9315 12.804 58.9315 12.1407C58.9315 11.4774 57.2872 11.1468 55.6429 10.4835Z" stroke="#C2410C" stroke-width="1.2673"/>
</g>
<defs>
<clipPath id="clip0_36_1564">
<rect width="86.5" height="60.5" fill="white"/>
</clipPath>
</defs>
</svg>
