<svg width="88" height="61" viewBox="0 0 88 61" fill="none" xmlns="http://www.w3.org/2000/svg">
<g id="Regular/Big">
<path id="Vector 43" d="M58.9728 7.1466C57.4158 6.51851 56.5076 7.4083 56.2481 7.9317C55.4524 8.71681 51.5763 5.57503 52.7441 5.57503C53.9118 5.57503 51.5763 4.39737 51.5763 3.61227C51.5763 2.82716 50.4091 2.82716 50.4091 3.61227C50.4091 4.39737 47.2951 4.78993 47.2951 5.57503C47.2951 6.36014 47.2951 7.1466 48.8516 7.1466C50.4081 7.1466 51.1871 7.1466 51.5763 7.9317C51.9656 8.71681 50.4091 9.10801 48.8516 9.10801C47.2941 11.0694 47.2951 10.2857 46.5161 10.2857C45.7371 10.2857 44.5699 9.10801 43.7914 9.10801C43.0129 9.10801 42.2344 10.2857 41.8451 10.2857C41.4559 10.2857 39.1204 9.10801 38.3421 10.2857C37.5639 11.4633 35.6171 11.0708 35.2279 10.2857C34.8386 9.50057 32.5031 9.89312 31.7246 10.2857C30.9461 10.6782 30.9464 13.0335 29.0002 13.0335C27.0539 13.0335 26.6644 13.8187 25.8859 14.2112C25.1074 14.6038 25.4967 13.0335 25.1074 12.2484C24.7182 11.4633 21.2149 11.0708 20.8257 13.0335C20.4364 14.9963 19.2689 15.7814 20.0472 15.7814C20.8254 15.7814 21.9937 14.6038 21.9937 16.5665C21.9937 18.5293 18.4903 20.8846 18.4903 21.2772C18.4903 21.6697 16.1547 23.6325 15.3762 24.8101C14.5977 25.9878 11.4837 24.8101 12.2622 26.7729C13.0407 28.7357 11.4837 32.6612 10.7052 32.6612C9.92671 32.6612 8.36983 33.8389 6.42358 36.9793C4.47734 40.1197 6.42358 39.3346 6.42358 40.9048C6.42358 42.475 5.64508 45.2229 4.86659 45.2229C4.08809 45.2229 3.30959 47.9708 4.08809 47.9708C4.86659 47.9708 5.64509 47.1857 6.42358 47.9708C7.20208 48.7559 8.36983 46.008 8.36983 45.2229C8.36983 44.4378 8.75908 43.2602 9.14833 42.475C9.53757 41.6899 11.4838 42.475 13.4301 40.9048C15.3763 39.3346 17.7118 41.6899 18.4903 43.2602C19.2688 44.8304 17.3227 44.4378 16.9334 47.1857C16.5442 49.9336 18.1012 49.1484 19.2689 49.1484C20.4367 49.1484 20.8259 50.7187 21.9937 53.8591C23.1614 56.9995 23.5507 55.0368 24.3292 53.8591C25.1077 52.6814 28.2217 53.074 29.0002 53.074C29.7787 53.074 30.5572 53.074 30.9464 51.5038C31.3357 49.9336 32.5034 50.7187 33.2819 53.074C34.0604 55.4293 36.0066 52.6814 38.3421 53.074C40.6776 53.4665 40.2884 49.541 41.0671 49.1484C41.8459 48.7559 41.8456 47.1857 41.0671 45.2229C40.2887 43.2602 43.0134 39.3346 47.2951 39.3346C48.5407 45.3014 49.8901 47.0548 50.4091 47.1857C51.5769 47.9708 54.146 49.7765 55.0803 50.7187C56.2483 51.8963 55.4696 53.074 55.0803 55.0368C54.6911 56.9995 57.8051 56.607 57.8051 55.8219C57.8051 55.0368 57.8051 54.6442 58.9728 53.8591C60.1406 53.074 58.9728 52.6814 57.8051 51.5038C56.6373 50.3261 58.9728 47.5782 59.7513 47.1857C60.5298 46.7931 62.0868 44.0453 62.0868 43.2602C62.0868 42.475 62.8653 41.6899 62.0868 40.9048C61.3083 40.1197 62.0868 39.3346 62.8653 38.5495C63.6438 37.7644 64.0331 36.9793 65.59 40.9048C65.9793 43.2602 67.9255 43.6527 69.4825 43.2602C71.0395 42.8676 72.9858 40.5123 74.932 41.6899C76.8783 42.8676 77.2675 45.6155 78.046 45.2229C78.8245 44.8304 79.9923 43.6527 77.2675 40.5123C74.5428 37.3719 79.2138 33.8389 78.8245 35.0165C78.4353 36.1942 83.1062 36.9793 83.8847 36.9793C84.6632 36.9793 83.8847 35.8016 83.8847 35.0165C83.8847 34.2314 82.3278 35.0165 82.3278 33.8389C82.3278 32.6612 83.4955 30.3059 83.8847 28.7357C84.274 27.1655 83.1062 25.2027 82.3278 24.8101C81.5493 24.4176 79.9923 27.9506 79.9923 28.7357C79.9923 29.5208 77.6568 29.5208 77.2675 28.7357C76.9561 28.1076 75.5808 27.9506 74.932 27.9506C74.413 27.9506 73.4529 27.558 73.7643 25.9878C74.1535 24.025 71.4288 24.4176 71.0395 23.6325C70.6503 22.8474 65.2008 24.025 66.3685 23.6325C67.5363 23.2399 66.3685 20.4921 66.3685 19.707C66.3685 18.9218 68.704 16.174 68.704 15.7814C68.704 15.3889 69.0933 13.8187 68.704 13.0335C68.3148 12.2484 67.147 12.2484 66.3685 12.2484C65.59 12.2484 65.2008 12.641 65.2008 11.0708C65.2008 9.50057 62.8653 9.89312 62.8653 9.10801C62.8653 8.32291 60.9191 7.9317 58.9728 7.1466Z" stroke="#C2410C" stroke-width="1.5"/>
</g>
</svg>
