<svg width="87" height="61" viewBox="0 0 87 61" fill="none" xmlns="http://www.w3.org/2000/svg">
<g clip-path="url(#clip0_36_1566)">
<rect width="86.5" height="60.5" transform="translate(0 0.5)" fill="white"/>
<path d="M57.9627 12.886L57.6789 12.3192L57.9627 12.886ZM47.1116 12.3421V12.9759H47.3746L47.5603 12.7897L47.1116 12.3421ZM45.2127 15.0623L44.7172 15.4575L44.8507 15.625L45.0585 15.6771L45.2127 15.0623ZM40.8719 19.6856L40.9618 19.0582L40.7653 19.03L40.5879 19.119L40.8719 19.6856ZM40.3293 21.3173L40.918 21.5522L40.9632 21.4391V21.3173H40.3293ZM40.3293 22.949L40.0453 23.5157L40.1794 23.5829H40.3293V22.949ZM43.0421 22.4051L43.278 22.9934L44.1685 22.6364L43.4907 21.9574L43.0421 22.4051ZM43.8559 21.3173L44.0918 21.9056L43.8559 21.3173ZM50.3664 22.4051L50.6504 21.8385L50.5164 21.7713H50.3664V22.4051ZM39.7866 25.3967L39.2194 25.6795L39.2194 25.6795L39.7866 25.3967ZM38.4306 26.2125L38.3261 25.5874L38.1255 25.6209L37.9818 25.7649L38.4306 26.2125ZM54.4356 46.0653L55.0025 46.3486L54.4356 46.0653ZM54.4356 44.7055L53.847 44.4704L53.7609 44.6858L53.8342 44.9059L54.4356 44.7055ZM56.335 41.714L55.7076 41.8034L55.7086 41.8107L55.7098 41.818L56.335 41.714ZM59.0478 31.9236L59.2487 32.5247L59.3907 32.4773L59.4965 32.3712L59.0478 31.9236ZM60.1329 27.8443L59.7265 28.3307L60.0454 28.5971L60.4169 28.4109L60.1329 27.8443ZM58.7765 25.9406L59.3437 26.2234L58.7765 25.9406ZM53.5283 27.3965C53.2811 27.1488 52.8798 27.1484 52.632 27.3956C52.3842 27.6429 52.3838 28.0442 52.6311 28.292L53.5283 27.3965ZM61.1242 12.983C60.9035 12.7617 60.4039 12.4449 59.8252 12.2515C59.2392 12.0555 58.4351 11.9407 57.6789 12.3192L58.2464 13.4528C58.5754 13.2881 58.992 13.3095 59.4233 13.4537C59.6312 13.5232 59.8206 13.6146 59.9705 13.7019C60.0451 13.7454 60.1067 13.786 60.1533 13.8199C60.1766 13.8367 60.1947 13.8509 60.208 13.8619C60.2219 13.8734 60.2274 13.8789 60.2267 13.8782L61.1242 12.983ZM57.6789 12.3192C57.2814 12.5183 57.0282 12.7591 56.8449 12.9842C56.7594 13.0892 56.6882 13.1923 56.6402 13.2601C56.5853 13.3377 56.5603 13.3695 56.5422 13.3882C56.531 13.3999 56.5405 13.3872 56.5663 13.3766C56.5917 13.3661 56.5972 13.3723 56.5593 13.3707C56.4583 13.3666 56.2336 13.3181 55.7714 13.1195L55.271 14.2842C55.7582 14.4935 56.1617 14.623 56.507 14.6373C56.6922 14.6449 56.8752 14.6205 57.0501 14.5483C57.2254 14.4759 57.3563 14.3705 57.4557 14.2671C57.5483 14.1709 57.6232 14.0654 57.6749 13.9924C57.7336 13.9095 57.7758 13.8485 57.8277 13.7848C57.9192 13.6724 58.0372 13.5575 58.2464 13.4528L57.6789 12.3192ZM55.7714 13.1195C54.8529 12.7249 54.4653 12.4325 53.9572 12.1583C53.4195 11.868 52.9084 11.7083 51.9946 11.7083V12.9759C52.7084 12.9759 53.0111 13.0881 53.3551 13.2738C53.7287 13.4754 54.2905 13.863 55.271 14.2842L55.7714 13.1195ZM51.9946 11.7083C51.3634 11.7083 51.083 11.5164 50.7614 11.323C50.596 11.2235 50.3438 11.072 50.0244 11.0263C49.6824 10.9773 49.3471 11.0565 48.9978 11.2316L49.5658 12.3648C49.7591 12.2679 49.8307 12.2791 49.8447 12.2811C49.8814 12.2864 49.9344 12.3048 50.108 12.4093C50.4647 12.6238 50.9981 12.9759 51.9946 12.9759V11.7083ZM48.9978 11.2316C48.5914 11.4352 48.3072 11.4363 47.9933 11.4363C47.6618 11.4363 47.1368 11.4194 46.6629 11.8945L47.5603 12.7897C47.629 12.7209 47.6465 12.7039 47.9933 12.7039C48.3575 12.7039 48.8871 12.705 49.5658 12.3648L48.9978 11.2316ZM47.1116 11.7083C46.7007 11.7083 46.3978 11.8911 46.1828 12.0996C45.9955 12.2813 45.8403 12.5215 45.7442 12.6591C45.5135 12.9895 45.4093 13.068 45.2127 13.068V14.3357C46.1011 14.3357 46.5395 13.7343 46.7835 13.3848C46.9248 13.1825 46.99 13.0827 47.0655 13.0095C47.0942 12.9816 47.1079 12.9753 47.108 12.9753C47.1081 12.9752 47.1078 12.9754 47.1071 12.9756C47.1064 12.9759 47.1057 12.9761 47.1051 12.9762C47.1037 12.9765 47.1053 12.9759 47.1116 12.9759V11.7083ZM45.2127 13.068C44.9059 13.068 44.5301 13.1476 44.2882 13.4709C44.0554 13.7818 44.0853 14.1369 44.1329 14.3502C44.2286 14.7785 44.5208 15.2114 44.7172 15.4575L45.7082 14.6671C45.6352 14.5756 45.555 14.461 45.4887 14.3447C45.4192 14.2227 45.3824 14.1289 45.3701 14.0739C45.3544 14.0037 45.3979 14.1037 45.303 14.2305C45.1989 14.3695 45.0853 14.3357 45.2127 14.3357V13.068ZM45.0585 15.6771C45.2191 15.7174 45.4209 15.7843 45.5414 15.8477C45.5541 15.8543 45.5638 15.8599 45.5709 15.8643C45.5781 15.8687 45.5812 15.871 45.5809 15.8708C45.5809 15.8708 45.5751 15.8665 45.5658 15.8575C45.5568 15.8487 45.5404 15.8317 45.5221 15.8055C45.4862 15.7542 45.4256 15.6413 45.4358 15.4833C45.4464 15.3198 45.5258 15.2103 45.5774 15.1586L46.4749 16.0538C46.5807 15.9477 46.6867 15.7833 46.7008 15.565C46.7146 15.3521 46.6345 15.1843 46.5608 15.079C46.431 14.8934 46.2396 14.7826 46.1314 14.7257C45.8813 14.5942 45.5679 14.4979 45.3668 14.4475L45.0585 15.6771ZM45.5774 15.1586C45.4465 15.2899 45.3808 15.4394 45.347 15.5615C45.3146 15.6786 45.3067 15.7882 45.3039 15.8627C45.3014 15.9288 45.3022 16.0193 45.302 16.05C45.3018 16.0729 45.3013 16.0888 45.3006 16.1008C45.2998 16.1127 45.2991 16.1165 45.2994 16.1146C45.2996 16.1138 45.3068 16.0663 45.3465 16.0061C45.3928 15.9359 45.4588 15.8853 45.5236 15.8593C45.5775 15.8377 45.6032 15.844 45.5707 15.8429C45.5393 15.8418 45.4753 15.8345 45.3667 15.8073L45.0586 17.0369C45.3562 17.1115 45.694 17.1568 45.9955 17.0359C46.384 16.88 46.513 16.5455 46.55 16.3217C46.5669 16.22 46.569 16.1242 46.5695 16.0612C46.5703 15.9793 46.5689 15.9551 46.5706 15.9107C46.5744 15.8091 46.5936 15.9349 46.4749 16.0538L45.5774 15.1586ZM45.3667 15.8073C45.1927 15.7637 45.0012 15.736 44.8115 15.7626C44.6025 15.7918 44.3865 15.8903 44.2346 16.0932C44.0978 16.276 44.0673 16.4727 44.06 16.5942C44.0525 16.7181 44.0657 16.8354 44.0748 16.9084C44.0868 17.0047 44.0923 17.0341 44.0956 17.0765C44.0993 17.124 44.0869 17.0671 44.118 16.978C44.1374 16.9224 44.177 16.8444 44.2537 16.7739C44.3324 16.7016 44.4198 16.6649 44.4917 16.6497C44.609 16.6249 44.6684 16.6599 44.5994 16.6368L44.1976 17.8391C44.332 17.884 44.5356 17.936 44.7535 17.89C44.8758 17.8642 45.0027 17.8073 45.112 17.7068C45.2192 17.6081 45.2805 17.4941 45.3148 17.3959C45.3756 17.2219 45.3653 17.0545 45.3595 16.9788C45.3532 16.8979 45.3376 16.7914 45.3327 16.7517C45.3248 16.6887 45.3253 16.67 45.3253 16.6707C45.3251 16.6739 45.3238 16.694 45.3148 16.7245C45.3055 16.7561 45.2867 16.8031 45.2493 16.853C45.0565 17.1106 44.8072 16.9739 45.0586 17.0369L45.3667 15.8073ZM44.5994 16.6368C44.4946 16.6018 44.3648 16.5626 44.2407 16.5518C44.1869 16.5471 44.0457 16.5381 43.8909 16.604C43.8026 16.6416 43.7023 16.7071 43.6215 16.8143C43.5401 16.9224 43.5041 17.0388 43.493 17.1384C43.4739 17.3113 43.5282 17.4455 43.5452 17.4867C43.5688 17.5434 43.5961 17.5904 43.6115 17.6161C43.628 17.6437 43.6461 17.6718 43.6569 17.6885C43.6698 17.7087 43.6781 17.7217 43.6851 17.7334C43.703 17.7633 43.6912 17.7501 43.6801 17.7108C43.6683 17.6694 43.6375 17.5256 43.7236 17.3627C43.8102 17.1988 43.9434 17.1503 43.965 17.1435C43.985 17.1371 43.9609 17.1481 43.8559 17.1481V18.4157C44.0222 18.4157 44.1932 18.4012 44.3498 18.3513C44.5081 18.3008 44.7198 18.1908 44.8445 17.9546C44.9687 17.7194 44.9358 17.4928 44.8997 17.3654C44.8642 17.24 44.8058 17.1376 44.7728 17.0824C44.7544 17.0517 44.7362 17.0233 44.7238 17.004C44.7092 16.9813 44.7033 16.972 44.6992 16.9651C44.6938 16.9562 44.7039 16.9715 44.716 17.0006C44.7215 17.014 44.77 17.1243 44.7529 17.278C44.743 17.3681 44.71 17.4761 44.6339 17.5771C44.5584 17.6774 44.4657 17.737 44.3876 17.7703C44.253 17.8276 44.1423 17.8157 44.1313 17.8147C44.0931 17.8114 44.0989 17.8061 44.1976 17.8391L44.5994 16.6368ZM43.8559 17.1481C43.353 17.1481 42.8477 17.1432 42.4811 17.2351C42.2825 17.2849 42.0421 17.3807 41.8558 17.5909C41.6583 17.8136 41.5945 18.0808 41.5945 18.3258H42.8621C42.8621 18.2988 42.8661 18.3621 42.8043 18.4318C42.7536 18.489 42.7167 18.4829 42.7893 18.4647C42.8612 18.4466 42.9792 18.4316 43.1703 18.4236C43.3577 18.4158 43.5805 18.4157 43.8559 18.4157V17.1481ZM41.5945 18.3258C41.5945 18.7087 41.7982 18.9706 41.9771 19.1265C42.1344 19.2637 42.3342 19.3695 42.4219 19.4197C42.5604 19.499 42.5498 19.5077 42.5219 19.4704C42.4945 19.4338 42.459 19.3667 42.4528 19.2772C42.4468 19.1917 42.4713 19.1381 42.4749 19.1307L43.6093 19.6965C43.6808 19.5531 43.7307 19.3806 43.7173 19.1889C43.7036 18.9931 43.6279 18.8326 43.5369 18.711C43.3818 18.5037 43.1508 18.3763 43.052 18.3197C42.9023 18.234 42.8477 18.2038 42.8101 18.171C42.794 18.157 42.8621 18.2149 42.8621 18.3258H41.5945ZM42.4749 19.1307C42.5368 19.0068 42.6198 19.0125 42.5058 19.0492C42.4147 19.0786 42.27 19.1029 42.0768 19.114C41.6953 19.1358 41.2514 19.0996 40.9618 19.0582L40.782 20.313C41.1254 20.3622 41.6581 20.4076 42.1491 20.3795C42.3923 20.3657 42.6579 20.3322 42.8951 20.2556C43.1095 20.1864 43.439 20.038 43.6093 19.6965L42.4749 19.1307ZM40.5879 19.119C40.3137 19.2564 40.0961 19.5415 39.9513 19.8753C39.7972 20.2307 39.6955 20.7049 39.6955 21.3173H40.9632C40.9632 20.8419 41.0424 20.5455 41.1143 20.3797C41.1956 20.1923 41.2493 20.2054 41.1559 20.2522L40.5879 19.119ZM39.7407 21.0824C39.4997 21.6864 39.4209 22.1826 39.4696 22.5835C39.5165 22.9702 39.6995 23.3423 40.0453 23.5157L40.6134 22.3824C40.7784 22.4651 40.7443 22.5653 40.728 22.4307C40.7133 22.3104 40.725 22.036 40.918 21.5522L39.7407 21.0824ZM40.3293 23.5829C40.3299 23.5829 40.3304 23.5829 40.3309 23.5829C40.3315 23.5829 40.332 23.5829 40.3325 23.5829C40.3331 23.5829 40.3336 23.5829 40.3341 23.5829C40.3347 23.5829 40.3352 23.5829 40.3358 23.5829C40.3363 23.5829 40.3368 23.5829 40.3374 23.5829C40.3379 23.5829 40.3385 23.5829 40.339 23.5829C40.3396 23.5829 40.3401 23.5829 40.3407 23.5829C40.3412 23.5829 40.3417 23.5829 40.3423 23.5829C40.3428 23.5829 40.3434 23.5829 40.3439 23.5829C40.3445 23.5829 40.3451 23.5829 40.3456 23.5829C40.3462 23.5829 40.3467 23.5829 40.3473 23.5829C40.3478 23.5829 40.3484 23.5829 40.3489 23.5829C40.3495 23.5829 40.3501 23.5829 40.3506 23.5829C40.3512 23.5829 40.3517 23.5829 40.3523 23.5829C40.3529 23.5829 40.3534 23.5829 40.354 23.5829C40.3546 23.5829 40.3551 23.5829 40.3557 23.5829C40.3563 23.5829 40.3568 23.5829 40.3574 23.5829C40.358 23.5829 40.3586 23.5829 40.3591 23.5829C40.3597 23.5829 40.3603 23.5829 40.3609 23.5829C40.3614 23.5829 40.362 23.5829 40.3626 23.5829C40.3632 23.5829 40.3637 23.5829 40.3643 23.5829C40.3649 23.5829 40.3655 23.5829 40.3661 23.5829C40.3666 23.5829 40.3672 23.5829 40.3678 23.5829C40.3684 23.5829 40.369 23.5829 40.3696 23.5829C40.3701 23.5829 40.3707 23.5829 40.3713 23.5829C40.3719 23.5829 40.3725 23.5829 40.3731 23.5829C40.3737 23.5829 40.3743 23.5829 40.3749 23.5829C40.3755 23.5829 40.3761 23.5829 40.3767 23.5829C40.3772 23.5829 40.3778 23.5829 40.3784 23.5829C40.379 23.5829 40.3796 23.5829 40.3802 23.5829C40.3808 23.5829 40.3814 23.5829 40.382 23.5829C40.3826 23.5829 40.3832 23.5829 40.3838 23.5829C40.3844 23.5829 40.3851 23.5829 40.3857 23.5829C40.3863 23.5829 40.3869 23.5829 40.3875 23.5829C40.3881 23.5829 40.3887 23.5829 40.3893 23.5829C40.3899 23.5829 40.3905 23.5829 40.3911 23.5829C40.3918 23.5829 40.3924 23.5829 40.393 23.5829C40.3936 23.5829 40.3942 23.5829 40.3948 23.5829C40.3954 23.5829 40.3961 23.5829 40.3967 23.5829C40.3973 23.5829 40.3979 23.5829 40.3985 23.5829C40.3992 23.5829 40.3998 23.5829 40.4004 23.5829C40.401 23.5829 40.4017 23.5829 40.4023 23.5829C40.4029 23.5829 40.4035 23.5829 40.4042 23.5829C40.4048 23.5829 40.4054 23.5829 40.406 23.5829C40.4067 23.5829 40.4073 23.5829 40.4079 23.5829C40.4086 23.5829 40.4092 23.5829 40.4098 23.5829C40.4105 23.5829 40.4111 23.5829 40.4117 23.5829C40.4124 23.5829 40.413 23.5829 40.4136 23.5829C40.4143 23.5829 40.4149 23.5829 40.4155 23.5829C40.4162 23.5829 40.4168 23.5829 40.4175 23.5829C40.4181 23.5829 40.4187 23.5829 40.4194 23.5829C40.42 23.5829 40.4207 23.5829 40.4213 23.5829C40.422 23.5829 40.4226 23.5829 40.4233 23.5829C40.4239 23.5829 40.4245 23.5829 40.4252 23.5829C40.4258 23.5829 40.4265 23.5829 40.4271 23.5829C40.4278 23.5829 40.4284 23.5829 40.4291 23.5829C40.4298 23.5829 40.4304 23.5829 40.4311 23.5829C40.4317 23.5829 40.4324 23.5829 40.433 23.5829C40.4337 23.5829 40.4343 23.5829 40.435 23.5829C40.4357 23.5829 40.4363 23.5829 40.437 23.5829C40.4376 23.5829 40.4383 23.5829 40.439 23.5829C40.4396 23.5829 40.4403 23.5829 40.4409 23.5829C40.4416 23.5829 40.4423 23.5829 40.4429 23.5829C40.4436 23.5829 40.4443 23.5829 40.4449 23.5829C40.4456 23.5829 40.4463 23.5829 40.4469 23.5829C40.4476 23.5829 40.4483 23.5829 40.4489 23.5829C40.4496 23.5829 40.4503 23.5829 40.451 23.5829C40.4516 23.5829 40.4523 23.5829 40.453 23.5829C40.4537 23.5829 40.4543 23.5829 40.455 23.5829C40.4557 23.5829 40.4564 23.5829 40.457 23.5829C40.4577 23.5829 40.4584 23.5829 40.4591 23.5829C40.4598 23.5829 40.4604 23.5829 40.4611 23.5829C40.4618 23.5829 40.4625 23.5829 40.4632 23.5829C40.4638 23.5829 40.4645 23.5829 40.4652 23.5829C40.4659 23.5829 40.4666 23.5829 40.4673 23.5829C40.468 23.5829 40.4686 23.5829 40.4693 23.5829C40.47 23.5829 40.4707 23.5829 40.4714 23.5829C40.4721 23.5829 40.4728 23.5829 40.4735 23.5829C40.4742 23.5829 40.4749 23.5829 40.4755 23.5829C40.4762 23.5829 40.4769 23.5829 40.4776 23.5829C40.4783 23.5829 40.479 23.5829 40.4797 23.5829C40.4804 23.5829 40.4811 23.5829 40.4818 23.5829C40.4825 23.5829 40.4832 23.5829 40.4839 23.5829C40.4846 23.5829 40.4853 23.5829 40.486 23.5829C40.4867 23.5829 40.4874 23.5829 40.4881 23.5829C40.4888 23.5829 40.4895 23.5829 40.4902 23.5829C40.4909 23.5829 40.4916 23.5829 40.4923 23.5829C40.493 23.5829 40.4938 23.5829 40.4945 23.5829C40.4952 23.5829 40.4959 23.5829 40.4966 23.5829C40.4973 23.5829 40.498 23.5829 40.4987 23.5829C40.4994 23.5829 40.5001 23.5829 40.5008 23.5829C40.5016 23.5829 40.5023 23.5829 40.503 23.5829C40.5037 23.5829 40.5044 23.5829 40.5051 23.5829C40.5058 23.5829 40.5066 23.5829 40.5073 23.5829C40.508 23.5829 40.5087 23.5829 40.5094 23.5829C40.5102 23.5829 40.5109 23.5829 40.5116 23.5829C40.5123 23.5829 40.513 23.5829 40.5138 23.5829C40.5145 23.5829 40.5152 23.5829 40.5159 23.5829C40.5166 23.5829 40.5174 23.5829 40.5181 23.5829C40.5188 23.5829 40.5195 23.5829 40.5203 23.5829C40.521 23.5829 40.5217 23.5829 40.5224 23.5829C40.5232 23.5829 40.5239 23.5829 40.5246 23.5829C40.5254 23.5829 40.5261 23.5829 40.5268 23.5829C40.5275 23.5829 40.5283 23.5829 40.529 23.5829C40.5297 23.5829 40.5305 23.5829 40.5312 23.5829C40.5319 23.5829 40.5327 23.5829 40.5334 23.5829C40.5341 23.5829 40.5349 23.5829 40.5356 23.5829C40.5363 23.5829 40.5371 23.5829 40.5378 23.5829C40.5385 23.5829 40.5393 23.5829 40.54 23.5829C40.5408 23.5829 40.5415 23.5829 40.5422 23.5829C40.543 23.5829 40.5437 23.5829 40.5445 23.5829C40.5452 23.5829 40.5459 23.5829 40.5467 23.5829C40.5474 23.5829 40.5482 23.5829 40.5489 23.5829C40.5496 23.5829 40.5504 23.5829 40.5511 23.5829C40.5519 23.5829 40.5526 23.5829 40.5534 23.5829C40.5541 23.5829 40.5549 23.5829 40.5556 23.5829C40.5564 23.5829 40.5571 23.5829 40.5579 23.5829C40.5586 23.5829 40.5594 23.5829 40.5601 23.5829C40.5609 23.5829 40.5616 23.5829 40.5624 23.5829C40.5631 23.5829 40.5639 23.5829 40.5646 23.5829C40.5654 23.5829 40.5661 23.5829 40.5669 23.5829C40.5676 23.5829 40.5684 23.5829 40.5691 23.5829C40.5699 23.5829 40.5706 23.5829 40.5714 23.5829C40.5721 23.5829 40.5729 23.5829 40.5737 23.5829C40.5744 23.5829 40.5752 23.5829 40.5759 23.5829C40.5767 23.5829 40.5775 23.5829 40.5782 23.5829C40.579 23.5829 40.5797 23.5829 40.5805 23.5829C40.5812 23.5829 40.582 23.5829 40.5828 23.5829C40.5835 23.5829 40.5843 23.5829 40.5851 23.5829C40.5858 23.5829 40.5866 23.5829 40.5873 23.5829C40.5881 23.5829 40.5889 23.5829 40.5896 23.5829C40.5904 23.5829 40.5912 23.5829 40.5919 23.5829C40.5927 23.5829 40.5935 23.5829 40.5942 23.5829C40.595 23.5829 40.5958 23.5829 40.5965 23.5829C40.5973 23.5829 40.5981 23.5829 40.5988 23.5829C40.5996 23.5829 40.6004 23.5829 40.6012 23.5829C40.6019 23.5829 40.6027 23.5829 40.6035 23.5829C40.6042 23.5829 40.605 23.5829 40.6058 23.5829C40.6066 23.5829 40.6073 23.5829 40.6081 23.5829C40.6089 23.5829 40.6096 23.5829 40.6104 23.5829C40.6112 23.5829 40.612 23.5829 40.6127 23.5829C40.6135 23.5829 40.6143 23.5829 40.6151 23.5829C40.6159 23.5829 40.6166 23.5829 40.6174 23.5829C40.6182 23.5829 40.619 23.5829 40.6197 23.5829C40.6205 23.5829 40.6213 23.5829 40.6221 23.5829C40.6229 23.5829 40.6236 23.5829 40.6244 23.5829C40.6252 23.5829 40.626 23.5829 40.6268 23.5829C40.6275 23.5829 40.6283 23.5829 40.6291 23.5829C40.6299 23.5829 40.6307 23.5829 40.6315 23.5829C40.6322 23.5829 40.633 23.5829 40.6338 23.5829C40.6346 23.5829 40.6354 23.5829 40.6362 23.5829C40.6369 23.5829 40.6377 23.5829 40.6385 23.5829C40.6393 23.5829 40.6401 23.5829 40.6409 23.5829C40.6417 23.5829 40.6424 23.5829 40.6432 23.5829C40.644 23.5829 40.6448 23.5829 40.6456 23.5829C40.6464 23.5829 40.6472 23.5829 40.648 23.5829C40.6487 23.5829 40.6495 23.5829 40.6503 23.5829C40.6511 23.5829 40.6519 23.5829 40.6527 23.5829C40.6535 23.5829 40.6543 23.5829 40.6551 23.5829C40.6559 23.5829 40.6567 23.5829 40.6575 23.5829C40.6582 23.5829 40.659 23.5829 40.6598 23.5829C40.6606 23.5829 40.6614 23.5829 40.6622 23.5829C40.663 23.5829 40.6638 23.5829 40.6646 23.5829C40.6654 23.5829 40.6662 23.5829 40.667 23.5829C40.6678 23.5829 40.6686 23.5829 40.6694 23.5829C40.6702 23.5829 40.671 23.5829 40.6718 23.5829C40.6726 23.5829 40.6734 23.5829 40.6742 23.5829C40.6749 23.5829 40.6757 23.5829 40.6765 23.5829C40.6773 23.5829 40.6781 23.5829 40.6789 23.5829C40.6797 23.5829 40.6805 23.5829 40.6813 23.5829C40.6821 23.5829 40.6829 23.5829 40.6837 23.5829C40.6845 23.5829 40.6853 23.5829 40.6861 23.5829C40.6869 23.5829 40.6878 23.5829 40.6886 23.5829C40.6894 23.5829 40.6902 23.5829 40.691 23.5829C40.6918 23.5829 40.6926 23.5829 40.6934 23.5829C40.6942 23.5829 40.695 23.5829 40.6958 23.5829C40.6966 23.5829 40.6974 23.5829 40.6982 23.5829C40.699 23.5829 40.6998 23.5829 40.7006 23.5829C40.7014 23.5829 40.7022 23.5829 40.703 23.5829C40.7038 23.5829 40.7046 23.5829 40.7054 23.5829C40.7062 23.5829 40.7071 23.5829 40.7079 23.5829C40.7087 23.5829 40.7095 23.5829 40.7103 23.5829C40.7111 23.5829 40.7119 23.5829 40.7127 23.5829C40.7135 23.5829 40.7143 23.5829 40.7151 23.5829C40.7159 23.5829 40.7168 23.5829 40.7176 23.5829C40.7184 23.5829 40.7192 23.5829 40.72 23.5829C40.7208 23.5829 40.7216 23.5829 40.7224 23.5829C40.7232 23.5829 40.724 23.5829 40.7249 23.5829C40.7257 23.5829 40.7265 23.5829 40.7273 23.5829C40.7281 23.5829 40.7289 23.5829 40.7297 23.5829C40.7305 23.5829 40.7313 23.5829 40.7322 23.5829C40.733 23.5829 40.7338 23.5829 40.7346 23.5829C40.7354 23.5829 40.7362 23.5829 40.737 23.5829C40.7378 23.5829 40.7387 23.5829 40.7395 23.5829C40.7403 23.5829 40.7411 23.5829 40.7419 23.5829C40.7427 23.5829 40.7435 23.5829 40.7444 23.5829C40.7452 23.5829 40.746 23.5829 40.7468 23.5829C40.7476 23.5829 40.7484 23.5829 40.7492 23.5829C40.7501 23.5829 40.7509 23.5829 40.7517 23.5829C40.7525 23.5829 40.7533 23.5829 40.7541 23.5829C40.755 23.5829 40.7558 23.5829 40.7566 23.5829C40.7574 23.5829 40.7582 23.5829 40.759 23.5829C40.7599 23.5829 40.7607 23.5829 40.7615 23.5829C40.7623 23.5829 40.7631 23.5829 40.7639 23.5829C40.7648 23.5829 40.7656 23.5829 40.7664 23.5829C40.7672 23.5829 40.768 23.5829 40.7689 23.5829C40.7697 23.5829 40.7705 23.5829 40.7713 23.5829C40.7721 23.5829 40.7729 23.5829 40.7738 23.5829C40.7746 23.5829 40.7754 23.5829 40.7762 23.5829C40.777 23.5829 40.7779 23.5829 40.7787 23.5829C40.7795 23.5829 40.7803 23.5829 40.7811 23.5829C40.782 23.5829 40.7828 23.5829 40.7836 23.5829C40.7844 23.5829 40.7852 23.5829 40.7861 23.5829C40.7869 23.5829 40.7877 23.5829 40.7885 23.5829C40.7893 23.5829 40.7902 23.5829 40.791 23.5829C40.7918 23.5829 40.7926 23.5829 40.7934 23.5829C40.7943 23.5829 40.7951 23.5829 40.7959 23.5829C40.7967 23.5829 40.7976 23.5829 40.7984 23.5829C40.7992 23.5829 40.8 23.5829 40.8008 23.5829C40.8017 23.5829 40.8025 23.5829 40.8033 23.5829C40.8041 23.5829 40.8049 23.5829 40.8058 23.5829C40.8066 23.5829 40.8074 23.5829 40.8082 23.5829C40.8091 23.5829 40.8099 23.5829 40.8107 23.5829C40.8115 23.5829 40.8123 23.5829 40.8132 23.5829C40.814 23.5829 40.8148 23.5829 40.8156 23.5829C40.8165 23.5829 40.8173 23.5829 40.8181 23.5829C40.8189 23.5829 40.8197 23.5829 40.8206 23.5829C40.8214 23.5829 40.8222 23.5829 40.823 23.5829C40.8239 23.5829 40.8247 23.5829 40.8255 23.5829C40.8263 23.5829 40.8272 23.5829 40.828 23.5829C40.8288 23.5829 40.8296 23.5829 40.8304 23.5829C40.8313 23.5829 40.8321 23.5829 40.8329 23.5829C40.8337 23.5829 40.8346 23.5829 40.8354 23.5829C40.8362 23.5829 40.837 23.5829 40.8379 23.5829C40.8387 23.5829 40.8395 23.5829 40.8403 23.5829C40.8411 23.5829 40.842 23.5829 40.8428 23.5829C40.8436 23.5829 40.8444 23.5829 40.8453 23.5829C40.8461 23.5829 40.8469 23.5829 40.8477 23.5829C40.8486 23.5829 40.8494 23.5829 40.8502 23.5829C40.851 23.5829 40.8518 23.5829 40.8527 23.5829C40.8535 23.5829 40.8543 23.5829 40.8551 23.5829C40.856 23.5829 40.8568 23.5829 40.8576 23.5829C40.8584 23.5829 40.8593 23.5829 40.8601 23.5829C40.8609 23.5829 40.8617 23.5829 40.8625 23.5829C40.8634 23.5829 40.8642 23.5829 40.865 23.5829C40.8658 23.5829 40.8667 23.5829 40.8675 23.5829C40.8683 23.5829 40.8691 23.5829 40.8699 23.5829C40.8708 23.5829 40.8716 23.5829 40.8724 23.5829C40.8732 23.5829 40.8741 23.5829 40.8749 23.5829C40.8757 23.5829 40.8765 23.5829 40.8774 23.5829C40.8782 23.5829 40.879 23.5829 40.8798 23.5829C40.8806 23.5829 40.8815 23.5829 40.8823 23.5829C40.8831 23.5829 40.8839 23.5829 40.8847 23.5829C40.8856 23.5829 40.8864 23.5829 40.8872 23.5829C40.888 23.5829 40.8889 23.5829 40.8897 23.5829C40.8905 23.5829 40.8913 23.5829 40.8921 23.5829C40.893 23.5829 40.8938 23.5829 40.8946 23.5829C40.8954 23.5829 40.8962 23.5829 40.8971 23.5829C40.8979 23.5829 40.8987 23.5829 40.8995 23.5829C40.9003 23.5829 40.9012 23.5829 40.902 23.5829C40.9028 23.5829 40.9036 23.5829 40.9044 23.5829C40.9053 23.5829 40.9061 23.5829 40.9069 23.5829C40.9077 23.5829 40.9085 23.5829 40.9094 23.5829C40.9102 23.5829 40.911 23.5829 40.9118 23.5829C40.9126 23.5829 40.9135 23.5829 40.9143 23.5829C40.9151 23.5829 40.9159 23.5829 40.9167 23.5829C40.9176 23.5829 40.9184 23.5829 40.9192 23.5829C40.92 23.5829 40.9208 23.5829 40.9216 23.5829C40.9225 23.5829 40.9233 23.5829 40.9241 23.5829C40.9249 23.5829 40.9257 23.5829 40.9266 23.5829C40.9274 23.5829 40.9282 23.5829 40.929 23.5829C40.9298 23.5829 40.9306 23.5829 40.9315 23.5829C40.9323 23.5829 40.9331 23.5829 40.9339 23.5829C40.9347 23.5829 40.9355 23.5829 40.9363 23.5829C40.9372 23.5829 40.938 23.5829 40.9388 23.5829C40.9396 23.5829 40.9404 23.5829 40.9412 23.5829C40.9421 23.5829 40.9429 23.5829 40.9437 23.5829C40.9445 23.5829 40.9453 23.5829 40.9461 23.5829C40.9469 23.5829 40.9478 23.5829 40.9486 23.5829C40.9494 23.5829 40.9502 23.5829 40.951 23.5829C40.9518 23.5829 40.9526 23.5829 40.9534 23.5829C40.9543 23.5829 40.9551 23.5829 40.9559 23.5829C40.9567 23.5829 40.9575 23.5829 40.9583 23.5829C40.9591 23.5829 40.9599 23.5829 40.9608 23.5829C40.9616 23.5829 40.9624 23.5829 40.9632 23.5829C40.964 23.5829 40.9648 23.5829 40.9656 23.5829C40.9664 23.5829 40.9672 23.5829 40.968 23.5829C40.9689 23.5829 40.9697 23.5829 40.9705 23.5829C40.9713 23.5829 40.9721 23.5829 40.9729 23.5829C40.9737 23.5829 40.9745 23.5829 40.9753 23.5829C40.9761 23.5829 40.9769 23.5829 40.9778 23.5829C40.9786 23.5829 40.9794 23.5829 40.9802 23.5829C40.981 23.5829 40.9818 23.5829 40.9826 23.5829C40.9834 23.5829 40.9842 23.5829 40.985 23.5829C40.9858 23.5829 40.9866 23.5829 40.9874 23.5829C40.9882 23.5829 40.989 23.5829 40.9898 23.5829C40.9906 23.5829 40.9914 23.5829 40.9923 23.5829C40.9931 23.5829 40.9939 23.5829 40.9947 23.5829C40.9955 23.5829 40.9963 23.5829 40.9971 23.5829C40.9979 23.5829 40.9987 23.5829 40.9995 23.5829C41.0003 23.5829 41.0011 23.5829 41.0019 23.5829C41.0027 23.5829 41.0035 23.5829 41.0043 23.5829C41.0051 23.5829 41.0059 23.5829 41.0067 23.5829C41.0075 23.5829 41.0083 23.5829 41.0091 23.5829C41.0099 23.5829 41.0107 23.5829 41.0115 23.5829C41.0123 23.5829 41.0131 23.5829 41.0139 23.5829C41.0147 23.5829 41.0155 23.5829 41.0163 23.5829C41.0171 23.5829 41.0179 23.5829 41.0187 23.5829C41.0195 23.5829 41.0202 23.5829 41.021 23.5829C41.0218 23.5829 41.0226 23.5829 41.0234 23.5829C41.0242 23.5829 41.025 23.5829 41.0258 23.5829C41.0266 23.5829 41.0274 23.5829 41.0282 23.5829C41.029 23.5829 41.0298 23.5829 41.0306 23.5829C41.0314 23.5829 41.0322 23.5829 41.0329 23.5829C41.0337 23.5829 41.0345 23.5829 41.0353 23.5829C41.0361 23.5829 41.0369 23.5829 41.0377 23.5829C41.0385 23.5829 41.0393 23.5829 41.0401 23.5829C41.0408 23.5829 41.0416 23.5829 41.0424 23.5829C41.0432 23.5829 41.044 23.5829 41.0448 23.5829C41.0456 23.5829 41.0464 23.5829 41.0471 23.5829C41.0479 23.5829 41.0487 23.5829 41.0495 23.5829C41.0503 23.5829 41.0511 23.5829 41.0519 23.5829C41.0526 23.5829 41.0534 23.5829 41.0542 23.5829C41.055 23.5829 41.0558 23.5829 41.0566 23.5829C41.0573 23.5829 41.0581 23.5829 41.0589 23.5829C41.0597 23.5829 41.0605 23.5829 41.0613 23.5829C41.062 23.5829 41.0628 23.5829 41.0636 23.5829C41.0644 23.5829 41.0652 23.5829 41.0659 23.5829C41.0667 23.5829 41.0675 23.5829 41.0683 23.5829C41.069 23.5829 41.0698 23.5829 41.0706 23.5829C41.0714 23.5829 41.0722 23.5829 41.0729 23.5829C41.0737 23.5829 41.0745 23.5829 41.0753 23.5829C41.076 23.5829 41.0768 23.5829 41.0776 23.5829C41.0784 23.5829 41.0791 23.5829 41.0799 23.5829C41.0807 23.5829 41.0814 23.5829 41.0822 23.5829C41.083 23.5829 41.0838 23.5829 41.0845 23.5829C41.0853 23.5829 41.0861 23.5829 41.0868 23.5829C41.0876 23.5829 41.0884 23.5829 41.0892 23.5829C41.0899 23.5829 41.0907 23.5829 41.0915 23.5829C41.0922 23.5829 41.093 23.5829 41.0938 23.5829C41.0945 23.5829 41.0953 23.5829 41.0961 23.5829C41.0968 23.5829 41.0976 23.5829 41.0984 23.5829C41.0991 23.5829 41.0999 23.5829 41.1006 23.5829C41.1014 23.5829 41.1022 23.5829 41.1029 23.5829C41.1037 23.5829 41.1045 23.5829 41.1052 23.5829C41.106 23.5829 41.1067 23.5829 41.1075 23.5829C41.1083 23.5829 41.109 23.5829 41.1098 23.5829C41.1105 23.5829 41.1113 23.5829 41.1121 23.5829C41.1128 23.5829 41.1136 23.5829 41.1143 23.5829C41.1151 23.5829 41.1158 23.5829 41.1166 23.5829C41.1173 23.5829 41.1181 23.5829 41.1189 23.5829C41.1196 23.5829 41.1204 23.5829 41.1211 23.5829C41.1219 23.5829 41.1226 23.5829 41.1234 23.5829C41.1241 23.5829 41.1249 23.5829 41.1256 23.5829C41.1264 23.5829 41.1271 23.5829 41.1279 23.5829C41.1286 23.5829 41.1294 23.5829 41.1301 23.5829C41.1309 23.5829 41.1316 23.5829 41.1324 23.5829C41.1331 23.5829 41.1339 23.5829 41.1346 23.5829C41.1353 23.5829 41.1361 23.5829 41.1368 23.5829C41.1376 23.5829 41.1383 23.5829 41.1391 23.5829C41.1398 23.5829 41.1405 23.5829 41.1413 23.5829C41.142 23.5829 41.1428 23.5829 41.1435 23.5829C41.1443 23.5829 41.145 23.5829 41.1457 23.5829C41.1465 23.5829 41.1472 23.5829 41.1479 23.5829C41.1487 23.5829 41.1494 23.5829 41.1502 23.5829C41.1509 23.5829 41.1516 23.5829 41.1524 23.5829C41.1531 23.5829 41.1538 23.5829 41.1546 23.5829C41.1553 23.5829 41.156 23.5829 41.1568 23.5829C41.1575 23.5829 41.1582 23.5829 41.159 23.5829C41.1597 23.5829 41.1604 23.5829 41.1611 23.5829C41.1619 23.5829 41.1626 23.5829 41.1633 23.5829C41.1641 23.5829 41.1648 23.5829 41.1655 23.5829C41.1662 23.5829 41.167 23.5829 41.1677 23.5829C41.1684 23.5829 41.1691 23.5829 41.1699 23.5829C41.1706 23.5829 41.1713 23.5829 41.172 23.5829C41.1728 23.5829 41.1735 23.5829 41.1742 23.5829C41.1749 23.5829 41.1756 23.5829 41.1764 23.5829C41.1771 23.5829 41.1778 23.5829 41.1785 23.5829C41.1792 23.5829 41.1799 23.5829 41.1807 23.5829C41.1814 23.5829 41.1821 23.5829 41.1828 23.5829C41.1835 23.5829 41.1842 23.5829 41.1849 23.5829C41.1857 23.5829 41.1864 23.5829 41.1871 23.5829C41.1878 23.5829 41.1885 23.5829 41.1892 23.5829C41.1899 23.5829 41.1906 23.5829 41.1913 23.5829C41.1921 23.5829 41.1928 23.5829 41.1935 23.5829C41.1942 23.5829 41.1949 23.5829 41.1956 23.5829C41.1963 23.5829 41.197 23.5829 41.1977 23.5829C41.1984 23.5829 41.1991 23.5829 41.1998 23.5829C41.2005 23.5829 41.2012 23.5829 41.2019 23.5829C41.2026 23.5829 41.2033 23.5829 41.204 23.5829C41.2047 23.5829 41.2054 23.5829 41.2061 23.5829C41.2068 23.5829 41.2075 23.5829 41.2082 23.5829C41.2089 23.5829 41.2096 23.5829 41.2103 23.5829C41.211 23.5829 41.2117 23.5829 41.2124 23.5829C41.2131 23.5829 41.2138 23.5829 41.2144 23.5829C41.2151 23.5829 41.2158 23.5829 41.2165 23.5829C41.2172 23.5829 41.2179 23.5829 41.2186 23.5829C41.2193 23.5829 41.22 23.5829 41.2206 23.5829C41.2213 23.5829 41.222 23.5829 41.2227 23.5829C41.2234 23.5829 41.2241 23.5829 41.2247 23.5829C41.2254 23.5829 41.2261 23.5829 41.2268 23.5829C41.2275 23.5829 41.2281 23.5829 41.2288 23.5829C41.2295 23.5829 41.2302 23.5829 41.2309 23.5829C41.2315 23.5829 41.2322 23.5829 41.2329 23.5829C41.2336 23.5829 41.2342 23.5829 41.2349 23.5829C41.2356 23.5829 41.2363 23.5829 41.2369 23.5829C41.2376 23.5829 41.2383 23.5829 41.2389 23.5829C41.2396 23.5829 41.2403 23.5829 41.241 23.5829C41.2416 23.5829 41.2423 23.5829 41.243 23.5829C41.2436 23.5829 41.2443 23.5829 41.2449 23.5829C41.2456 23.5829 41.2463 23.5829 41.2469 23.5829C41.2476 23.5829 41.2483 23.5829 41.2489 23.5829C41.2496 23.5829 41.2502 23.5829 41.2509 23.5829C41.2516 23.5829 41.2522 23.5829 41.2529 23.5829C41.2535 23.5829 41.2542 23.5829 41.2549 23.5829C41.2555 23.5829 41.2562 23.5829 41.2568 23.5829C41.2575 23.5829 41.2581 23.5829 41.2588 23.5829C41.2594 23.5829 41.2601 23.5829 41.2607 23.5829C41.2614 23.5829 41.262 23.5829 41.2627 23.5829C41.2633 23.5829 41.264 23.5829 41.2646 23.5829C41.2653 23.5829 41.2659 23.5829 41.2665 23.5829C41.2672 23.5829 41.2678 23.5829 41.2685 23.5829C41.2691 23.5829 41.2698 23.5829 41.2704 23.5829C41.271 23.5829 41.2717 23.5829 41.2723 23.5829C41.273 23.5829 41.2736 23.5829 41.2742 23.5829C41.2749 23.5829 41.2755 23.5829 41.2761 23.5829C41.2768 23.5829 41.2774 23.5829 41.278 23.5829C41.2787 23.5829 41.2793 23.5829 41.2799 23.5829C41.2806 23.5829 41.2812 23.5829 41.2818 23.5829C41.2824 23.5829 41.2831 23.5829 41.2837 23.5829C41.2843 23.5829 41.2849 23.5829 41.2856 23.5829C41.2862 23.5829 41.2868 23.5829 41.2874 23.5829C41.2881 23.5829 41.2887 23.5829 41.2893 23.5829C41.2899 23.5829 41.2905 23.5829 41.2912 23.5829C41.2918 23.5829 41.2924 23.5829 41.293 23.5829C41.2936 23.5829 41.2942 23.5829 41.2949 23.5829C41.2955 23.5829 41.2961 23.5829 41.2967 23.5829C41.2973 23.5829 41.2979 23.5829 41.2985 23.5829C41.2991 23.5829 41.2997 23.5829 41.3003 23.5829C41.301 23.5829 41.3016 23.5829 41.3022 23.5829C41.3028 23.5829 41.3034 23.5829 41.304 23.5829C41.3046 23.5829 41.3052 23.5829 41.3058 23.5829C41.3064 23.5829 41.307 23.5829 41.3076 23.5829C41.3082 23.5829 41.3088 23.5829 41.3094 23.5829C41.31 23.5829 41.3106 23.5829 41.3112 23.5829C41.3118 23.5829 41.3123 23.5829 41.3129 23.5829C41.3135 23.5829 41.3141 23.5829 41.3147 23.5829C41.3153 23.5829 41.3159 23.5829 41.3165 23.5829C41.3171 23.5829 41.3177 23.5829 41.3182 23.5829C41.3188 23.5829 41.3194 23.5829 41.32 23.5829C41.3206 23.5829 41.3212 23.5829 41.3217 23.5829C41.3223 23.5829 41.3229 23.5829 41.3235 23.5829C41.3241 23.5829 41.3246 23.5829 41.3252 23.5829C41.3258 23.5829 41.3264 23.5829 41.3269 23.5829C41.3275 23.5829 41.3281 23.5829 41.3287 23.5829C41.3292 23.5829 41.3298 23.5829 41.3304 23.5829C41.3309 23.5829 41.3315 23.5829 41.3321 23.5829C41.3326 23.5829 41.3332 23.5829 41.3338 23.5829C41.3343 23.5829 41.3349 23.5829 41.3355 23.5829C41.336 23.5829 41.3366 23.5829 41.3372 23.5829C41.3377 23.5829 41.3383 23.5829 41.3388 23.5829C41.3394 23.5829 41.3399 23.5829 41.3405 23.5829C41.3411 23.5829 41.3416 23.5829 41.3422 23.5829C41.3427 23.5829 41.3433 23.5829 41.3438 23.5829C41.3444 23.5829 41.3449 23.5829 41.3455 23.5829C41.346 23.5829 41.3466 23.5829 41.3471 23.5829C41.3477 23.5829 41.3482 23.5829 41.3487 23.5829C41.3493 23.5829 41.3498 23.5829 41.3504 23.5829C41.3509 23.5829 41.3514 23.5829 41.352 23.5829C41.3525 23.5829 41.3531 23.5829 41.3536 23.5829C41.3541 23.5829 41.3547 23.5829 41.3552 23.5829C41.3557 23.5829 41.3563 23.5829 41.3568 23.5829C41.3573 23.5829 41.3579 23.5829 41.3584 23.5829C41.3589 23.5829 41.3595 23.5829 41.36 23.5829C41.3605 23.5829 41.361 23.5829 41.3616 23.5829C41.3621 23.5829 41.3626 23.5829 41.3631 23.5829C41.3636 23.5829 41.3642 23.5829 41.3647 23.5829C41.3652 23.5829 41.3657 23.5829 41.3662 23.5829C41.3667 23.5829 41.3673 23.5829 41.3678 23.5829C41.3683 23.5829 41.3688 23.5829 41.3693 23.5829C41.3698 23.5829 41.3703 23.5829 41.3708 23.5829C41.3714 23.5829 41.3719 23.5829 41.3724 23.5829C41.3729 23.5829 41.3734 23.5829 41.3739 23.5829C41.3744 23.5829 41.3749 23.5829 41.3754 23.5829C41.3759 23.5829 41.3764 23.5829 41.3769 23.5829C41.3774 23.5829 41.3779 23.5829 41.3784 23.5829C41.3789 23.5829 41.3794 23.5829 41.3799 23.5829C41.3804 23.5829 41.3808 23.5829 41.3813 23.5829C41.3818 23.5829 41.3823 23.5829 41.3828 23.5829C41.3833 23.5829 41.3838 23.5829 41.3843 23.5829C41.3847 23.5829 41.3852 23.5829 41.3857 23.5829C41.3862 23.5829 41.3867 23.5829 41.3872 23.5829C41.3876 23.5829 41.3881 23.5829 41.3886 23.5829C41.3891 23.5829 41.3895 23.5829 41.39 23.5829C41.3905 23.5829 41.391 23.5829 41.3914 23.5829C41.3919 23.5829 41.3924 23.5829 41.3928 23.5829C41.3933 23.5829 41.3938 23.5829 41.3943 23.5829C41.3947 23.5829 41.3952 23.5829 41.3956 23.5829C41.3961 23.5829 41.3966 23.5829 41.397 23.5829C41.3975 23.5829 41.398 23.5829 41.3984 23.5829C41.3989 23.5829 41.3993 23.5829 41.3998 23.5829C41.4002 23.5829 41.4007 23.5829 41.4011 23.5829C41.4016 23.5829 41.402 23.5829 41.4025 23.5829C41.4029 23.5829 41.4034 23.5829 41.4038 23.5829C41.4043 23.5829 41.4047 23.5829 41.4052 23.5829C41.4056 23.5829 41.4061 23.5829 41.4065 23.5829C41.4069 23.5829 41.4074 23.5829 41.4078 23.5829C41.4083 23.5829 41.4087 23.5829 41.4091 23.5829C41.4096 23.5829 41.41 23.5829 41.4104 23.5829C41.4109 23.5829 41.4113 23.5829 41.4117 23.5829C41.4122 23.5829 41.4126 23.5829 41.413 23.5829C41.4134 23.5829 41.4139 23.5829 41.4143 23.5829V22.3152C41.4139 22.3152 41.4134 22.3152 41.413 22.3152C41.4126 22.3152 41.4122 22.3152 41.4117 22.3152C41.4113 22.3152 41.4109 22.3152 41.4104 22.3152C41.41 22.3152 41.4096 22.3152 41.4091 22.3152C41.4087 22.3152 41.4083 22.3152 41.4078 22.3152C41.4074 22.3152 41.4069 22.3152 41.4065 22.3152C41.4061 22.3152 41.4056 22.3152 41.4052 22.3152C41.4047 22.3152 41.4043 22.3152 41.4038 22.3152C41.4034 22.3152 41.4029 22.3152 41.4025 22.3152C41.402 22.3152 41.4016 22.3152 41.4011 22.3152C41.4007 22.3152 41.4002 22.3152 41.3998 22.3152C41.3993 22.3152 41.3989 22.3152 41.3984 22.3152C41.398 22.3152 41.3975 22.3152 41.397 22.3152C41.3966 22.3152 41.3961 22.3152 41.3956 22.3152C41.3952 22.3152 41.3947 22.3152 41.3943 22.3152C41.3938 22.3152 41.3933 22.3152 41.3928 22.3152C41.3924 22.3152 41.3919 22.3152 41.3914 22.3152C41.391 22.3152 41.3905 22.3152 41.39 22.3152C41.3895 22.3152 41.3891 22.3152 41.3886 22.3152C41.3881 22.3152 41.3876 22.3152 41.3872 22.3152C41.3867 22.3152 41.3862 22.3152 41.3857 22.3152C41.3852 22.3152 41.3847 22.3152 41.3843 22.3152C41.3838 22.3152 41.3833 22.3152 41.3828 22.3152C41.3823 22.3152 41.3818 22.3152 41.3813 22.3152C41.3808 22.3152 41.3804 22.3152 41.3799 22.3152C41.3794 22.3152 41.3789 22.3152 41.3784 22.3152C41.3779 22.3152 41.3774 22.3152 41.3769 22.3152C41.3764 22.3152 41.3759 22.3152 41.3754 22.3152C41.3749 22.3152 41.3744 22.3152 41.3739 22.3152C41.3734 22.3152 41.3729 22.3152 41.3724 22.3152C41.3719 22.3152 41.3714 22.3152 41.3708 22.3152C41.3703 22.3152 41.3698 22.3152 41.3693 22.3152C41.3688 22.3152 41.3683 22.3152 41.3678 22.3152C41.3673 22.3152 41.3667 22.3152 41.3662 22.3152C41.3657 22.3152 41.3652 22.3152 41.3647 22.3152C41.3642 22.3152 41.3636 22.3152 41.3631 22.3152C41.3626 22.3152 41.3621 22.3152 41.3616 22.3152C41.361 22.3152 41.3605 22.3152 41.36 22.3152C41.3595 22.3152 41.3589 22.3152 41.3584 22.3152C41.3579 22.3152 41.3573 22.3152 41.3568 22.3152C41.3563 22.3152 41.3557 22.3152 41.3552 22.3152C41.3547 22.3152 41.3541 22.3152 41.3536 22.3152C41.3531 22.3152 41.3525 22.3152 41.352 22.3152C41.3514 22.3152 41.3509 22.3152 41.3504 22.3152C41.3498 22.3152 41.3493 22.3152 41.3487 22.3152C41.3482 22.3152 41.3477 22.3152 41.3471 22.3152C41.3466 22.3152 41.346 22.3152 41.3455 22.3152C41.3449 22.3152 41.3444 22.3152 41.3438 22.3152C41.3433 22.3152 41.3427 22.3152 41.3422 22.3152C41.3416 22.3152 41.3411 22.3152 41.3405 22.3152C41.3399 22.3152 41.3394 22.3152 41.3388 22.3152C41.3383 22.3152 41.3377 22.3152 41.3372 22.3152C41.3366 22.3152 41.336 22.3152 41.3355 22.3152C41.3349 22.3152 41.3343 22.3152 41.3338 22.3152C41.3332 22.3152 41.3326 22.3152 41.3321 22.3152C41.3315 22.3152 41.3309 22.3152 41.3304 22.3152C41.3298 22.3152 41.3292 22.3152 41.3287 22.3152C41.3281 22.3152 41.3275 22.3152 41.3269 22.3152C41.3264 22.3152 41.3258 22.3152 41.3252 22.3152C41.3246 22.3152 41.3241 22.3152 41.3235 22.3152C41.3229 22.3152 41.3223 22.3152 41.3217 22.3152C41.3212 22.3152 41.3206 22.3152 41.32 22.3152C41.3194 22.3152 41.3188 22.3152 41.3182 22.3152C41.3177 22.3152 41.3171 22.3152 41.3165 22.3152C41.3159 22.3152 41.3153 22.3152 41.3147 22.3152C41.3141 22.3152 41.3135 22.3152 41.3129 22.3152C41.3123 22.3152 41.3118 22.3152 41.3112 22.3152C41.3106 22.3152 41.31 22.3152 41.3094 22.3152C41.3088 22.3152 41.3082 22.3152 41.3076 22.3152C41.307 22.3152 41.3064 22.3152 41.3058 22.3152C41.3052 22.3152 41.3046 22.3152 41.304 22.3152C41.3034 22.3152 41.3028 22.3152 41.3022 22.3152C41.3016 22.3152 41.301 22.3152 41.3003 22.3152C41.2997 22.3152 41.2991 22.3152 41.2985 22.3152C41.2979 22.3152 41.2973 22.3152 41.2967 22.3152C41.2961 22.3152 41.2955 22.3152 41.2949 22.3152C41.2942 22.3152 41.2936 22.3152 41.293 22.3152C41.2924 22.3152 41.2918 22.3152 41.2912 22.3152C41.2905 22.3152 41.2899 22.3152 41.2893 22.3152C41.2887 22.3152 41.2881 22.3152 41.2874 22.3152C41.2868 22.3152 41.2862 22.3152 41.2856 22.3152C41.2849 22.3152 41.2843 22.3152 41.2837 22.3152C41.2831 22.3152 41.2824 22.3152 41.2818 22.3152C41.2812 22.3152 41.2806 22.3152 41.2799 22.3152C41.2793 22.3152 41.2787 22.3152 41.278 22.3152C41.2774 22.3152 41.2768 22.3152 41.2761 22.3152C41.2755 22.3152 41.2749 22.3152 41.2742 22.3152C41.2736 22.3152 41.273 22.3152 41.2723 22.3152C41.2717 22.3152 41.271 22.3152 41.2704 22.3152C41.2698 22.3152 41.2691 22.3152 41.2685 22.3152C41.2678 22.3152 41.2672 22.3152 41.2665 22.3152C41.2659 22.3152 41.2653 22.3152 41.2646 22.3152C41.264 22.3152 41.2633 22.3152 41.2627 22.3152C41.262 22.3152 41.2614 22.3152 41.2607 22.3152C41.2601 22.3152 41.2594 22.3152 41.2588 22.3152C41.2581 22.3152 41.2575 22.3152 41.2568 22.3152C41.2562 22.3152 41.2555 22.3152 41.2549 22.3152C41.2542 22.3152 41.2535 22.3152 41.2529 22.3152C41.2522 22.3152 41.2516 22.3152 41.2509 22.3152C41.2502 22.3152 41.2496 22.3152 41.2489 22.3152C41.2483 22.3152 41.2476 22.3152 41.2469 22.3152C41.2463 22.3152 41.2456 22.3152 41.2449 22.3152C41.2443 22.3152 41.2436 22.3152 41.243 22.3152C41.2423 22.3152 41.2416 22.3152 41.241 22.3152C41.2403 22.3152 41.2396 22.3152 41.2389 22.3152C41.2383 22.3152 41.2376 22.3152 41.2369 22.3152C41.2363 22.3152 41.2356 22.3152 41.2349 22.3152C41.2342 22.3152 41.2336 22.3152 41.2329 22.3152C41.2322 22.3152 41.2315 22.3152 41.2309 22.3152C41.2302 22.3152 41.2295 22.3152 41.2288 22.3152C41.2281 22.3152 41.2275 22.3152 41.2268 22.3152C41.2261 22.3152 41.2254 22.3152 41.2247 22.3152C41.2241 22.3152 41.2234 22.3152 41.2227 22.3152C41.222 22.3152 41.2213 22.3152 41.2206 22.3152C41.22 22.3152 41.2193 22.3152 41.2186 22.3152C41.2179 22.3152 41.2172 22.3152 41.2165 22.3152C41.2158 22.3152 41.2151 22.3152 41.2144 22.3152C41.2138 22.3152 41.2131 22.3152 41.2124 22.3152C41.2117 22.3152 41.211 22.3152 41.2103 22.3152C41.2096 22.3152 41.2089 22.3152 41.2082 22.3152C41.2075 22.3152 41.2068 22.3152 41.2061 22.3152C41.2054 22.3152 41.2047 22.3152 41.204 22.3152C41.2033 22.3152 41.2026 22.3152 41.2019 22.3152C41.2012 22.3152 41.2005 22.3152 41.1998 22.3152C41.1991 22.3152 41.1984 22.3152 41.1977 22.3152C41.197 22.3152 41.1963 22.3152 41.1956 22.3152C41.1949 22.3152 41.1942 22.3152 41.1935 22.3152C41.1928 22.3152 41.1921 22.3152 41.1913 22.3152C41.1906 22.3152 41.1899 22.3152 41.1892 22.3152C41.1885 22.3152 41.1878 22.3152 41.1871 22.3152C41.1864 22.3152 41.1857 22.3152 41.1849 22.3152C41.1842 22.3152 41.1835 22.3152 41.1828 22.3152C41.1821 22.3152 41.1814 22.3152 41.1807 22.3152C41.1799 22.3152 41.1792 22.3152 41.1785 22.3152C41.1778 22.3152 41.1771 22.3152 41.1764 22.3152C41.1756 22.3152 41.1749 22.3152 41.1742 22.3152C41.1735 22.3152 41.1728 22.3152 41.172 22.3152C41.1713 22.3152 41.1706 22.3152 41.1699 22.3152C41.1691 22.3152 41.1684 22.3152 41.1677 22.3152C41.167 22.3152 41.1662 22.3152 41.1655 22.3152C41.1648 22.3152 41.1641 22.3152 41.1633 22.3152C41.1626 22.3152 41.1619 22.3152 41.1611 22.3152C41.1604 22.3152 41.1597 22.3152 41.159 22.3152C41.1582 22.3152 41.1575 22.3152 41.1568 22.3152C41.156 22.3152 41.1553 22.3152 41.1546 22.3152C41.1538 22.3152 41.1531 22.3152 41.1524 22.3152C41.1516 22.3152 41.1509 22.3152 41.1502 22.3152C41.1494 22.3152 41.1487 22.3152 41.1479 22.3152C41.1472 22.3152 41.1465 22.3152 41.1457 22.3152C41.145 22.3152 41.1443 22.3152 41.1435 22.3152C41.1428 22.3152 41.142 22.3152 41.1413 22.3152C41.1405 22.3152 41.1398 22.3152 41.1391 22.3152C41.1383 22.3152 41.1376 22.3152 41.1368 22.3152C41.1361 22.3152 41.1353 22.3152 41.1346 22.3152C41.1339 22.3152 41.1331 22.3152 41.1324 22.3152C41.1316 22.3152 41.1309 22.3152 41.1301 22.3152C41.1294 22.3152 41.1286 22.3152 41.1279 22.3152C41.1271 22.3152 41.1264 22.3152 41.1256 22.3152C41.1249 22.3152 41.1241 22.3152 41.1234 22.3152C41.1226 22.3152 41.1219 22.3152 41.1211 22.3152C41.1204 22.3152 41.1196 22.3152 41.1189 22.3152C41.1181 22.3152 41.1173 22.3152 41.1166 22.3152C41.1158 22.3152 41.1151 22.3152 41.1143 22.3152C41.1136 22.3152 41.1128 22.3152 41.1121 22.3152C41.1113 22.3152 41.1105 22.3152 41.1098 22.3152C41.109 22.3152 41.1083 22.3152 41.1075 22.3152C41.1067 22.3152 41.106 22.3152 41.1052 22.3152C41.1045 22.3152 41.1037 22.3152 41.1029 22.3152C41.1022 22.3152 41.1014 22.3152 41.1006 22.3152C41.0999 22.3152 41.0991 22.3152 41.0984 22.3152C41.0976 22.3152 41.0968 22.3152 41.0961 22.3152C41.0953 22.3152 41.0945 22.3152 41.0938 22.3152C41.093 22.3152 41.0922 22.3152 41.0915 22.3152C41.0907 22.3152 41.0899 22.3152 41.0892 22.3152C41.0884 22.3152 41.0876 22.3152 41.0868 22.3152C41.0861 22.3152 41.0853 22.3152 41.0845 22.3152C41.0838 22.3152 41.083 22.3152 41.0822 22.3152C41.0814 22.3152 41.0807 22.3152 41.0799 22.3152C41.0791 22.3152 41.0784 22.3152 41.0776 22.3152C41.0768 22.3152 41.076 22.3152 41.0753 22.3152C41.0745 22.3152 41.0737 22.3152 41.0729 22.3152C41.0722 22.3152 41.0714 22.3152 41.0706 22.3152C41.0698 22.3152 41.069 22.3152 41.0683 22.3152C41.0675 22.3152 41.0667 22.3152 41.0659 22.3152C41.0652 22.3152 41.0644 22.3152 41.0636 22.3152C41.0628 22.3152 41.062 22.3152 41.0613 22.3152C41.0605 22.3152 41.0597 22.3152 41.0589 22.3152C41.0581 22.3152 41.0573 22.3152 41.0566 22.3152C41.0558 22.3152 41.055 22.3152 41.0542 22.3152C41.0534 22.3152 41.0526 22.3152 41.0519 22.3152C41.0511 22.3152 41.0503 22.3152 41.0495 22.3152C41.0487 22.3152 41.0479 22.3152 41.0471 22.3152C41.0464 22.3152 41.0456 22.3152 41.0448 22.3152C41.044 22.3152 41.0432 22.3152 41.0424 22.3152C41.0416 22.3152 41.0408 22.3152 41.0401 22.3152C41.0393 22.3152 41.0385 22.3152 41.0377 22.3152C41.0369 22.3152 41.0361 22.3152 41.0353 22.3152C41.0345 22.3152 41.0337 22.3152 41.0329 22.3152C41.0322 22.3152 41.0314 22.3152 41.0306 22.3152C41.0298 22.3152 41.029 22.3152 41.0282 22.3152C41.0274 22.3152 41.0266 22.3152 41.0258 22.3152C41.025 22.3152 41.0242 22.3152 41.0234 22.3152C41.0226 22.3152 41.0218 22.3152 41.021 22.3152C41.0202 22.3152 41.0195 22.3152 41.0187 22.3152C41.0179 22.3152 41.0171 22.3152 41.0163 22.3152C41.0155 22.3152 41.0147 22.3152 41.0139 22.3152C41.0131 22.3152 41.0123 22.3152 41.0115 22.3152C41.0107 22.3152 41.0099 22.3152 41.0091 22.3152C41.0083 22.3152 41.0075 22.3152 41.0067 22.3152C41.0059 22.3152 41.0051 22.3152 41.0043 22.3152C41.0035 22.3152 41.0027 22.3152 41.0019 22.3152C41.0011 22.3152 41.0003 22.3152 40.9995 22.3152C40.9987 22.3152 40.9979 22.3152 40.9971 22.3152C40.9963 22.3152 40.9955 22.3152 40.9947 22.3152C40.9939 22.3152 40.9931 22.3152 40.9923 22.3152C40.9914 22.3152 40.9906 22.3152 40.9898 22.3152C40.989 22.3152 40.9882 22.3152 40.9874 22.3152C40.9866 22.3152 40.9858 22.3152 40.985 22.3152C40.9842 22.3152 40.9834 22.3152 40.9826 22.3152C40.9818 22.3152 40.981 22.3152 40.9802 22.3152C40.9794 22.3152 40.9786 22.3152 40.9778 22.3152C40.9769 22.3152 40.9761 22.3152 40.9753 22.3152C40.9745 22.3152 40.9737 22.3152 40.9729 22.3152C40.9721 22.3152 40.9713 22.3152 40.9705 22.3152C40.9697 22.3152 40.9689 22.3152 40.968 22.3152C40.9672 22.3152 40.9664 22.3152 40.9656 22.3152C40.9648 22.3152 40.964 22.3152 40.9632 22.3152C40.9624 22.3152 40.9616 22.3152 40.9608 22.3152C40.9599 22.3152 40.9591 22.3152 40.9583 22.3152C40.9575 22.3152 40.9567 22.3152 40.9559 22.3152C40.9551 22.3152 40.9543 22.3152 40.9534 22.3152C40.9526 22.3152 40.9518 22.3152 40.951 22.3152C40.9502 22.3152 40.9494 22.3152 40.9486 22.3152C40.9478 22.3152 40.9469 22.3152 40.9461 22.3152C40.9453 22.3152 40.9445 22.3152 40.9437 22.3152C40.9429 22.3152 40.9421 22.3152 40.9412 22.3152C40.9404 22.3152 40.9396 22.3152 40.9388 22.3152C40.938 22.3152 40.9372 22.3152 40.9363 22.3152C40.9355 22.3152 40.9347 22.3152 40.9339 22.3152C40.9331 22.3152 40.9323 22.3152 40.9315 22.3152C40.9306 22.3152 40.9298 22.3152 40.929 22.3152C40.9282 22.3152 40.9274 22.3152 40.9266 22.3152C40.9257 22.3152 40.9249 22.3152 40.9241 22.3152C40.9233 22.3152 40.9225 22.3152 40.9216 22.3152C40.9208 22.3152 40.92 22.3152 40.9192 22.3152C40.9184 22.3152 40.9176 22.3152 40.9167 22.3152C40.9159 22.3152 40.9151 22.3152 40.9143 22.3152C40.9135 22.3152 40.9126 22.3152 40.9118 22.3152C40.911 22.3152 40.9102 22.3152 40.9094 22.3152C40.9085 22.3152 40.9077 22.3152 40.9069 22.3152C40.9061 22.3152 40.9053 22.3152 40.9044 22.3152C40.9036 22.3152 40.9028 22.3152 40.902 22.3152C40.9012 22.3152 40.9003 22.3152 40.8995 22.3152C40.8987 22.3152 40.8979 22.3152 40.8971 22.3152C40.8962 22.3152 40.8954 22.3152 40.8946 22.3152C40.8938 22.3152 40.893 22.3152 40.8921 22.3152C40.8913 22.3152 40.8905 22.3152 40.8897 22.3152C40.8889 22.3152 40.888 22.3152 40.8872 22.3152C40.8864 22.3152 40.8856 22.3152 40.8847 22.3152C40.8839 22.3152 40.8831 22.3152 40.8823 22.3152C40.8815 22.3152 40.8806 22.3152 40.8798 22.3152C40.879 22.3152 40.8782 22.3152 40.8774 22.3152C40.8765 22.3152 40.8757 22.3152 40.8749 22.3152C40.8741 22.3152 40.8732 22.3152 40.8724 22.3152C40.8716 22.3152 40.8708 22.3152 40.8699 22.3152C40.8691 22.3152 40.8683 22.3152 40.8675 22.3152C40.8667 22.3152 40.8658 22.3152 40.865 22.3152C40.8642 22.3152 40.8634 22.3152 40.8625 22.3152C40.8617 22.3152 40.8609 22.3152 40.8601 22.3152C40.8593 22.3152 40.8584 22.3152 40.8576 22.3152C40.8568 22.3152 40.856 22.3152 40.8551 22.3152C40.8543 22.3152 40.8535 22.3152 40.8527 22.3152C40.8518 22.3152 40.851 22.3152 40.8502 22.3152C40.8494 22.3152 40.8486 22.3152 40.8477 22.3152C40.8469 22.3152 40.8461 22.3152 40.8453 22.3152C40.8444 22.3152 40.8436 22.3152 40.8428 22.3152C40.842 22.3152 40.8411 22.3152 40.8403 22.3152C40.8395 22.3152 40.8387 22.3152 40.8379 22.3152C40.837 22.3152 40.8362 22.3152 40.8354 22.3152C40.8346 22.3152 40.8337 22.3152 40.8329 22.3152C40.8321 22.3152 40.8313 22.3152 40.8304 22.3152C40.8296 22.3152 40.8288 22.3152 40.828 22.3152C40.8272 22.3152 40.8263 22.3152 40.8255 22.3152C40.8247 22.3152 40.8239 22.3152 40.823 22.3152C40.8222 22.3152 40.8214 22.3152 40.8206 22.3152C40.8197 22.3152 40.8189 22.3152 40.8181 22.3152C40.8173 22.3152 40.8165 22.3152 40.8156 22.3152C40.8148 22.3152 40.814 22.3152 40.8132 22.3152C40.8123 22.3152 40.8115 22.3152 40.8107 22.3152C40.8099 22.3152 40.8091 22.3152 40.8082 22.3152C40.8074 22.3152 40.8066 22.3152 40.8058 22.3152C40.8049 22.3152 40.8041 22.3152 40.8033 22.3152C40.8025 22.3152 40.8017 22.3152 40.8008 22.3152C40.8 22.3152 40.7992 22.3152 40.7984 22.3152C40.7976 22.3152 40.7967 22.3152 40.7959 22.3152C40.7951 22.3152 40.7943 22.3152 40.7934 22.3152C40.7926 22.3152 40.7918 22.3152 40.791 22.3152C40.7902 22.3152 40.7893 22.3152 40.7885 22.3152C40.7877 22.3152 40.7869 22.3152 40.7861 22.3152C40.7852 22.3152 40.7844 22.3152 40.7836 22.3152C40.7828 22.3152 40.782 22.3152 40.7811 22.3152C40.7803 22.3152 40.7795 22.3152 40.7787 22.3152C40.7779 22.3152 40.777 22.3152 40.7762 22.3152C40.7754 22.3152 40.7746 22.3152 40.7738 22.3152C40.7729 22.3152 40.7721 22.3152 40.7713 22.3152C40.7705 22.3152 40.7697 22.3152 40.7689 22.3152C40.768 22.3152 40.7672 22.3152 40.7664 22.3152C40.7656 22.3152 40.7648 22.3152 40.7639 22.3152C40.7631 22.3152 40.7623 22.3152 40.7615 22.3152C40.7607 22.3152 40.7599 22.3152 40.759 22.3152C40.7582 22.3152 40.7574 22.3152 40.7566 22.3152C40.7558 22.3152 40.755 22.3152 40.7541 22.3152C40.7533 22.3152 40.7525 22.3152 40.7517 22.3152C40.7509 22.3152 40.7501 22.3152 40.7492 22.3152C40.7484 22.3152 40.7476 22.3152 40.7468 22.3152C40.746 22.3152 40.7452 22.3152 40.7444 22.3152C40.7435 22.3152 40.7427 22.3152 40.7419 22.3152C40.7411 22.3152 40.7403 22.3152 40.7395 22.3152C40.7387 22.3152 40.7378 22.3152 40.737 22.3152C40.7362 22.3152 40.7354 22.3152 40.7346 22.3152C40.7338 22.3152 40.733 22.3152 40.7322 22.3152C40.7313 22.3152 40.7305 22.3152 40.7297 22.3152C40.7289 22.3152 40.7281 22.3152 40.7273 22.3152C40.7265 22.3152 40.7257 22.3152 40.7249 22.3152C40.724 22.3152 40.7232 22.3152 40.7224 22.3152C40.7216 22.3152 40.7208 22.3152 40.72 22.3152C40.7192 22.3152 40.7184 22.3152 40.7176 22.3152C40.7168 22.3152 40.7159 22.3152 40.7151 22.3152C40.7143 22.3152 40.7135 22.3152 40.7127 22.3152C40.7119 22.3152 40.7111 22.3152 40.7103 22.3152C40.7095 22.3152 40.7087 22.3152 40.7079 22.3152C40.7071 22.3152 40.7062 22.3152 40.7054 22.3152C40.7046 22.3152 40.7038 22.3152 40.703 22.3152C40.7022 22.3152 40.7014 22.3152 40.7006 22.3152C40.6998 22.3152 40.699 22.3152 40.6982 22.3152C40.6974 22.3152 40.6966 22.3152 40.6958 22.3152C40.695 22.3152 40.6942 22.3152 40.6934 22.3152C40.6926 22.3152 40.6918 22.3152 40.691 22.3152C40.6902 22.3152 40.6894 22.3152 40.6886 22.3152C40.6878 22.3152 40.6869 22.3152 40.6861 22.3152C40.6853 22.3152 40.6845 22.3152 40.6837 22.3152C40.6829 22.3152 40.6821 22.3152 40.6813 22.3152C40.6805 22.3152 40.6797 22.3152 40.6789 22.3152C40.6781 22.3152 40.6773 22.3152 40.6765 22.3152C40.6757 22.3152 40.6749 22.3152 40.6742 22.3152C40.6734 22.3152 40.6726 22.3152 40.6718 22.3152C40.671 22.3152 40.6702 22.3152 40.6694 22.3152C40.6686 22.3152 40.6678 22.3152 40.667 22.3152C40.6662 22.3152 40.6654 22.3152 40.6646 22.3152C40.6638 22.3152 40.663 22.3152 40.6622 22.3152C40.6614 22.3152 40.6606 22.3152 40.6598 22.3152C40.659 22.3152 40.6582 22.3152 40.6575 22.3152C40.6567 22.3152 40.6559 22.3152 40.6551 22.3152C40.6543 22.3152 40.6535 22.3152 40.6527 22.3152C40.6519 22.3152 40.6511 22.3152 40.6503 22.3152C40.6495 22.3152 40.6487 22.3152 40.648 22.3152C40.6472 22.3152 40.6464 22.3152 40.6456 22.3152C40.6448 22.3152 40.644 22.3152 40.6432 22.3152C40.6424 22.3152 40.6417 22.3152 40.6409 22.3152C40.6401 22.3152 40.6393 22.3152 40.6385 22.3152C40.6377 22.3152 40.6369 22.3152 40.6362 22.3152C40.6354 22.3152 40.6346 22.3152 40.6338 22.3152C40.633 22.3152 40.6322 22.3152 40.6315 22.3152C40.6307 22.3152 40.6299 22.3152 40.6291 22.3152C40.6283 22.3152 40.6275 22.3152 40.6268 22.3152C40.626 22.3152 40.6252 22.3152 40.6244 22.3152C40.6236 22.3152 40.6229 22.3152 40.6221 22.3152C40.6213 22.3152 40.6205 22.3152 40.6197 22.3152C40.619 22.3152 40.6182 22.3152 40.6174 22.3152C40.6166 22.3152 40.6159 22.3152 40.6151 22.3152C40.6143 22.3152 40.6135 22.3152 40.6127 22.3152C40.612 22.3152 40.6112 22.3152 40.6104 22.3152C40.6096 22.3152 40.6089 22.3152 40.6081 22.3152C40.6073 22.3152 40.6066 22.3152 40.6058 22.3152C40.605 22.3152 40.6042 22.3152 40.6035 22.3152C40.6027 22.3152 40.6019 22.3152 40.6012 22.3152C40.6004 22.3152 40.5996 22.3152 40.5988 22.3152C40.5981 22.3152 40.5973 22.3152 40.5965 22.3152C40.5958 22.3152 40.595 22.3152 40.5942 22.3152C40.5935 22.3152 40.5927 22.3152 40.5919 22.3152C40.5912 22.3152 40.5904 22.3152 40.5896 22.3152C40.5889 22.3152 40.5881 22.3152 40.5873 22.3152C40.5866 22.3152 40.5858 22.3152 40.5851 22.3152C40.5843 22.3152 40.5835 22.3152 40.5828 22.3152C40.582 22.3152 40.5812 22.3152 40.5805 22.3152C40.5797 22.3152 40.579 22.3152 40.5782 22.3152C40.5775 22.3152 40.5767 22.3152 40.5759 22.3152C40.5752 22.3152 40.5744 22.3152 40.5737 22.3152C40.5729 22.3152 40.5721 22.3152 40.5714 22.3152C40.5706 22.3152 40.5699 22.3152 40.5691 22.3152C40.5684 22.3152 40.5676 22.3152 40.5669 22.3152C40.5661 22.3152 40.5654 22.3152 40.5646 22.3152C40.5639 22.3152 40.5631 22.3152 40.5624 22.3152C40.5616 22.3152 40.5609 22.3152 40.5601 22.3152C40.5594 22.3152 40.5586 22.3152 40.5579 22.3152C40.5571 22.3152 40.5564 22.3152 40.5556 22.3152C40.5549 22.3152 40.5541 22.3152 40.5534 22.3152C40.5526 22.3152 40.5519 22.3152 40.5511 22.3152C40.5504 22.3152 40.5496 22.3152 40.5489 22.3152C40.5482 22.3152 40.5474 22.3152 40.5467 22.3152C40.5459 22.3152 40.5452 22.3152 40.5445 22.3152C40.5437 22.3152 40.543 22.3152 40.5422 22.3152C40.5415 22.3152 40.5408 22.3152 40.54 22.3152C40.5393 22.3152 40.5385 22.3152 40.5378 22.3152C40.5371 22.3152 40.5363 22.3152 40.5356 22.3152C40.5349 22.3152 40.5341 22.3152 40.5334 22.3152C40.5327 22.3152 40.5319 22.3152 40.5312 22.3152C40.5305 22.3152 40.5297 22.3152 40.529 22.3152C40.5283 22.3152 40.5275 22.3152 40.5268 22.3152C40.5261 22.3152 40.5254 22.3152 40.5246 22.3152C40.5239 22.3152 40.5232 22.3152 40.5224 22.3152C40.5217 22.3152 40.521 22.3152 40.5203 22.3152C40.5195 22.3152 40.5188 22.3152 40.5181 22.3152C40.5174 22.3152 40.5166 22.3152 40.5159 22.3152C40.5152 22.3152 40.5145 22.3152 40.5138 22.3152C40.513 22.3152 40.5123 22.3152 40.5116 22.3152C40.5109 22.3152 40.5102 22.3152 40.5094 22.3152C40.5087 22.3152 40.508 22.3152 40.5073 22.3152C40.5066 22.3152 40.5058 22.3152 40.5051 22.3152C40.5044 22.3152 40.5037 22.3152 40.503 22.3152C40.5023 22.3152 40.5016 22.3152 40.5008 22.3152C40.5001 22.3152 40.4994 22.3152 40.4987 22.3152C40.498 22.3152 40.4973 22.3152 40.4966 22.3152C40.4959 22.3152 40.4952 22.3152 40.4945 22.3152C40.4938 22.3152 40.493 22.3152 40.4923 22.3152C40.4916 22.3152 40.4909 22.3152 40.4902 22.3152C40.4895 22.3152 40.4888 22.3152 40.4881 22.3152C40.4874 22.3152 40.4867 22.3152 40.486 22.3152C40.4853 22.3152 40.4846 22.3152 40.4839 22.3152C40.4832 22.3152 40.4825 22.3152 40.4818 22.3152C40.4811 22.3152 40.4804 22.3152 40.4797 22.3152C40.479 22.3152 40.4783 22.3152 40.4776 22.3152C40.4769 22.3152 40.4762 22.3152 40.4755 22.3152C40.4749 22.3152 40.4742 22.3152 40.4735 22.3152C40.4728 22.3152 40.4721 22.3152 40.4714 22.3152C40.4707 22.3152 40.47 22.3152 40.4693 22.3152C40.4686 22.3152 40.468 22.3152 40.4673 22.3152C40.4666 22.3152 40.4659 22.3152 40.4652 22.3152C40.4645 22.3152 40.4638 22.3152 40.4632 22.3152C40.4625 22.3152 40.4618 22.3152 40.4611 22.3152C40.4604 22.3152 40.4598 22.3152 40.4591 22.3152C40.4584 22.3152 40.4577 22.3152 40.457 22.3152C40.4564 22.3152 40.4557 22.3152 40.455 22.3152C40.4543 22.3152 40.4537 22.3152 40.453 22.3152C40.4523 22.3152 40.4516 22.3152 40.451 22.3152C40.4503 22.3152 40.4496 22.3152 40.4489 22.3152C40.4483 22.3152 40.4476 22.3152 40.4469 22.3152C40.4463 22.3152 40.4456 22.3152 40.4449 22.3152C40.4443 22.3152 40.4436 22.3152 40.4429 22.3152C40.4423 22.3152 40.4416 22.3152 40.4409 22.3152C40.4403 22.3152 40.4396 22.3152 40.439 22.3152C40.4383 22.3152 40.4376 22.3152 40.437 22.3152C40.4363 22.3152 40.4357 22.3152 40.435 22.3152C40.4343 22.3152 40.4337 22.3152 40.433 22.3152C40.4324 22.3152 40.4317 22.3152 40.4311 22.3152C40.4304 22.3152 40.4298 22.3152 40.4291 22.3152C40.4284 22.3152 40.4278 22.3152 40.4271 22.3152C40.4265 22.3152 40.4258 22.3152 40.4252 22.3152C40.4245 22.3152 40.4239 22.3152 40.4233 22.3152C40.4226 22.3152 40.422 22.3152 40.4213 22.3152C40.4207 22.3152 40.42 22.3152 40.4194 22.3152C40.4187 22.3152 40.4181 22.3152 40.4175 22.3152C40.4168 22.3152 40.4162 22.3152 40.4155 22.3152C40.4149 22.3152 40.4143 22.3152 40.4136 22.3152C40.413 22.3152 40.4124 22.3152 40.4117 22.3152C40.4111 22.3152 40.4105 22.3152 40.4098 22.3152C40.4092 22.3152 40.4086 22.3152 40.4079 22.3152C40.4073 22.3152 40.4067 22.3152 40.406 22.3152C40.4054 22.3152 40.4048 22.3152 40.4042 22.3152C40.4035 22.3152 40.4029 22.3152 40.4023 22.3152C40.4017 22.3152 40.401 22.3152 40.4004 22.3152C40.3998 22.3152 40.3992 22.3152 40.3985 22.3152C40.3979 22.3152 40.3973 22.3152 40.3967 22.3152C40.3961 22.3152 40.3954 22.3152 40.3948 22.3152C40.3942 22.3152 40.3936 22.3152 40.393 22.3152C40.3924 22.3152 40.3918 22.3152 40.3911 22.3152C40.3905 22.3152 40.3899 22.3152 40.3893 22.3152C40.3887 22.3152 40.3881 22.3152 40.3875 22.3152C40.3869 22.3152 40.3863 22.3152 40.3857 22.3152C40.3851 22.3152 40.3844 22.3152 40.3838 22.3152C40.3832 22.3152 40.3826 22.3152 40.382 22.3152C40.3814 22.3152 40.3808 22.3152 40.3802 22.3152C40.3796 22.3152 40.379 22.3152 40.3784 22.3152C40.3778 22.3152 40.3772 22.3152 40.3767 22.3152C40.3761 22.3152 40.3755 22.3152 40.3749 22.3152C40.3743 22.3152 40.3737 22.3152 40.3731 22.3152C40.3725 22.3152 40.3719 22.3152 40.3713 22.3152C40.3707 22.3152 40.3701 22.3152 40.3696 22.3152C40.369 22.3152 40.3684 22.3152 40.3678 22.3152C40.3672 22.3152 40.3666 22.3152 40.3661 22.3152C40.3655 22.3152 40.3649 22.3152 40.3643 22.3152C40.3637 22.3152 40.3632 22.3152 40.3626 22.3152C40.362 22.3152 40.3614 22.3152 40.3609 22.3152C40.3603 22.3152 40.3597 22.3152 40.3591 22.3152C40.3586 22.3152 40.358 22.3152 40.3574 22.3152C40.3568 22.3152 40.3563 22.3152 40.3557 22.3152C40.3551 22.3152 40.3546 22.3152 40.354 22.3152C40.3534 22.3152 40.3529 22.3152 40.3523 22.3152C40.3517 22.3152 40.3512 22.3152 40.3506 22.3152C40.3501 22.3152 40.3495 22.3152 40.3489 22.3152C40.3484 22.3152 40.3478 22.3152 40.3473 22.3152C40.3467 22.3152 40.3462 22.3152 40.3456 22.3152C40.3451 22.3152 40.3445 22.3152 40.3439 22.3152C40.3434 22.3152 40.3428 22.3152 40.3423 22.3152C40.3417 22.3152 40.3412 22.3152 40.3407 22.3152C40.3401 22.3152 40.3396 22.3152 40.339 22.3152C40.3385 22.3152 40.3379 22.3152 40.3374 22.3152C40.3368 22.3152 40.3363 22.3152 40.3358 22.3152C40.3352 22.3152 40.3347 22.3152 40.3341 22.3152C40.3336 22.3152 40.3331 22.3152 40.3325 22.3152C40.332 22.3152 40.3315 22.3152 40.3309 22.3152C40.3304 22.3152 40.3299 22.3152 40.3293 22.3152V23.5829ZM41.4143 23.5829C41.5733 23.5829 41.7603 23.5309 41.8725 23.4985C42.0162 23.4569 42.183 23.4016 42.3497 23.3432C42.6842 23.226 43.046 23.0864 43.278 22.9934L42.8062 21.8168C42.586 21.9051 42.2424 22.0376 41.9304 22.1469C41.7737 22.2019 41.6319 22.2485 41.5207 22.2807C41.378 22.3219 41.3638 22.3152 41.4143 22.3152V23.5829ZM43.4907 21.9574C43.5206 21.9874 43.5471 22.0285 43.559 22.0825C43.5729 22.1449 43.5612 22.1971 43.5491 22.2231C43.5403 22.242 43.5476 22.2123 43.6308 22.1486C43.7139 22.0849 43.8571 21.9997 44.0918 21.9056L43.6201 20.729C43.0281 20.9664 42.5924 21.2731 42.3992 21.6897C42.1787 22.165 42.3479 22.6068 42.5935 22.8529L43.4907 21.9574ZM44.0918 21.9056C44.4329 21.7689 44.7046 21.6416 44.8909 21.5032C44.9867 21.4321 45.1068 21.3246 45.1877 21.167C45.2811 20.9849 45.294 20.7923 45.2509 20.6199C45.2151 20.4762 45.1449 20.3676 45.1134 20.32C45.0955 20.2928 45.0762 20.2655 45.065 20.2496C45.0516 20.2305 45.0433 20.2184 45.0362 20.2075C45.0126 20.171 45.0323 20.1914 45.0323 20.2295H43.7647C43.7647 20.5395 43.8862 20.7639 43.9728 20.8974C43.9933 20.929 44.013 20.9572 44.0268 20.977C44.0428 20.9997 44.0498 21.0096 44.0557 21.0186C44.072 21.0432 44.0399 21.0026 44.0211 20.9269C44.01 20.8826 44.0028 20.8251 44.0096 20.7595C44.0164 20.6932 44.0358 20.6351 44.06 20.5881C44.1038 20.5027 44.1539 20.4716 44.1352 20.4855C44.1207 20.4963 44.0786 20.5238 43.9882 20.5684C43.9003 20.6118 43.7809 20.6646 43.6201 20.729L44.0918 21.9056ZM45.0323 20.2295C45.0323 20.1553 45.0325 20.1208 45.0333 20.1007C45.0337 20.0913 45.0337 20.1012 45.0308 20.1209C45.0291 20.1325 45.0194 20.2012 44.978 20.284C44.9295 20.3807 44.8162 20.5338 44.6018 20.5967C44.4156 20.6512 44.267 20.6017 44.2215 20.5848C44.1921 20.5739 44.1703 20.5631 44.1587 20.557C44.1466 20.5506 44.1384 20.5456 44.1358 20.544C44.1328 20.5422 44.1327 20.5421 44.1486 20.5527C44.2081 20.5924 44.3349 20.6779 44.5217 20.7472C44.7085 20.8165 44.9359 20.8633 45.2127 20.8633V19.5957C44.9797 19.5957 44.8995 19.5298 44.8524 19.4984C44.8428 19.492 44.8205 19.4769 44.798 19.4632C44.7793 19.4517 44.7284 19.4208 44.6618 19.3961C44.6019 19.3739 44.4413 19.3228 44.2452 19.3802C44.0208 19.446 43.8995 19.6066 43.8447 19.7161C43.7968 19.8116 43.7824 19.8984 43.777 19.9341C43.7705 19.9779 43.7681 20.0182 43.7669 20.0459C43.7645 20.1002 43.7647 20.1677 43.7647 20.2295H45.0323ZM45.2127 20.8633C45.4666 20.8633 45.6989 20.8092 45.9006 20.6889C46.1007 20.5697 46.2205 20.4149 46.2936 20.3021C46.3272 20.2502 46.3568 20.1973 46.3705 20.1735C46.3896 20.1402 46.3901 20.1414 46.3834 20.1503C46.3751 20.1614 46.3394 20.2075 46.2709 20.2495C46.1935 20.2968 46.1066 20.3194 46.0262 20.3194V19.0518C45.8778 19.0518 45.7349 19.0913 45.6089 19.1684C45.4918 19.2401 45.415 19.3287 45.3685 19.3908C45.3237 19.4507 45.289 19.5114 45.2715 19.5418C45.2485 19.5818 45.2401 19.5969 45.2296 19.613C45.2146 19.6361 45.2227 19.6173 45.2516 19.6001C45.2823 19.5818 45.2841 19.5957 45.2127 19.5957V20.8633ZM46.0262 20.3194C45.8348 20.3194 45.7191 20.2214 45.6906 20.1947C45.6621 20.168 45.6588 20.1553 45.6812 20.1912C45.7007 20.2224 45.7242 20.2648 45.7591 20.3298C45.791 20.3892 45.8324 20.4673 45.877 20.545C46.0211 20.796 46.3879 21.4072 47.1116 21.4072V20.1396C47.1846 20.1396 47.1446 20.2069 46.9765 19.914C46.943 19.8557 46.9123 19.7978 46.8757 19.7297C46.8422 19.6673 46.8007 19.5907 46.7565 19.5199C46.7152 19.4538 46.6496 19.3561 46.5576 19.2699C46.4657 19.1838 46.2854 19.0518 46.0262 19.0518V20.3194ZM47.1116 21.4072C47.1558 21.4072 47.1585 21.4155 47.1633 21.4198C47.1853 21.4394 47.2257 21.4903 47.2779 21.6082C47.3339 21.7345 47.3676 21.8471 47.431 22.022C47.4741 22.1409 47.5647 22.3972 47.747 22.5803L48.6454 21.686C48.6923 21.7332 48.6813 21.7515 48.6228 21.59C48.5845 21.4844 48.5164 21.2741 48.4368 21.0944C48.3534 20.9063 48.2243 20.6683 48.0089 20.4754C47.7764 20.2672 47.4741 20.1396 47.1116 20.1396V21.4072ZM50.0824 22.9718C50.1856 23.0235 50.296 23.0919 50.4251 23.1739C50.539 23.2462 50.6908 23.3447 50.8284 23.4137C50.899 23.4491 50.9938 23.4913 51.1009 23.5175C51.2029 23.5424 51.3784 23.5683 51.5719 23.499C52.0519 23.3272 52.0853 22.8406 52.0853 22.6771H50.8177C50.8177 22.7034 50.8127 22.6564 50.8457 22.5805C50.8877 22.4836 50.9834 22.3633 51.1446 22.3056C51.2788 22.2575 51.3823 22.2813 51.4016 22.2861C51.4261 22.292 51.4275 22.296 51.3964 22.2804C51.3306 22.2475 51.245 22.1929 51.1046 22.1038C50.9794 22.0243 50.8185 21.9228 50.6504 21.8385L50.0824 22.9718ZM52.0853 22.6771C52.0853 22.3742 51.97 22.1324 51.8531 21.9601C51.7419 21.7962 51.6049 21.6614 51.5272 21.5836C51.4816 21.5378 51.4552 21.5111 51.4353 21.4887C51.414 21.4646 51.424 21.4716 51.4398 21.5015C51.457 21.5342 51.4987 21.6278 51.4846 21.7595C51.4695 21.8998 51.4011 21.9934 51.3577 22.0369L50.4602 21.1417C50.349 21.2532 50.2467 21.4147 50.2242 21.6241C50.2026 21.8248 50.2634 21.9885 50.3188 22.0935C50.4118 22.2695 50.5721 22.421 50.6298 22.4788C50.7217 22.5709 50.7712 22.6232 50.8041 22.6717C50.8313 22.7118 50.8177 22.708 50.8177 22.6771H52.0853ZM51.3577 22.0369C51.4268 21.9676 51.5008 21.8935 51.5764 21.825C51.6563 21.7525 51.7132 21.7092 51.7443 21.6905C51.76 21.681 51.7452 21.6926 51.7055 21.7036C51.6689 21.7137 51.5513 21.7396 51.4058 21.6835C51.2401 21.6196 51.1512 21.4943 51.1144 21.4067C51.0844 21.3351 51.089 21.2921 51.089 21.3173H52.3566C52.3566 21.1584 52.3265 20.6799 51.8618 20.5007C51.6612 20.4234 51.4779 20.4514 51.3682 20.4817C51.2553 20.5128 51.16 20.5627 51.0909 20.6042C50.8396 20.7554 50.576 21.0256 50.4602 21.1417L51.3577 22.0369ZM51.089 21.3173C51.089 21.4114 51.0769 21.5274 51.0589 21.6894C51.043 21.8334 51.0212 22.0233 51.0212 22.2012C51.0212 22.3636 51.0362 22.6282 51.1789 22.8666C51.3599 23.1689 51.6677 23.3109 51.9941 23.3109V22.0433C52.0055 22.0433 52.0562 22.0456 52.1213 22.0798C52.1902 22.116 52.2385 22.1686 52.2666 22.2156C52.3076 22.2841 52.2888 22.3107 52.2888 22.2012C52.2888 22.1071 52.3009 21.9911 52.3188 21.8291C52.3348 21.6851 52.3566 21.4951 52.3566 21.3173H51.089ZM51.9941 23.3109C51.9272 23.3109 51.9276 23.2827 52.0293 23.355C52.1292 23.4261 52.2129 23.5065 52.3609 23.6337C52.4247 23.6886 52.5036 23.754 52.5883 23.8117C52.6686 23.8665 52.79 23.9394 52.94 23.9787C53.1049 24.0218 53.321 24.027 53.5346 23.9131C53.7336 23.8071 53.8497 23.6402 53.9176 23.5039L52.7833 22.9381C52.7834 22.9378 52.8232 22.8559 52.9384 22.7945C53.0684 22.7252 53.1933 22.7346 53.2607 22.7523C53.3132 22.766 53.3308 22.7837 53.302 22.7641C53.2775 22.7475 53.2419 22.7194 53.1871 22.6723C53.0977 22.5955 52.9271 22.438 52.7642 22.3221C52.6031 22.2075 52.3323 22.0433 51.9941 22.0433V23.3109ZM53.9176 23.5039C53.9485 23.442 53.9724 23.4253 53.9697 23.4272C53.9681 23.4283 53.9605 23.4335 53.9462 23.4384C53.9317 23.4434 53.9135 23.4469 53.893 23.4469C53.8726 23.4469 53.8543 23.4434 53.8398 23.4384C53.8256 23.4335 53.8179 23.4283 53.8163 23.4272C53.8137 23.4253 53.8375 23.442 53.8684 23.5039L55.0027 22.9381C54.7956 22.5227 54.4075 22.1793 53.893 22.1793C53.3785 22.1793 52.9905 22.5227 52.7833 22.9381L53.9176 23.5039ZM53.8684 23.5039C53.9647 23.6971 54.0812 24.0937 54.1091 24.4293C54.1157 24.5081 54.1164 24.5736 54.113 24.6245C54.1096 24.6777 54.1026 24.6993 54.103 24.6982C54.1037 24.6963 54.1082 24.6835 54.1201 24.6641C54.1322 24.6444 54.1532 24.616 54.1865 24.5869C54.264 24.5196 54.3588 24.4909 54.4356 24.4909V25.7585C54.6479 25.7585 54.8529 25.6873 55.0184 25.5435C55.1722 25.4097 55.2556 25.245 55.3021 25.1093C55.3913 24.8494 55.3918 24.5583 55.3724 24.3243C55.3325 23.844 55.1776 23.2888 55.0027 22.9381L53.8684 23.5039ZM54.4356 24.4909C54.4155 24.4909 54.4763 24.4896 54.548 24.5461C54.5889 24.5782 54.62 24.6314 54.5564 24.5358C54.5189 24.4794 54.3629 24.2314 54.0346 24.1608C53.751 24.0999 53.4969 24.2063 53.3377 24.2861L53.9057 25.4194C53.9487 25.3978 53.9574 25.398 53.9409 25.402C53.9228 25.4064 53.8581 25.4195 53.7684 25.4002C53.5587 25.3551 53.4705 25.1921 53.5009 25.2377C53.5051 25.244 53.6041 25.4162 53.7636 25.5419C53.954 25.6919 54.1843 25.7585 54.4356 25.7585V24.4909ZM53.3377 24.2861C53.0414 24.4347 52.8717 24.5119 52.7291 24.5298C52.6738 24.5367 52.6376 24.5316 52.6075 24.5212C52.5766 24.5106 52.5212 24.4837 52.4428 24.4051L51.5453 25.3004C51.9544 25.7104 52.4202 25.846 52.8867 25.7876C53.2867 25.7375 53.6595 25.5428 53.9057 25.4194L53.3377 24.2861ZM52.4428 24.4051C52.148 24.1096 51.7445 23.7757 51.3365 23.5939C51.1359 23.5046 50.8638 23.4197 50.5721 23.46C50.2327 23.5069 49.9562 23.7112 49.7992 24.0259L50.9336 24.5917C50.9291 24.6007 50.9101 24.6331 50.8667 24.6649C50.8225 24.6973 50.7772 24.7114 50.7457 24.7157C50.6998 24.722 50.7159 24.7052 50.8206 24.7518C51.0229 24.842 51.2976 25.052 51.5453 25.3004L52.4428 24.4051ZM49.7992 24.0259C49.6224 24.3805 49.6926 24.7296 49.7574 24.9361C49.7919 25.0461 49.8345 25.146 49.8693 25.2235C49.9124 25.3194 49.929 25.3513 49.9532 25.4078C49.9766 25.4625 49.9644 25.447 49.9579 25.3985C49.9505 25.3422 49.939 25.1112 50.1471 24.9346C50.2324 24.8622 50.3166 24.8354 50.3619 24.8252C50.3853 24.82 50.4033 24.8181 50.4137 24.8174C50.4191 24.817 50.4231 24.8169 50.4257 24.8169C50.4283 24.8168 50.4297 24.8169 50.4297 24.8169C50.4298 24.8169 50.4288 24.8169 50.4266 24.8167C50.4244 24.8165 50.4212 24.8162 50.417 24.8158C50.4084 24.8148 50.3965 24.8131 50.3807 24.8105C50.3487 24.805 50.3056 24.796 50.2492 24.7819L49.941 26.0115C50.0931 26.0496 50.2446 26.0787 50.3847 26.0837C50.4985 26.0878 50.7519 26.0838 50.9672 25.9012C51.2304 25.6779 51.2337 25.3768 51.2146 25.2323C51.1966 25.0956 51.1462 24.9738 51.1188 24.9095C51.038 24.7207 51.0018 24.6679 50.967 24.5569C50.9385 24.466 50.9748 24.5091 50.9336 24.5917L49.7992 24.0259ZM50.2492 24.7819C49.8826 24.69 49.714 24.525 49.4927 24.3031C49.2571 24.067 48.8878 23.675 48.1962 23.675V24.9426C48.3184 24.9426 48.356 24.9586 48.5952 25.1984C48.8486 25.4524 49.2225 25.8314 49.941 26.0115L50.2492 24.7819ZM48.1962 23.675C47.9194 23.675 47.6923 23.7218 47.5165 23.7685C47.4351 23.7901 47.3527 23.8151 47.3043 23.8292C47.2456 23.8462 47.2213 23.8518 47.2101 23.8537C47.2008 23.8552 47.2336 23.8481 47.2879 23.858C47.3516 23.8697 47.412 23.8986 47.4581 23.9371C47.5244 23.9925 47.5017 24.0188 47.4413 23.8369L46.2384 24.2369C46.3135 24.4629 46.4265 24.7271 46.6454 24.91C46.9179 25.1376 47.2187 25.1374 47.419 25.1039C47.5095 25.0888 47.5955 25.0646 47.6576 25.0466C47.7299 25.0256 47.7789 25.0103 47.8416 24.9937C47.9541 24.9638 48.066 24.9426 48.1962 24.9426V23.675ZM47.4413 23.8369C47.3875 23.6751 47.3969 23.6319 47.395 23.654C47.3906 23.7039 47.3638 23.7477 47.3676 23.7419C47.3698 23.7386 47.3723 23.7349 47.3768 23.7284C47.3806 23.7227 47.3865 23.714 47.3926 23.7048C47.4048 23.6866 47.4233 23.658 47.4424 23.6234C47.4835 23.5489 47.5272 23.4467 47.5444 23.3173C47.5778 23.066 47.4948 22.8421 47.407 22.6662L46.2726 23.2319C46.3205 23.3279 46.2714 23.274 46.2878 23.1502C46.3034 23.0332 46.3835 22.9326 46.312 23.04C46.248 23.1363 46.1534 23.299 46.1321 23.5444C46.1132 23.762 46.1565 23.9907 46.2384 24.2369L47.4413 23.8369ZM47.407 22.6662C47.377 22.606 47.3464 22.5408 47.3111 22.4659C47.2771 22.3936 47.2391 22.3126 47.1992 22.2326C47.123 22.0801 47.0201 21.8891 46.8861 21.7279C46.7578 21.5735 46.522 21.3515 46.1655 21.3229C45.7961 21.2933 45.5051 21.4857 45.3058 21.6858L46.2037 22.5806C46.2753 22.5087 46.2216 22.5991 46.0641 22.5865C45.9195 22.5749 45.8702 22.4888 45.9115 22.5384C45.9471 22.5813 45.9968 22.6622 46.0649 22.7986C46.0971 22.8631 46.129 22.9309 46.1639 23.0051C46.1976 23.0768 46.2348 23.1561 46.2726 23.2319L47.407 22.6662ZM45.3058 21.6858C45.1144 21.8778 44.939 21.9601 44.8006 21.9998C44.655 22.0415 44.5284 22.0433 44.3985 22.0433V23.3109C44.7193 23.3109 45.479 23.3077 46.2037 22.5806L45.3058 21.6858ZM44.3985 22.0433C44.2637 22.0433 43.9564 22.0427 43.6415 22.0822C43.484 22.1019 43.3059 22.1338 43.136 22.1886C42.9758 22.2402 42.7642 22.3303 42.5935 22.5013L43.4907 23.3968C43.4558 23.4318 43.4476 23.42 43.5248 23.3951C43.5922 23.3734 43.6854 23.3542 43.7991 23.34C44.0267 23.3115 44.2619 23.3109 44.3985 23.3109V22.0433ZM42.5935 22.5013C42.6648 22.4299 42.7269 22.4163 42.7066 22.4226C42.694 22.4265 42.6593 22.4347 42.5902 22.4434C42.4347 22.4629 42.2851 22.4669 42.0397 22.4874C41.8299 22.5049 41.5638 22.5346 41.3196 22.6141C41.0796 22.6923 40.7534 22.8538 40.5758 23.2102L41.7103 23.7757C41.6682 23.8602 41.6132 23.8517 41.7123 23.8194C41.8072 23.7885 41.948 23.7671 42.1452 23.7506C42.3067 23.7371 42.5641 23.7242 42.7478 23.7012C42.8483 23.6886 42.9662 23.6692 43.0808 23.6338C43.1877 23.6007 43.3516 23.5362 43.4907 23.3968L42.5935 22.5013ZM40.5758 23.2102C40.5531 23.2557 40.4887 23.3174 40.2486 23.4205C40.1692 23.4546 39.9955 23.5228 39.8712 23.5949C39.7665 23.6557 39.4241 23.8697 39.4241 24.3088H40.6917C40.6917 24.6119 40.4511 24.724 40.5074 24.6913C40.5442 24.67 40.591 24.6531 40.749 24.5852C40.9837 24.4844 41.4618 24.2741 41.7103 23.7757L40.5758 23.2102ZM39.4241 24.3088C39.4241 24.1783 39.4851 24.1109 39.4448 24.1733C39.4295 24.1971 39.4132 24.2198 39.3805 24.2667C39.352 24.3077 39.314 24.3629 39.2767 24.4253C39.2019 24.5502 39.1127 24.7312 39.0852 24.9601C39.0566 25.1992 39.101 25.4421 39.2194 25.6795L40.3538 25.1138C40.3366 25.0793 40.3471 25.0842 40.3439 25.1108C40.3419 25.1273 40.3374 25.1213 40.3644 25.0763C40.378 25.0536 40.395 25.0281 40.4205 24.9915C40.4419 24.9608 40.4786 24.9093 40.5099 24.8608C40.5628 24.7787 40.6917 24.5753 40.6917 24.3088H39.4241ZM39.2194 25.6795C39.1924 25.6253 39.1719 25.5417 39.1881 25.4465C39.203 25.3592 39.2411 25.3068 39.255 25.29C39.2711 25.2706 39.2486 25.3023 39.1269 25.3587C38.9011 25.4633 38.5701 25.5466 38.3261 25.5874L38.5351 26.8377C38.8335 26.7878 39.289 26.6807 39.6599 26.5088C39.8366 26.427 40.0649 26.2989 40.2302 26.0999C40.3187 25.9933 40.4059 25.8461 40.4377 25.6593C40.4709 25.4647 40.4351 25.2768 40.3538 25.1138L39.2194 25.6795ZM37.9818 25.7649C37.8558 25.8912 37.6858 26.0974 37.5432 26.3433C37.4058 26.5801 37.2542 26.9215 37.2542 27.3003H38.5218C38.5218 27.2441 38.5511 27.1322 38.6398 26.9792C38.7233 26.8353 38.8245 26.7151 38.8793 26.6601L37.9818 25.7649ZM37.2542 27.3003C37.2542 27.1842 37.3165 27.1657 37.2102 27.2832C37.1173 27.386 36.9962 27.4879 36.8221 27.643C36.6757 27.7735 36.4692 27.9609 36.3277 28.177C36.1756 28.4095 36.0264 28.7952 36.2357 29.215L37.3701 28.6492C37.4438 28.797 37.3625 28.9108 37.3883 28.8713C37.4249 28.8154 37.5067 28.7309 37.6654 28.5894C37.7965 28.4726 37.9976 28.3025 38.1505 28.1333C38.2901 27.9789 38.5218 27.6884 38.5218 27.3003H37.2542ZM36.2357 29.215C36.3194 29.3827 36.421 29.5447 36.5025 29.6754C36.5906 29.8167 36.6586 29.9267 36.7106 30.0309C36.8161 30.2423 36.7796 30.2787 36.7784 30.2809L37.9128 30.8467C38.183 30.305 38.0108 29.7975 37.8449 29.465C37.7612 29.2973 37.6596 29.1353 37.5781 29.0047C37.4901 28.8634 37.4221 28.7534 37.3701 28.6492L36.2357 29.215ZM36.7784 30.2809C36.7265 30.3851 36.6585 30.4951 36.5704 30.6364C36.4889 30.767 36.3873 30.929 36.3036 31.0967C36.1377 31.4292 35.9655 31.9368 36.2358 32.4786L37.37 31.9125C37.369 31.9104 37.3324 31.8741 37.4379 31.6627C37.4899 31.5584 37.5579 31.4484 37.646 31.3071C37.7275 31.1764 37.8291 31.0145 37.9128 30.8467L36.7784 30.2809ZM36.2358 32.4786C36.3574 32.7222 36.5856 32.9599 36.7663 33.137C36.9624 33.3291 37.2002 33.5404 37.3913 33.716C37.599 33.907 37.7498 34.0541 37.8334 34.1589C37.8793 34.2164 37.8656 34.2135 37.8488 34.1634C37.8271 34.0991 37.779 33.8551 37.9817 33.6518L38.8795 34.5467C39.1499 34.2754 39.1102 33.938 39.0505 33.7599C38.9955 33.5962 38.897 33.4594 38.8242 33.3682C38.6704 33.1755 38.4482 32.9657 38.2491 32.7827C38.0333 32.5844 37.8304 32.4048 37.6534 32.2315C37.5672 32.147 37.4974 32.0738 37.4449 32.012C37.419 31.9815 37.4 31.9569 37.3867 31.9381C37.3729 31.9185 37.369 31.9104 37.37 31.9125L36.2358 32.4786ZM37.9817 33.6518C37.6602 33.9743 37.5647 34.4945 37.6858 34.9191C37.7531 35.1546 37.8941 35.3918 38.1327 35.5666C38.3714 35.7415 38.6622 35.8209 38.9733 35.8209V34.5533C38.9245 34.5533 38.8968 34.5471 38.8849 34.5436C38.8738 34.5403 38.8748 34.5389 38.8819 34.5441C38.889 34.5493 38.8957 34.5564 38.9005 34.5636C38.9048 34.5701 38.9054 34.5735 38.9048 34.5712C38.9041 34.5687 38.9026 34.562 38.9025 34.5516C38.9023 34.5412 38.9034 34.5303 38.9055 34.5208C38.9077 34.5109 38.9099 34.507 38.9088 34.5091C38.9081 34.5106 38.9005 34.5256 38.8795 34.5467L37.9817 33.6518ZM38.9733 35.8209C39.0456 35.8209 39.0606 35.8276 39.0435 35.823C39.0219 35.8171 38.9407 35.7905 38.8622 35.7051C38.781 35.6167 38.756 35.5235 38.7487 35.481C38.744 35.4538 38.7458 35.4366 38.7458 35.4925C38.7457 35.5605 38.7343 35.8197 38.8798 36.0747C39.0354 36.3476 39.297 36.5076 39.5859 36.6041L39.9874 35.4018C39.8691 35.3623 39.9271 35.3524 39.981 35.4468C40.0246 35.5233 40.0133 35.5955 40.0134 35.4935C40.0134 35.477 40.0448 35.1186 39.7958 34.8475C39.5474 34.5771 39.1918 34.5533 38.9733 34.5533V35.8209ZM39.5859 36.6041C39.8263 36.6844 40.0691 36.7346 40.3056 36.7036C40.5828 36.6674 40.7639 36.533 40.88 36.4166C40.9045 36.392 40.9253 36.3691 40.9396 36.3532C40.9577 36.3331 40.962 36.328 40.9716 36.3176C40.9858 36.3021 40.9802 36.31 40.9636 36.3223C40.9075 36.3635 40.8575 36.3648 40.8719 36.3648V35.0972C40.6151 35.0972 40.3956 35.1664 40.2125 35.3012C40.1323 35.3601 40.0737 35.4212 40.0382 35.4599C39.9875 35.5151 39.9974 35.5064 39.9825 35.5213C39.9818 35.522 40.001 35.5024 40.0366 35.4826C40.0751 35.4612 40.1129 35.4504 40.1414 35.4467C40.1828 35.4413 40.1541 35.4574 39.9874 35.4018L39.5859 36.6041ZM40.8719 36.3648C41.1548 36.3648 41.3778 36.366 41.5618 36.3924C41.7537 36.4199 41.7901 36.4611 41.7799 36.4509L42.6767 35.555C42.3948 35.2728 42.0242 35.1781 41.7415 35.1376C41.4507 35.0959 41.1314 35.0972 40.8719 35.0972V36.3648ZM41.7799 36.4509C42.057 36.7284 42.4026 36.6738 42.5444 36.635C42.698 36.5931 42.8377 36.5147 42.9362 36.4545C43.1292 36.3365 43.3909 36.1402 43.5731 36.0137C43.7926 35.8613 43.9589 35.763 44.0768 35.722C44.1976 35.68 44.0718 35.7569 43.9499 35.6348L44.8471 34.7393C44.4537 34.3452 43.9549 34.4222 43.6603 34.5247C43.3628 34.6282 43.0715 34.8188 42.8502 34.9724C42.5917 35.1518 42.4296 35.2785 42.275 35.3729C42.1998 35.419 42.1848 35.4192 42.2101 35.4123C42.2237 35.4086 42.4674 35.3455 42.6767 35.555L41.7799 36.4509ZM43.9499 35.6348C44.1325 35.8177 44.1537 35.9116 44.2389 36.0822C44.2889 36.1823 44.3926 36.3727 44.618 36.5019C44.8224 36.619 45.0421 36.6368 45.2127 36.6368V35.3691C45.1122 35.3691 45.1625 35.3529 45.2483 35.402C45.355 35.4632 45.3909 35.5517 45.3729 35.5157C45.3686 35.5071 45.2966 35.3458 45.2261 35.2249C45.1402 35.0774 45.0224 34.9149 44.8471 34.7393L43.9499 35.6348ZM45.2127 36.6368C45.4843 36.6368 45.7379 36.5397 45.8976 36.473C45.9845 36.4367 46.0723 36.3964 46.1407 36.3656C46.215 36.332 46.2704 36.3078 46.3171 36.2903C46.3663 36.2718 46.3799 36.2708 46.3702 36.2722C46.3624 36.2732 46.2798 36.2848 46.1728 36.2365C45.8908 36.1094 45.9353 35.8461 45.9353 36.0029H47.2029C47.2029 35.7518 47.1455 35.2846 46.6939 35.0809C46.5021 34.9945 46.3177 34.9996 46.1954 35.0166C46.0712 35.0339 45.9577 35.0712 45.8712 35.1037C45.7822 35.1371 45.6935 35.1767 45.6194 35.2101C45.5395 35.2461 45.4746 35.2759 45.409 35.3034C45.2635 35.3641 45.212 35.3691 45.2127 35.3691V36.6368ZM45.9353 36.0029C45.9353 36.2466 45.8795 36.2982 45.7489 36.6037C45.681 36.7625 45.6135 36.9598 45.5938 37.2165C45.5746 37.4667 45.6032 37.7406 45.6828 38.06L46.9128 37.7533C46.8568 37.5287 46.8515 37.3947 46.8577 37.3135C46.8634 37.2388 46.8807 37.1811 46.9145 37.1019C46.9874 36.9314 47.2029 36.5752 47.2029 36.0029H45.9353ZM45.6828 38.06C45.7714 38.4152 45.958 38.7981 46.1474 39.1477C46.3372 39.4979 46.573 39.8903 46.7644 40.2262C46.9667 40.5811 47.1318 40.8932 47.2318 41.1544C47.3434 41.4461 47.3172 41.5344 47.324 41.514L48.5269 41.914C48.6693 41.4857 48.5414 41.0301 48.4157 40.7014C48.2783 40.3422 48.0704 39.9574 47.8657 39.5984C47.6503 39.2204 47.4452 38.882 47.262 38.5438C47.0784 38.205 46.9598 37.9419 46.9128 37.7533L45.6828 38.06ZM47.324 41.514C47.2634 41.6964 47.1697 41.9318 47.057 42.2143C46.9477 42.4883 46.824 42.7979 46.7172 43.1013C46.6116 43.4014 46.5133 43.7205 46.4619 44.0141C46.4163 44.2747 46.3792 44.6572 46.5444 44.9884L47.6788 44.4226C47.7084 44.4819 47.6714 44.4564 47.7105 44.2326C47.7439 44.0419 47.8151 43.8 47.9129 43.5222C48.0096 43.2477 48.1233 42.9624 48.2344 42.684C48.3421 42.4141 48.4519 42.1396 48.5269 41.914L47.324 41.514ZM46.5444 44.9884C46.696 45.2923 46.9562 45.6542 47.0824 45.8567C47.2477 46.1219 47.2916 46.2598 47.2916 46.3373H48.5593C48.5593 45.8709 48.3319 45.4648 48.1581 45.1861C47.9453 44.8447 47.7985 44.6626 47.6788 44.4226L46.5444 44.9884ZM47.2916 46.3373C47.2916 46.4394 47.2782 46.591 47.2598 46.8114C47.2428 47.0139 47.2235 47.2592 47.2234 47.4928C47.2232 47.7116 47.2385 47.9942 47.3311 48.242C47.3797 48.3718 47.4639 48.5319 47.6157 48.6623C47.7799 48.8033 47.9832 48.8748 48.1962 48.8748V47.6071C48.2734 47.6071 48.3664 47.6361 48.4416 47.7007C48.5044 47.7546 48.5207 47.8041 48.5185 47.798C48.5094 47.7738 48.4909 47.6825 48.491 47.4934C48.4911 47.319 48.5058 47.1224 48.523 46.917C48.5387 46.7295 48.5593 46.5071 48.5593 46.3373H47.2916ZM48.1962 48.8748C48.2381 48.8748 48.2711 48.8774 48.296 48.881C48.3211 48.8846 48.335 48.8888 48.3398 48.8905C48.3504 48.8942 48.3086 48.882 48.2657 48.8248C48.2446 48.7966 48.2295 48.7652 48.2206 48.7345C48.2121 48.7046 48.2116 48.6828 48.212 48.6736C48.2123 48.6651 48.2133 48.6689 48.208 48.6869C48.2027 48.7049 48.1922 48.7337 48.1721 48.7739L49.3065 49.3397C49.4848 48.9822 49.5956 48.486 49.2805 48.0651C48.9957 47.6846 48.5304 47.6071 48.1962 47.6071V48.8748ZM48.1721 48.7739C48.0588 49.0011 47.9966 49.2688 48.0564 49.5441C48.1183 49.829 48.2952 50.046 48.5146 50.1779C48.9265 50.4256 49.439 50.3671 49.8374 50.1672L49.2689 49.0342C49.2078 49.0649 49.1612 49.0727 49.1372 49.0735C49.11 49.0745 49.1268 49.0669 49.1678 49.0915C49.2177 49.1215 49.2757 49.1855 49.2951 49.2749C49.3125 49.3548 49.2841 49.3845 49.3065 49.3397L48.1721 48.7739ZM49.8374 50.1672C50.1129 50.029 50.3663 49.9023 50.583 49.8092C50.6906 49.763 50.7774 49.7302 50.8442 49.7098C50.9189 49.687 50.9339 49.6906 50.9095 49.6906V48.423C50.7494 48.423 50.5948 48.4606 50.4745 48.4973C50.3462 48.5364 50.2126 48.5887 50.0827 48.6444C49.8245 48.7553 49.5353 48.9005 49.2689 49.0342L49.8374 50.1672ZM50.9095 49.6906C51.0666 49.6906 51.1958 49.6344 51.2347 49.6177C51.2985 49.5903 51.3618 49.5567 51.419 49.5239C51.535 49.4575 51.67 49.369 51.8113 49.27C52.0961 49.0706 52.4418 48.8037 52.7763 48.5213C53.109 48.2403 53.4452 47.9318 53.7039 47.6488C53.8322 47.5084 53.9545 47.3602 54.0487 47.2146C54.1252 47.0961 54.2555 46.8733 54.2555 46.6092H52.9879C52.9879 46.4811 53.042 46.4368 52.984 46.5266C52.9436 46.5891 52.8731 46.6789 52.7683 46.7935C52.5608 47.0204 52.2699 47.2897 51.9584 47.5527C51.6488 47.8142 51.3334 48.0572 51.0842 48.2317C50.9584 48.3197 50.8583 48.3843 50.7888 48.424C50.7722 48.4335 50.759 48.4407 50.7491 48.4458C50.7388 48.4511 50.7342 48.4531 50.7346 48.4529C50.7349 48.4528 50.7375 48.4517 50.7422 48.4499C50.7467 48.4483 50.7548 48.4454 50.7659 48.4423C50.7812 48.4378 50.8346 48.423 50.9095 48.423V49.6906ZM54.2555 46.6092C54.2555 46.5563 54.268 46.772 54.0436 46.9106C53.9608 46.9617 53.8909 46.9699 53.8808 46.9711C53.8738 46.9719 53.8752 46.9711 53.9267 46.9711C53.9948 46.9711 54.2047 46.9775 54.4198 46.8954C54.6709 46.7995 54.8705 46.6128 55.0025 46.3486L53.8686 45.782C53.8647 45.7897 53.8946 45.739 53.9677 45.7111C54.0046 45.697 54.0281 45.7035 53.9267 45.7035C53.8934 45.7035 53.8144 45.7026 53.7343 45.7119C53.6511 45.7216 53.5155 45.7468 53.3777 45.832C53.0432 46.0385 52.9879 46.3902 52.9879 46.6092H54.2555ZM55.0025 46.3486C55.1835 45.9865 55.2025 45.5843 55.1836 45.2844C55.1641 44.974 55.0981 44.6889 55.0369 44.5052L53.8342 44.9059C53.8636 44.9941 53.9064 45.1713 53.9185 45.3641C53.9313 45.5673 53.9051 45.709 53.8686 45.782L55.0025 46.3486ZM55.0242 44.9406C55.0962 44.7603 55.2418 44.4816 55.4254 44.2606C55.6292 44.0151 55.7605 43.9796 55.7925 43.9796V42.7119C55.1734 42.7119 54.7168 43.1296 54.4501 43.4508C54.1633 43.7963 53.956 44.1975 53.847 44.4704L55.0242 44.9406ZM55.7925 43.9796C56.1621 43.9796 56.46 43.8125 56.6594 43.5634C56.8385 43.3397 56.9219 43.0733 56.9642 42.8539C57.0493 42.4123 57.0121 41.9221 56.9603 41.6101L55.7098 41.818C55.7484 42.0499 55.7654 42.3755 55.7195 42.6138C55.6962 42.7344 55.6677 42.7739 55.6698 42.7712C55.6924 42.743 55.7484 42.7119 55.7925 42.7119V43.9796ZM56.9625 41.6246C56.9193 41.3215 56.8679 40.8553 56.8531 40.4469C56.8457 40.2406 56.8484 40.0686 56.8611 39.9469C56.8676 39.8854 56.8748 39.8549 56.8771 39.8471C56.8836 39.8251 56.868 39.9016 56.7838 39.986L55.8863 39.0908C55.7479 39.2295 55.6887 39.395 55.661 39.4895C55.629 39.5982 55.6112 39.7117 55.6004 39.8148C55.5787 40.0223 55.578 40.2616 55.5863 40.4927C55.6032 40.9591 55.6603 41.4719 55.7076 41.8034L56.9625 41.6246ZM56.7838 39.986C56.8685 39.9011 56.9467 39.7865 57.0016 39.7035C57.0657 39.6064 57.1388 39.4884 57.2155 39.3622C57.3731 39.1033 57.5529 38.8 57.7529 38.4824C57.9521 38.1663 58.16 37.8546 58.3621 37.5935C58.5729 37.3212 58.7423 37.1507 58.8574 37.0738L58.1531 36.0199C57.8612 36.2149 57.5898 36.5204 57.3598 36.8175C57.1211 37.1258 56.8881 37.477 56.6804 37.8067C56.4736 38.1351 56.2803 38.4607 56.1327 38.7032C56.0569 38.8277 55.9943 38.9285 55.944 39.0046C55.8844 39.0947 55.8694 39.1077 55.8863 39.0908L56.7838 39.986ZM58.8574 37.0738C59.2035 36.8425 59.4684 36.4259 59.6634 36.0567C59.8734 35.6591 60.0629 35.1951 60.2208 34.7554C60.3796 34.3132 60.5117 33.8807 60.6046 33.539C60.651 33.3683 60.6888 33.2164 60.7155 33.0944C60.7359 33.0011 60.7667 32.8548 60.7667 32.7395H59.4991C59.4991 32.6921 59.5044 32.6988 59.4772 32.8233C59.4562 32.9191 59.424 33.0497 59.3814 33.2062C59.2964 33.5189 59.1741 33.9193 59.0277 34.327C58.8805 34.7371 58.7139 35.14 58.5424 35.4648C58.3559 35.818 58.2139 35.9792 58.1531 36.0199L58.8574 37.0738ZM60.7667 32.7395C60.7667 32.5803 60.7106 32.3811 60.5406 32.2288C60.3912 32.0949 60.2254 32.0628 60.1364 32.054C59.9695 32.0375 59.8152 32.0791 59.7396 32.1012C59.558 32.154 59.3404 32.2496 59.158 32.3327C58.9526 32.4263 58.7818 32.5087 58.6202 32.5794C58.543 32.6131 58.4856 32.6361 58.4461 32.6498C58.3843 32.6711 58.4227 32.6496 58.5052 32.6496V33.9172C58.6556 33.9172 58.7958 33.8701 58.86 33.8479C58.9466 33.818 59.0397 33.7794 59.1278 33.7409C59.2968 33.6671 59.516 33.5626 59.6836 33.4862C59.8742 33.3993 60.0127 33.3419 60.0939 33.3183C60.1496 33.302 60.1034 33.3246 60.0118 33.3155C59.9604 33.3104 59.824 33.2887 59.6946 33.1727C59.5446 33.0383 59.4991 32.8647 59.4991 32.7395H60.7667ZM58.5052 32.6496C58.6013 32.6496 58.65 32.6777 58.6171 32.6638C58.6008 32.6569 58.5675 32.6403 58.5196 32.6103C58.4241 32.5504 58.3092 32.4613 58.208 32.3598C58.1025 32.2541 58.0412 32.1644 58.0165 32.1086C57.9926 32.0548 58.0342 32.1125 57.9873 32.2065L56.853 31.6407C56.6704 32.0066 56.7459 32.3703 56.8577 32.6224C56.9686 32.8726 57.1447 33.0888 57.3105 33.2551C57.4805 33.4255 57.6709 33.5744 57.8466 33.6845C57.9344 33.7395 58.0282 33.7909 58.1221 33.8308C58.1995 33.8636 58.3414 33.9172 58.5052 33.9172V32.6496ZM59.4965 32.3712C59.4653 32.4026 59.4611 32.3966 59.5508 32.3442C59.6226 32.3022 59.7182 32.2507 59.8395 32.1867C60.0737 32.0632 60.3876 31.9013 60.6922 31.7217C60.9933 31.5441 61.3211 31.3289 61.5803 31.0849C61.8174 30.8618 62.1231 30.4985 62.1231 30.0199H60.8555C60.8555 29.9493 60.8899 29.9939 60.7116 30.1618C60.5555 30.3087 60.3237 30.4674 60.0483 30.6298C59.7765 30.7901 59.497 30.9342 59.248 31.0656C59.1277 31.129 59.0092 31.1923 58.9104 31.2502C58.8294 31.2976 58.6981 31.3767 58.5991 31.476L59.4965 32.3712ZM62.1231 30.0199C62.1231 29.6681 62.1834 29.3387 62.2525 29.1541C62.2949 29.0406 62.3054 29.0764 62.2292 29.1376C62.1762 29.18 62.0579 29.2502 61.8904 29.2395C61.7248 29.229 61.6217 29.1464 61.5831 29.1077L62.4806 28.2125C62.3742 28.1058 62.2033 27.9893 61.9709 27.9745C61.7366 27.9596 61.5526 28.0552 61.4361 28.1487C61.2327 28.3118 61.1245 28.5516 61.0652 28.71C60.9308 29.0693 60.8555 29.5558 60.8555 30.0199H62.1231ZM61.5831 29.1077C61.6074 29.1321 61.6373 29.1607 61.6703 29.1879C61.6783 29.1945 61.7707 29.2758 61.9057 29.3186C61.9574 29.3349 62.2288 29.4154 62.4874 29.2177C62.7519 29.0155 62.7403 28.7256 62.7363 28.6665C62.7265 28.5209 62.6662 28.4099 62.6626 28.4027C62.6065 28.2902 62.5063 28.1578 62.4175 28.051C62.2307 27.8263 61.8918 27.473 61.502 27.2776L60.934 28.4109C61.0868 28.4874 61.2904 28.6781 61.4427 28.8613C61.5234 28.9584 61.542 28.996 61.5282 28.9685C61.5243 28.9605 61.5154 28.9422 61.506 28.9163C61.4995 28.8985 61.4773 28.8366 61.4716 28.7517C61.4679 28.6976 61.4554 28.411 61.7176 28.2106C61.9739 28.0147 62.2417 28.0953 62.2883 28.11C62.3664 28.1348 62.4193 28.169 62.4344 28.1789C62.4561 28.1931 62.4709 28.205 62.4765 28.2097C62.4878 28.219 62.4902 28.2221 62.4806 28.2125L61.5831 29.1077ZM61.502 27.2776C60.8261 26.9388 60.1342 27.1346 59.8489 27.2776L60.4169 28.4109C60.4169 28.4109 60.4174 28.4106 60.4184 28.4102C60.4194 28.4097 60.4208 28.4091 60.4226 28.4083C60.4263 28.4067 60.4313 28.4046 60.4377 28.4022C60.4506 28.3973 60.4675 28.3916 60.4877 28.386C60.5288 28.3746 60.5784 28.3648 60.6321 28.3604C60.7412 28.3515 60.845 28.3663 60.934 28.4109L61.502 27.2776ZM60.5393 27.3578C60.2869 27.147 59.9254 26.8083 59.6605 26.4844C59.5259 26.3197 59.4391 26.1864 59.3972 26.0947C59.3412 25.972 59.4238 26.0628 59.3437 26.2234L58.2093 25.6577C58.0207 26.0359 58.1508 26.4168 58.244 26.621C58.3513 26.8562 58.5155 27.0866 58.6792 27.2869C59.0111 27.6927 59.4363 28.0882 59.7265 28.3307L60.5393 27.3578ZM59.3437 26.2234C59.3746 26.1616 59.3984 26.1448 59.3958 26.1468C59.3942 26.1479 59.3865 26.1531 59.3723 26.158C59.3578 26.1629 59.3395 26.1664 59.3191 26.1664C59.2986 26.1664 59.2804 26.1629 59.2659 26.158C59.2516 26.1531 59.2439 26.1479 59.2424 26.1468C59.2397 26.1448 59.2636 26.1616 59.2944 26.2234L60.4288 25.6577C60.2216 25.2423 59.8336 24.8988 59.3191 24.8988C58.8046 24.8988 58.4165 25.2423 58.2093 25.6577L59.3437 26.2234ZM59.2944 26.2234C59.3915 26.418 59.3423 26.4095 59.4162 26.7058C59.4515 26.8473 59.5385 27.0861 59.7959 27.2449C60.0075 27.3754 60.2423 27.3902 60.4042 27.3902V26.1226C60.3599 26.1226 60.347 26.1196 60.3538 26.1209C60.3614 26.1223 60.4052 26.1313 60.4614 26.166C60.5239 26.2045 60.5742 26.2577 60.6085 26.3145C60.6238 26.34 60.6332 26.3616 60.6386 26.3759C60.6439 26.3899 60.646 26.3987 60.6462 26.3991C60.6462 26.3995 60.6452 26.3954 60.6431 26.3839C60.6409 26.372 60.6386 26.3578 60.6351 26.3363C60.6287 26.2969 60.6191 26.2358 60.6051 26.1685C60.5757 26.0268 60.5265 25.8535 60.4288 25.6577L59.2944 26.2234ZM60.4042 27.3902C60.5466 27.3902 60.6288 27.3905 60.6887 27.3936C60.7468 27.3967 60.7404 27.4011 60.7119 27.3916C60.672 27.3782 60.6476 27.3586 60.6507 27.3612C60.6674 27.3749 60.6932 27.3997 60.7693 27.476L61.6667 26.5808C61.5652 26.479 61.3871 26.2806 61.1137 26.1893C60.9835 26.1458 60.8585 26.1332 60.7555 26.1277C60.6543 26.1224 60.533 26.1226 60.4042 26.1226V27.3902ZM60.7693 27.476C60.8004 27.5072 60.8272 27.5414 60.8718 27.6023C60.9079 27.6517 60.9817 27.7569 61.0745 27.8499C61.3194 28.0955 61.6301 28.2061 62.0318 28.2061V26.9385C61.947 26.9385 61.9242 26.9276 61.9335 26.931C61.9389 26.933 61.9477 26.9371 61.9576 26.9436C61.967 26.9499 61.9721 26.9549 61.9719 26.9547C61.963 26.9457 61.952 26.932 61.8949 26.8539C61.8462 26.7873 61.7712 26.6855 61.6667 26.5808L60.7693 27.476ZM62.0318 28.2061C62.2196 28.2061 62.3793 28.1823 62.493 28.1647C62.6208 28.145 62.6678 28.1381 62.71 28.1381C62.7331 28.1381 62.742 28.1404 62.7575 28.1475C62.7809 28.1583 62.8396 28.1918 62.9395 28.2919L63.837 27.3966C63.4739 27.0327 63.1167 26.8705 62.71 26.8705C62.5488 26.8705 62.3923 26.8976 62.2998 26.9119C62.1931 26.9284 62.1154 26.9385 62.0318 26.9385V28.2061ZM62.9395 28.2919C63.0828 28.4355 63.1833 28.6903 63.2897 29.0458C63.3322 29.1881 63.3887 29.392 63.4528 29.544C63.4854 29.6211 63.5412 29.7393 63.635 29.8461C63.7371 29.9625 63.9267 30.1098 64.2021 30.1098V28.8422C64.4096 28.8422 64.5399 28.9555 64.5879 29.0102C64.6276 29.0555 64.6347 29.0844 64.6207 29.0511C64.5916 28.9821 64.5632 28.8801 64.5041 28.6824C64.407 28.358 64.2362 27.7969 63.837 27.3966L62.9395 28.2919ZM64.2021 30.1098C64.4442 30.1098 64.6158 29.9923 64.7088 29.9055C64.7978 29.8225 64.8554 29.7315 64.8871 29.6775C64.9212 29.6193 64.9499 29.5601 64.9679 29.5231C64.9901 29.4773 64.9997 29.4573 65.0087 29.4409C65.0199 29.4204 65.0074 29.4488 64.9699 29.4882C64.9344 29.5254 64.8009 29.6509 64.5759 29.6509C64.3506 29.6509 64.2201 29.5252 64.1898 29.4929C64.1569 29.4578 64.1551 29.4422 64.1774 29.4869L65.3118 28.9212C65.2663 28.8299 65.2035 28.7208 65.1148 28.6262C65.0288 28.5344 64.8479 28.3833 64.5759 28.3833C64.3043 28.3833 64.128 28.5342 64.052 28.6139C63.974 28.6958 63.9234 28.7837 63.8973 28.8312C63.869 28.8828 63.8421 28.9393 63.8273 28.97C63.8081 29.0094 63.7991 29.0268 63.7934 29.0366C63.7852 29.0505 63.8008 29.019 63.8443 28.9785C63.8917 28.9342 64.0142 28.8422 64.2021 28.8422V30.1098ZM64.1774 29.4869C64.1774 29.4869 64.1987 29.5384 64.2332 29.6782C64.2641 29.804 64.2974 29.9652 64.3324 30.1552C64.4024 30.5351 64.4738 30.9977 64.5454 31.4626C64.6161 31.9212 64.6873 32.3847 64.7548 32.7468C64.7884 32.9269 64.8235 33.0955 64.8601 33.2321C64.8782 33.2996 64.9001 33.3725 64.927 33.4405C64.9446 33.4849 64.9972 33.6182 65.1097 33.731L66.0072 32.8358C66.0926 32.9214 66.1172 33.0032 66.106 32.9748C66.1041 32.9701 66.0966 32.9489 66.0845 32.9038C66.0607 32.8151 66.0327 32.6846 66.0009 32.5145C65.9379 32.1764 65.8701 31.7356 65.7983 31.2696C65.7275 30.8098 65.6531 30.3274 65.579 29.9254C65.542 29.7244 65.5035 29.5356 65.464 29.3749C65.4278 29.2283 65.3796 29.0572 65.3118 28.9212L64.1774 29.4869ZM65.1097 33.731C65.1993 33.8208 65.3552 33.9306 65.5744 33.9427C65.793 33.9547 65.9583 33.8631 66.0543 33.7868C66.2175 33.6569 66.3012 33.4774 66.3378 33.3942C66.4291 33.1867 66.4991 32.9119 66.5513 32.668C66.6554 32.1807 66.7348 31.5841 66.7348 31.3797H65.4672C65.4672 31.3785 65.4661 31.4098 65.4583 31.4861C65.4513 31.5545 65.4406 31.6422 65.4266 31.7425C65.3985 31.9436 65.3586 32.1832 65.3116 32.403C65.262 32.6351 65.2134 32.8022 65.1775 32.8836C65.1506 32.9448 65.1685 32.8716 65.265 32.7948C65.3276 32.745 65.4593 32.6668 65.6441 32.6769C65.8295 32.6872 65.9515 32.7799 66.0072 32.8358L65.1097 33.731ZM66.7348 31.3797C66.7348 31.4114 66.7321 31.4007 66.7484 31.3135C66.7615 31.2434 66.7819 31.1497 66.8092 31.0401C66.8641 30.8202 66.9421 30.5548 67.0337 30.31C67.1298 30.0531 67.2233 29.8667 67.2952 29.7707C67.3329 29.7202 67.3289 29.7438 67.2713 29.7731C67.1831 29.818 67.0375 29.8385 66.9021 29.7707L67.4701 28.6374C67.199 28.5015 66.9178 28.5306 66.6961 28.6435C66.505 28.7408 66.3696 28.8918 66.2801 29.0113C66.0977 29.2552 65.9538 29.5788 65.8464 29.8658C65.7346 30.1649 65.6431 30.4774 65.5793 30.7334C65.5472 30.8618 65.521 30.9806 65.5023 31.0804C65.4869 31.1632 65.4672 31.28 65.4672 31.3797H66.7348ZM47.747 22.5803C47.8897 22.7237 48.0678 22.7912 48.1662 22.8241C48.2852 22.8638 48.4153 22.8926 48.5391 22.9145C48.7884 22.9586 49.0774 22.986 49.3406 23.0035C49.607 23.0214 49.8627 23.0301 50.0506 23.0345C50.1449 23.0367 50.223 23.0378 50.2778 23.0384C50.3053 23.0387 50.327 23.0388 50.342 23.0389C50.3495 23.0389 50.3554 23.0389 50.3595 23.0389C50.3615 23.0389 50.3632 23.0389 50.3643 23.0389C50.3649 23.0389 50.3654 23.039 50.3657 23.039C50.3659 23.039 50.366 23.039 50.3661 23.039C50.3662 23.039 50.3663 23.039 50.3663 23.039C50.3664 23.039 50.3664 23.039 50.3664 22.4051C50.3664 21.7713 50.3664 21.7713 50.3665 21.7713C50.3665 21.7713 50.3665 21.7713 50.3665 21.7713C50.3665 21.7713 50.3665 21.7713 50.3664 21.7713C50.3663 21.7713 50.3661 21.7713 50.3658 21.7713C50.3651 21.7713 50.364 21.7713 50.3624 21.7713C50.3593 21.7713 50.3545 21.7713 50.348 21.7713C50.3351 21.7712 50.3157 21.7711 50.2907 21.7708C50.2406 21.7703 50.1681 21.7693 50.0802 21.7672C49.9035 21.7631 49.6673 21.7549 49.4251 21.7387C49.1795 21.7223 48.943 21.6987 48.7599 21.6663C48.6676 21.6499 48.6049 21.6341 48.5681 21.6218C48.5109 21.6027 48.5704 21.6107 48.6454 21.686L47.747 22.5803ZM57.9873 32.2065C57.983 32.2152 57.9581 32.2593 57.8978 32.3004C57.8363 32.3422 57.7768 32.3544 57.7443 32.3568C57.716 32.3589 57.7352 32.3516 57.8949 32.4037C58.0106 32.4415 58.2228 32.5185 58.433 32.5605C58.6563 32.605 58.9438 32.6266 59.2487 32.5247L58.8469 31.3225C58.8263 31.3294 58.7814 31.3374 58.6809 31.3173C58.5673 31.2947 58.4641 31.2561 58.2882 31.1987C58.1563 31.1556 57.9076 31.0736 57.6504 31.0927C57.5035 31.1036 57.3393 31.1472 57.1847 31.2524C57.0314 31.3567 56.9251 31.496 56.853 31.6407L57.9873 32.2065ZM57.7042 31.357C56.1613 30.5836 55.2353 29.7126 54.6546 29.0057C54.3627 28.6502 54.153 28.3302 53.9906 28.0698C53.9149 27.9483 53.8326 27.8122 53.7704 27.7149C53.711 27.6223 53.6276 27.496 53.5283 27.3965L52.6311 28.292C52.6223 28.2832 52.6406 28.3014 52.7028 28.3985C52.7621 28.4911 52.8211 28.59 52.915 28.7405C53.0917 29.024 53.3342 29.3952 53.6751 29.8103C54.3604 30.6445 55.4236 31.6318 57.1361 32.4902L57.7042 31.357Z" fill="#C2410C"/>
<path d="M17.8139 31.6544C18.1756 31.8357 18.9533 32.3615 19.1703 33.0142C19.9841 34.6459 20.2554 34.6459 19.9841 35.4618C19.7128 36.2776 19.7128 37.3655 19.9841 37.6374C20.2554 37.9094 21.0692 37.0935 21.0692 36.8215C21.0692 36.5496 22.1543 37.0935 21.883 37.6374C21.6118 38.1813 21.0692 38.7252 21.3405 38.9972C21.6118 39.2691 21.3405 39.8131 22.1543 40.6289C22.9681 41.4448 22.6969 42.8046 22.6969 43.0765C22.6969 43.3485 23.2394 46.8839 24.0533 47.1559M17.5426 29.4781C17.633 29.3874 18.0852 29.2041 18.6277 28.9348C19.5043 28.4997 18.899 30.0226 19.1703 30.5666C19.4416 31.1105 20.2554 31.3818 19.9841 31.9257C19.7128 32.4696 20.2554 33.2855 20.5267 33.2855C20.7979 33.2855 21.3405 32.1976 21.6118 32.4696C21.883 32.7415 21.883 33.2855 22.6969 33.2855C23.5107 33.2855 23.782 32.7415 24.0533 33.2855C24.3245 33.8294 23.782 34.3733 24.5958 34.6452C25.4096 34.9172 26.2235 35.1891 26.2235 35.7331C26.2235 36.277 25.4096 37.0922 26.4947 37.3648C27.5799 37.6374 27.8511 37.6367 28.3937 38.1807C28.9362 38.7246 29.7501 38.4539 30.2926 38.9972C30.8352 39.5404 31.649 40.9002 31.1064 41.4441C30.5639 41.988 29.7501 42.5333 30.0213 43.0765C30.2926 43.6198 30.5639 45.2515 30.0213 45.2515C29.4788 45.2515 28.3937 44.9796 28.3937 45.7954C28.3937 46.6113 29.2075 46.8833 28.665 47.4272C28.1224 47.9711 27.5799 47.6991 27.5799 48.515C27.5799 49.1677 27.3086 50.1467 27.3086 50.4187" stroke="#C2410C" stroke-width="1.26763"/>
<path d="M25.681 12.3434C25.681 12.5247 25.7352 12.8329 25.9522 12.6154C26.2235 12.3434 26.4948 12.6154 26.7661 12.3434C27.0373 12.0715 27.0373 12.0715 27.3086 11.7995C27.5799 11.5275 26.4948 11.5275 27.8512 11.2556C29.2076 10.9836 28.9363 10.9836 29.7501 10.7117C30.5639 10.4397 30.8352 10.4397 31.3778 10.1678C31.9203 9.89581 32.7341 9.62385 33.2767 9.89581C33.8193 10.1678 36.2607 9.62381 36.532 9.35185C36.8033 9.0799 40.6012 9.89577 41.9576 9.35185C43.3139 8.80794 39.5161 10.1678 39.5161 11.2556C39.5161 12.3434 39.5161 11.7982 38.7022 12.0708C37.8884 12.3434 37.8884 12.6154 36.8033 12.6154C35.7182 12.6154 35.7182 12.3428 35.1756 12.8867C34.6331 13.4306 35.1756 13.4306 34.3618 13.4306C33.548 13.4306 33.548 13.4306 33.2767 13.9745C33.0054 14.5184 33.0054 14.5184 32.4629 14.7904C31.9203 15.0623 31.9203 15.0623 31.649 14.7904C31.3778 14.5184 31.1065 14.5184 31.1065 13.9745C31.1065 13.4306 31.1065 13.158 31.3778 12.8867C31.649 12.6154 32.1916 11.7982 31.9203 11.5269C31.649 11.2556 30.5639 12.0721 30.2927 11.7995C30.0214 11.5269 29.4788 11.5282 29.2076 11.7995C28.9363 12.0708 28.1224 12.6147 28.1224 12.8867C28.1224 13.1586 28.665 12.8867 28.9363 13.1586C29.2076 13.7026 29.7501 14.5184 28.9363 14.5184C28.1224 14.5184 27.8512 14.5184 27.8512 14.7904C27.8512 15.0079 27.4895 15.2436 27.3086 15.3343C27.0373 15.0623 26.549 14.736 26.7661 15.6062C26.9831 16.4765 27.5799 16.8754 27.8512 16.966C28.032 17.0567 28.3395 17.3468 28.1224 17.7819C27.9054 18.217 27.6703 18.6884 27.5799 18.8697C27.5799 18.9604 27.5799 19.1961 27.5799 19.4136C27.5799 19.6312 26.6756 19.8669 26.2235 19.9575C25.9522 20.0482 25.3554 20.3383 25.1384 20.7734C24.8671 21.3173 23.782 20.2295 23.782 21.0454C23.782 21.8612 23.5107 21.3173 23.2395 21.8612C22.9682 22.4051 22.6969 22.1332 22.4256 22.6771C22.1544 23.221 21.6118 23.7649 21.6118 24.3088C21.6118 24.8528 19.9841 25.1247 19.9841 25.9406C19.9841 26.7564 19.9841 28.1162 19.7129 27.5723C19.4416 27.0284 19.4416 27.0284 18.899 26.7564C18.465 26.5389 18.0852 26.7564 17.8139 27.0284" stroke="#C2410C" stroke-width="1.26763"/>
<path d="M42.2286 18.0539C41.4148 17.51 41.9317 16.9661 42.4999 16.9661C42.6183 16.8508 42.4674 16.2562 42.1832 15.9796C42.0578 15.7039 41.7995 15.7971 41.6861 15.8783C41.6861 16.224 41.4728 16.6711 41.1175 16.6711C40.7623 16.6711 40.4071 17.3626 40.0519 17.0169C39.6966 16.6711 38.9862 17.3626 39.3414 16.6711C39.6966 15.9796 39.3417 16.3254 39.3417 15.9796C39.3417 15.6339 39.697 15.9796 39.697 15.6339C39.697 15.2882 40.4074 15.6339 40.4074 15.2882C40.4074 14.9424 40.4077 14.9424 40.7626 14.9424C41.1175 14.9424 41.1179 14.9424 41.1179 14.5967C41.1179 14.3201 41.0207 14.1959 41.1179 13.9052C41.215 13.6145 41.8283 13.5595 41.8283 13.5595C41.9467 13.5595 42.2546 13.4903 42.5388 13.2137C42.894 12.868 42.1835 14.2509 42.5388 14.5967C42.823 14.8733 43.3137 14.7904 43.585 15.0624C43.8563 15.3343 43.3913 16.3244 43.9597 16.3244C44.528 16.3244 44.6701 16.5549 44.6701 16.6701" stroke="#C2410C" stroke-width="1.26763"/>
<path d="M67.3662 30.5639C67.3662 44.3339 56.2317 55.4939 42.5 55.4939C28.7683 55.4939 17.6338 44.3339 17.6338 30.5639C17.6338 16.7939 28.7683 5.63382 42.5 5.63382C56.2317 5.63382 67.3662 16.7939 67.3662 30.5639Z" stroke="#C2410C" stroke-width="1.26763"/>
</g>
<defs>
<clipPath id="clip0_36_1566">
<rect width="86.5" height="60.5" fill="white" transform="translate(0 0.5)"/>
</clipPath>
</defs>
</svg>
