<svg width="60" height="60" viewBox="0 0 60 60" fill="none" xmlns="http://www.w3.org/2000/svg">
<g clip-path="url(#clip0_86_1171)">
<rect width="60" height="60" fill="white"/>
<g clip-path="url(#clip1_86_1171)">
<path d="M10.4595 15C9.11149 15 8 16.1115 8 17.4595V40.0811C8 41.5169 9.15878 42.6757 10.5946 42.6757H14.1351C14.5473 45.1284 16.6791 47 19.2432 47C21.8074 47 23.9392 45.1284 24.3514 42.6757H32.3513C32.9899 42.6757 33.5608 42.4054 34 42C34.4493 42.3953 35.0236 42.6689 35.6757 42.6757H36.6216C37.0338 45.1284 39.1655 47 41.7297 47C44.5845 47 46.9189 44.6655 46.9189 41.8108C46.9189 38.9561 44.5845 36.6216 41.7297 36.6216C39.1655 36.6216 37.0338 38.4932 36.6216 40.9459H35.6757C35.5135 40.9459 35.2669 40.8345 35.0811 40.6486C34.8953 40.4628 34.8108 40.2399 34.8108 40.0811V23.6486C34.8108 23.3243 35.3513 22.7838 35.6757 22.7838H42.5946C43.2736 22.7838 44.2297 23.5101 44.8919 24.2973C44.8986 24.3074 44.9122 24.3142 44.9189 24.3243L45.0541 24.5135H40.8649C39.4865 24.5135 38.2703 25.6284 38.2703 27.1081V30.5676C38.2703 31.2872 38.5946 31.9189 39.0541 32.3784C39.5135 32.8378 40.1453 33.1622 40.8649 33.1622H49.5135V40.0811C49.5135 40.4054 48.973 40.9459 48.6486 40.9459H46.9189V42.6757H48.6486C50.0845 42.6757 51.2432 41.5169 51.2432 40.0811V31.7568C51.2432 29.777 49.8649 28.027 49.8649 28.027H49.8378L46.2703 23.2703V23.2432L46.2432 23.2162C45.4459 22.2534 44.25 21.0541 42.5946 21.0541H35.6757C35.3682 21.0541 35.0845 21.1182 34.8108 21.2162V17.5135C34.8108 16.1858 33.7635 15 32.3784 15H10.4595ZM10.4595 16.7297H32.3784C32.75 16.7297 33.0811 17.0878 33.0811 17.5135V40.2162C33.0811 40.6216 32.7601 40.9459 32.3513 40.9459H24.3514C23.9392 38.4932 21.8074 36.6216 19.2432 36.6216C16.6791 36.6216 14.5473 38.4932 14.1351 40.9459H10.5946C10.2703 40.9459 9.72973 40.402 9.72973 40.0811V17.4595C9.72973 17.0541 10.0473 16.7297 10.4595 16.7297ZM40.8649 26.2432H46.3513L48.4595 29.0541C48.4595 29.0541 49.2432 30.3953 49.4054 31.4324H40.8649C40.7196 31.4324 40.4865 31.3243 40.2973 31.1351C40.1081 30.9459 40 30.7128 40 30.5676V27.1081C40 26.6723 40.5135 26.2432 40.8649 26.2432ZM19.2432 38.3513C21.1655 38.3513 22.7027 39.8885 22.7027 41.8108C22.7027 43.7331 21.1655 45.2703 19.2432 45.2703C17.3209 45.2703 15.7838 43.7331 15.7838 41.8108C15.7838 39.8885 17.3209 38.3513 19.2432 38.3513ZM41.7297 38.3513C43.652 38.3513 45.1892 39.8885 45.1892 41.8108C45.1892 43.7331 43.652 45.2703 41.7297 45.2703C39.8074 45.2703 38.2703 43.7331 38.2703 41.8108C38.2703 39.8885 39.8074 38.3513 41.7297 38.3513Z" fill="#C2410C"/>
</g>
</g>
<defs>
<clipPath id="clip0_86_1171">
<rect width="60" height="60" fill="white"/>
</clipPath>
<clipPath id="clip1_86_1171">
<rect width="60" height="60" fill="white"/>
</clipPath>
</defs>
</svg>
