<svg width="61" height="60" viewBox="0 0 61 60" fill="none" xmlns="http://www.w3.org/2000/svg">
<g clip-path="url(#clip0_91_33)">
<rect width="60" height="60" transform="translate(0.5)" fill="white"/>
<path d="M46.1897 17.6708L28.8316 21.4811L21.4227 14.0722C18.2474 10.8969 14.0137 9.83849 11.8969 10.8969C10.8385 13.0137 11.8969 17.2474 15.0722 20.4227L22.4811 27.8316L18.6708 45.1897C18.4591 46.2481 18.8825 47.0948 19.7292 47.5182L20.7876 48.1533C21.846 48.5766 22.9045 48.3649 23.5395 47.5182L30.9485 36.299L37.299 40.5326V46.8832L39.4158 49L43.6495 42.6495L50 38.4158L47.8832 36.299H41.5326L37.299 29.9485L48.5182 22.5395C49.3649 21.9045 49.5766 20.8461 49.1533 19.7876L48.7299 18.7292C48.0948 17.8825 47.2481 17.4591 46.1897 17.6708Z" stroke="#C2410C" stroke-width="1.5" stroke-linecap="round" stroke-linejoin="round"/>
</g>
<defs>
<clipPath id="clip0_91_33">
<rect width="60" height="60" fill="white" transform="translate(0.5)"/>
</clipPath>
</defs>
</svg>
