<svg width="60" height="60" viewBox="0 0 60 60" fill="none" xmlns="http://www.w3.org/2000/svg">
<g clip-path="url(#clip0_86_1094)">
<rect width="60" height="60" fill="white"/>
<rect x="8.75" y="13.75" width="41.5" height="33.5" rx="2.25" stroke="#C2410C" stroke-width="1.5"/>
<path d="M16 9V17" stroke="#C2410C" stroke-width="1.5" stroke-linecap="round"/>
<path d="M43 9V17" stroke="#C2410C" stroke-width="1.5" stroke-linecap="round"/>
<path d="M38.1734 29.8672C38.3557 29.8672 38.5055 29.9258 38.6227 30.043C38.7398 30.1471 38.7984 30.2969 38.7984 30.4922C38.7984 30.6745 38.7398 30.8242 38.6227 30.9414C38.5055 31.0456 38.3557 31.0977 38.1734 31.0977H35.5562V33.7148C35.5562 33.8971 35.4977 34.0469 35.3805 34.1641C35.2633 34.2812 35.1135 34.3398 34.9312 34.3398C34.749 34.3398 34.5992 34.2812 34.482 34.1641C34.3648 34.0469 34.3062 33.8971 34.3062 33.7148V31.0977H31.6891C31.5068 31.0977 31.357 31.0391 31.2398 30.9219C31.1357 30.8047 31.0836 30.6615 31.0836 30.4922C31.0836 30.3099 31.1357 30.1602 31.2398 30.043C31.357 29.9258 31.5068 29.8672 31.6891 29.8672H34.3062V27.2305C34.3062 27.0482 34.3648 26.8984 34.482 26.7812C34.5992 26.6641 34.749 26.6055 34.9312 26.6055C35.1135 26.6055 35.2633 26.6641 35.3805 26.7812C35.4977 26.8984 35.5562 27.0482 35.5562 27.2305V29.8672H38.1734Z" fill="#C2410C"/>
<path d="M28.1641 24.8281C28.4245 24.8281 28.6393 24.9128 28.8086 25.082C28.9909 25.2383 29.082 25.4401 29.082 25.6875C29.082 25.9219 29.0234 26.1562 28.9062 26.3906L24.375 35.6875C24.2318 35.9609 24.0234 36.0911 23.75 36.0781C23.4896 36.0781 23.2878 36.013 23.1445 35.8828C23.0143 35.7526 22.9492 35.6029 22.9492 35.4336C22.9492 35.2643 22.9883 35.1081 23.0664 34.9648L27.4609 26.2148H21.6406C21.4583 26.2148 21.2956 26.1497 21.1523 26.0195C21.0221 25.8893 20.957 25.7266 20.957 25.5312C20.957 25.349 21.0221 25.1862 21.1523 25.043C21.2956 24.8997 21.4583 24.8281 21.6406 24.8281H28.1641Z" fill="#C2410C"/>
</g>
<defs>
<clipPath id="clip0_86_1094">
<rect width="60" height="60" fill="white"/>
</clipPath>
</defs>
</svg>
