<svg width="60" height="60" viewBox="0 0 60 60" fill="none" xmlns="http://www.w3.org/2000/svg">
  <g clip-path="url(#clip0_86_1163)">
<rect width="60" height="60" fill="white"/>
<path d="M42.3292 45.6897L38.5189 28.3316L45.9278 20.9227C49.1031 17.7474 50.1615 13.5137 49.1031 11.3969C46.9863 10.3385 42.7526 11.3969 39.5773 14.5722L32.1684 21.9811L14.8103 18.1708C13.7519 17.9591 12.9052 18.3825 12.4818 19.2292L11.8467 20.2876C11.4234 21.346 11.6351 22.4045 12.4818 23.0395L23.701 30.4485L19.4674 36.799H13.1168L11 38.9158L17.3505 43.1495L21.5842 49.5L23.701 47.3832V41.0326L30.0515 36.799L37.4605 48.0182C38.0955 48.8649 39.1539 49.0766 40.2124 48.6533L41.2708 48.2299C42.1175 47.5948 42.5409 46.7481 42.3292 45.6897Z" stroke="#C2410C" stroke-width="1.5" stroke-linecap="round" stroke-linejoin="round"/>
</g>
<defs>
<clipPath id="clip0_86_1163">
<rect width="60" height="60" fill="white"/>
</clipPath>
</defs>
</svg>
