<svg width="61" height="60" viewBox="0 0 61 60" fill="none" xmlns="http://www.w3.org/2000/svg">
<g clip-path="url(#clip0_74_66)">
<rect width="60" height="60" transform="translate(0.5)" fill="white"/>
<path d="M37.28 20.1434C44.618 11.0978 33.3538 12.3326 31.7189 11.5145C31.1444 11.2274 30.5792 8.45558 29.3008 9.09563C27.332 10.0805 27.4993 15.2075 27.2857 16.9178C27.1697 17.8487 25.87 19.1816 25.4428 20.1434C24.7609 21.6782 24.0116 23.5038 22.759 25.4103C21.5065 27.317 18.8888 28.7951 17.5786 30.2522C12.0023 36.4503 14.3931 43.7369 20.5153 48.4488C26.7074 53.2146 52.5697 51.4359 45.2599 40.4654" stroke="#C2410C" stroke-width="1.5" stroke-linecap="round" stroke-linejoin="round"/>
<path d="M34.3854 24.3424C36.2026 30.994 33.594 37.9404 33.594 44.4535C33.594 45.2031 35.0814 44.4798 35.8101 44.6137" stroke="#C2410C" stroke-width="1.5" stroke-linecap="round" stroke-linejoin="round"/>
<path d="M24.9001 31.3318C26.3629 31.5472 27.6979 32.6211 28.7334 33.6249C33.8874 38.6221 27.3033 41.9805 26.9386 43.747C26.8563 44.1466 28.5553 44.4218 28.8966 44.4584" stroke="#C2410C" stroke-width="1.5" stroke-linecap="round" stroke-linejoin="round"/>
<path d="M32.2305 9.44913C33.2242 8.51696 33.4138 10.1486 33.5941 11.0457" stroke="#C2410C" stroke-width="1.5" stroke-linecap="round" stroke-linejoin="round"/>
</g>
<defs>
<clipPath id="clip0_74_66">
<rect width="60" height="60" fill="white" transform="translate(0.5)"/>
</clipPath>
</defs>
</svg>
