<svg width="61" height="60" viewBox="0 0 61 60" fill="none" xmlns="http://www.w3.org/2000/svg">
<g clip-path="url(#clip0_74_319)">
<rect width="60" height="60" transform="translate(0.5)" fill="white"/>
<path d="M31.0472 19.6077C30.8968 21.5197 30.985 23.4439 31.2386 25.3458C32.6216 35.713 37.213 26.6053 35.449 17.7906" stroke="#C2410C" stroke-width="1.5" stroke-linecap="round" stroke-linejoin="round"/>
<path d="M37.3304 16.4321C38.9304 15.3854 49.8966 7.65605 50.6906 11.6242C51.5535 15.9359 42.7551 20.1986 40.488 23.0309C35.5121 29.2474 36.5555 40.0784 39.3398 47.0356" stroke="#C2410C" stroke-width="1.5" stroke-linecap="round" stroke-linejoin="round"/>
<path d="M28.8136 25.9001C24.6153 32.0492 21.9183 38.84 20.4888 45.9836" stroke="#C2410C" stroke-width="1.5" stroke-linecap="round" stroke-linejoin="round"/>
<path d="M28.6225 37.8545C30.5386 36.1044 35.4056 37.5011 34.2682 40.5324C33.533 42.4913 31.5073 44.4539 29.9621 45.7923C29.4128 46.2681 28.7335 46.7616 28.0483 47.0357C27.8887 47.0994 27.4484 47.1056 27.5698 47.2269C27.8452 47.502 34.6837 45.4452 35.0336 46.8444C35.1928 47.4807 30.0136 49.0145 29.3879 49.1397C26.1358 49.7897 22.2586 49.6812 19.4363 47.8007C18.8096 47.3832 18.6087 46.4205 18.0965 46.0794C18.0333 46.0373 12.6602 49.6286 10.25 48.1833" stroke="#C2410C" stroke-width="1.5" stroke-linecap="round" stroke-linejoin="round"/>
<path d="M38.6938 17.3896C38.7826 17.6703 39.0079 17.8884 39.1933 18.1107" stroke="#C2410C" stroke-width="1.5" stroke-linecap="round" stroke-linejoin="round"/>
<path d="M49.6325 11.512C53.1036 11.0671 46.6874 14.3784 49.401 11.6661" stroke="#C2410C" stroke-width="1.5" stroke-linecap="round" stroke-linejoin="round"/>
</g>
<defs>
<clipPath id="clip0_74_319">
<rect width="60" height="60" fill="white" transform="translate(0.5)"/>
</clipPath>
</defs>
</svg>
