<svg width="60" height="60" viewBox="0 0 60 60" fill="none" xmlns="http://www.w3.org/2000/svg">
<g clip-path="url(#clip0_73_1076)">
<rect width="60" height="60" fill="white"/>
<rect x="8.75" y="13.75" width="41.5" height="33.5" rx="2.25" stroke="#C2410C" stroke-width="1.5"/>
<path d="M16 9V17" stroke="#C2410C" stroke-width="1.5" stroke-linecap="round"/>
<path d="M43 9V17" stroke="#C2410C" stroke-width="1.5" stroke-linecap="round"/>
<path d="M38.0051 28.8906C38.3436 28.8125 38.7603 28.7734 39.2551 28.7734C39.7499 28.7734 40.2186 28.8646 40.6613 29.0469C41.104 29.2161 41.4816 29.4635 41.7941 29.7891C42.4842 30.4922 42.8293 31.4036 42.8293 32.5234C42.8293 33.5521 42.4777 34.4115 41.7746 35.1016C41.0454 35.8047 40.0819 36.1562 38.884 36.1562C37.66 36.1562 36.6965 35.8307 35.9933 35.1797C35.147 34.3724 34.6587 33.181 34.5285 31.6055C34.5025 31.1758 34.4894 30.7201 34.4894 30.2383C34.4894 29.7435 34.5676 29.1576 34.7238 28.4805C34.8801 27.7904 35.134 27.1719 35.4855 26.625C35.8501 26.0651 36.3254 25.6029 36.9113 25.2383C37.5103 24.8607 38.2004 24.6719 38.9816 24.6719C39.7629 24.6719 40.3749 24.7435 40.8176 24.8867C41.2603 25.0299 41.6444 25.1862 41.9699 25.3555C42.2043 25.4857 42.315 25.6615 42.3019 25.8828C42.3019 26.0911 42.2433 26.2604 42.1262 26.3906C42.009 26.5208 41.8723 26.5859 41.716 26.5859C41.5598 26.5859 41.4035 26.5469 41.2473 26.4688C40.6743 26.2083 40.0233 26.0781 39.2941 26.0781C38.565 26.0781 37.9855 26.2279 37.5558 26.5273C37.1392 26.8138 36.8071 27.1654 36.5598 27.582C36.1691 28.2852 35.9478 29.151 35.8957 30.1797C36.3644 29.5547 37.0676 29.125 38.0051 28.8906ZM37.6144 34.5547C37.966 34.7109 38.3631 34.7891 38.8058 34.7891C39.2486 34.7891 39.6196 34.7305 39.9191 34.6133C40.2316 34.4961 40.492 34.3268 40.7004 34.1055C41.1431 33.6628 41.3644 33.1094 41.3644 32.4453C41.3775 31.7682 41.1821 31.2083 40.7785 30.7656C40.3879 30.3229 39.7889 30.1016 38.9816 30.1016C38.1483 30.1016 37.4582 30.3099 36.9113 30.7266C36.5207 31.013 36.2082 31.3906 35.9738 31.8594C36.1561 33.2396 36.703 34.138 37.6144 34.5547Z" fill="#C2410C"/>
<path d="M31.0137 30.8633C31.196 30.8633 31.3522 30.9284 31.4824 31.0586C31.6126 31.1888 31.6777 31.3385 31.6777 31.5078C31.6777 31.6901 31.6126 31.8464 31.4824 31.9766C31.3522 32.0938 31.196 32.1523 31.0137 32.1523H28.0059C27.8236 32.1523 27.6673 32.0938 27.5371 31.9766C27.4199 31.8594 27.3613 31.7031 27.3613 31.5078C27.3613 31.3255 27.4199 31.1758 27.5371 31.0586C27.6543 30.9284 27.8105 30.8633 28.0059 30.8633H31.0137Z" fill="#C2410C"/>
<path d="M20.448 24.6719C21.1642 24.6719 21.7892 24.8086 22.323 25.082C22.8699 25.3555 23.3191 25.7526 23.6707 26.2734C24.3999 27.276 24.7645 28.6562 24.7645 30.4141C24.7645 32.1849 24.3999 33.5716 23.6707 34.5742C22.9025 35.6289 21.8217 36.1562 20.4285 36.1562C19.0353 36.1562 17.9546 35.6289 17.1863 34.5742C16.4572 33.5716 16.0926 32.1849 16.0926 30.4141C16.0926 28.6562 16.4572 27.276 17.1863 26.2734C17.9546 25.2057 19.0418 24.6719 20.448 24.6719ZM20.448 34.8086C21.3855 34.8086 22.0952 34.4115 22.577 33.6172C23.0717 32.8359 23.3191 31.7682 23.3191 30.4141C23.3191 29.0599 23.0717 27.9922 22.577 27.2109C22.0822 26.4167 21.3595 26.026 20.409 26.0391C19.4715 26.0391 18.7618 26.4362 18.2801 27.2305C17.7983 28.0117 17.5574 29.0729 17.5574 30.4141C17.5574 31.7812 17.7983 32.849 18.2801 33.6172C18.7879 34.4115 19.5105 34.8086 20.448 34.8086Z" fill="#C2410C"/>
</g>
<defs>
<clipPath id="clip0_73_1076">
<rect width="60" height="60" fill="white"/>
</clipPath>
</defs>
</svg>
