<svg width="16" height="17" viewBox="0 0 16 17" fill="none" xmlns="http://www.w3.org/2000/svg">
<path d="M14.5 8C14.5 5.6875 13.25 3.5625 11.25 2.375C9.21875 1.21875 6.75 1.21875 4.75 2.375C2.71875 3.5625 1.5 5.6875 1.5 8C1.5 10.3438 2.71875 12.4688 4.75 13.6562C6.75 14.8125 9.21875 14.8125 11.25 13.6562C13.25 12.4688 14.5 10.3438 14.5 8ZM0 8C0 5.15625 1.5 2.53125 4 1.09375C6.46875 -0.34375 9.5 -0.34375 12 1.09375C14.4688 2.53125 16 5.15625 16 8C16 10.875 14.4688 13.5 12 14.9375C9.5 16.375 6.46875 16.375 4 14.9375C1.5 13.5 0 10.875 0 8ZM9.5625 10.1875L5.0625 11.9062C4.46875 12.1562 3.84375 11.5312 4.09375 10.9375L5.8125 6.4375C5.9375 6.15625 6.125 5.96875 6.40625 5.84375L10.9062 4.125C11.5312 3.875 12.125 4.46875 11.875 5.09375L10.1562 9.59375C10.0312 9.875 9.84375 10.0625 9.5625 10.1875ZM9 8C9 7.46875 8.53125 7 8 7C7.4375 7 7 7.46875 7 8C7 8.5625 7.4375 9 8 9C8.53125 9 9 8.5625 9 8Z" fill="#059669"/>
</svg>
