<svg width="473" height="403" viewBox="0 0 473 403" fill="none" xmlns="http://www.w3.org/2000/svg">
<path d="M61.7876 407.169L257.39 85.8313L363.661 407.169H61.7876Z" fill="#C8C9CF"/>
<path d="M257.39 85.8313L195.331 407.169H363.661L257.39 85.8313Z" fill="#879291"/>
<path d="M62.931 407.169L118.798 232.622L199.329 407.169H62.931Z" fill="#9CAAAA"/>
<path d="M118.798 232.622L140.371 407.169H199.329L118.798 232.622Z" fill="#879291"/>
<path d="M257.391 85.8313L215.624 154.442L219.913 165.924L234.718 156.646L248.66 175.192L257.391 160.363L265.353 166.851L271.845 156.646L282.223 160.92L257.391 85.8313Z" fill="#F4F7FA"/>
<path d="M118.798 232.622L110.58 258.312L113.281 261.162L116.362 257.775L118.798 261.162L121.603 255.275L125.291 261.162L127.598 256.853L130.862 258.761L118.798 232.622Z" fill="#F4F7FA"/>
<path d="M247.55 407.169L322.781 172.131L431.212 407.169H247.55Z" fill="#9CAAAA"/>
<path d="M322.781 172.131L351.829 407.169H431.212L322.781 172.131Z" fill="#879291"/>
<path d="M322.782 172.131L311.709 206.725L315.348 210.565L319.494 206L322.782 210.565L326.549 202.633L331.513 210.565L334.624 204.758L339.016 207.321L322.782 172.131Z" fill="#F4F7FA"/>
</svg>
