<svg width="390" height="322" viewBox="0 0 390 322" fill="none" xmlns="http://www.w3.org/2000/svg">
<path d="M23.9865 322.254L163.084 93.7456L238.655 322.254H23.9865Z" fill="#C8C9CF"/>
<path d="M163.084 93.7456L118.955 322.254H238.655L163.084 93.7456Z" fill="#9CAAAA"/>
<path d="M1.3894 322.254L61.2268 135.3L147.476 322.254H1.3894Z" fill="#9CAAAA"/>
<path d="M61.2267 135.3L84.3313 322.254H147.476L61.2267 135.3Z" fill="#879291"/>
<path d="M163.084 93.7456L133.382 142.538L136.431 150.7L146.964 144.107L156.878 157.294L163.084 146.748L168.746 151.366L173.364 144.107L180.744 147.148L163.084 93.7456Z" fill="#F4F7FA"/>
<path d="M61.2269 135.3L52.4202 162.814L55.3156 165.868L58.6103 162.244L61.2269 165.868L64.2221 159.561L68.1741 165.868L70.6493 161.254L74.1396 163.297L61.2269 135.3Z" fill="#F4F7FA"/>
<path d="M198.066 322.254L304.682 147.102L362.61 322.254H198.066Z" fill="#C8C9CF"/>
<path d="M304.682 147.102L270.858 322.254H362.61L304.682 147.102Z" fill="#9CAAAA"/>
<path d="M180.744 322.254L226.608 178.951L292.723 322.254H180.744Z" fill="#9CAAAA"/>
<path d="M226.608 178.951L244.321 322.254H292.723L226.608 178.951Z" fill="#879291"/>
<path d="M304.683 147.102L281.919 184.5L284.257 190.757L292.328 185.702L299.924 195.811L304.683 187.728L309.026 191.264L312.562 185.702L318.215 188.032L304.683 147.102Z" fill="#F4F7FA"/>
<path d="M226.608 178.951L219.856 200.046L222.077 202.384L224.602 199.601L226.608 202.384L228.904 197.55L231.937 202.384L233.829 198.848L236.508 200.412L226.608 178.951Z" fill="#F4F7FA"/>
</svg>
