<svg width="88" height="61" viewBox="0 0 88 61" fill="none" xmlns="http://www.w3.org/2000/svg">
<g id="Regular/Big">
<path id="Vector 39" d="M62.2198 9.33073L61.8841 8.66007L62.2198 9.33073ZM49.3797 8.68711V9.43711H49.6909L49.9107 9.21678L49.3797 8.68711ZM47.1326 11.906L46.5463 12.3737L46.7044 12.5718L46.9502 12.6335L47.1326 11.906ZM44.5642 17.0549L43.893 16.7202L44.5642 17.0549ZM41.9962 17.3767L42.1025 16.6343L41.87 16.601L41.6601 16.7063L41.9962 17.3767ZM41.3541 19.3076L42.0507 19.5855L42.1041 19.4517V19.3076H41.3541ZM41.3541 21.2384L41.0181 21.9089L41.1767 21.9884H41.3541V21.2384ZM44.5642 20.5948L44.8433 21.291L45.897 20.8685L45.095 20.065L44.5642 20.5948ZM45.5272 19.3076L45.8063 20.0037L45.5272 19.3076ZM53.2311 20.5948L53.5672 19.9243L53.4086 19.8448H53.2311V20.5948ZM40.7119 24.1347L41.3831 23.8L40.7119 24.1347ZM39.1073 25.1001L38.9837 24.3604L38.7463 24.4001L38.5763 24.5705L39.1073 25.1001ZM58.0462 48.5922L58.7171 48.9274L58.0462 48.5922ZM58.0462 46.9831L57.3497 46.7049L57.2479 46.9598L57.3346 47.2202L58.0462 46.9831ZM60.2938 43.4432L59.5513 43.549L59.5526 43.5577L59.554 43.5662L60.2938 43.4432ZM60.2938 40.8688L60.8248 41.3984L60.2938 40.8688ZM63.5039 31.8581L63.7416 32.5695L63.9097 32.5133L64.0349 32.3878L63.5039 31.8581ZM66.0719 27.031L66.408 26.3605L66.0719 27.031ZM64.7879 27.031L64.3071 27.6066L64.6844 27.9218L65.124 27.7015L64.7879 27.031ZM63.1829 24.7783L62.5117 24.4436L63.1829 24.7783ZM71.208 33.4672L70.677 33.9968L71.208 33.4672ZM56.9727 26.5012C56.6801 26.208 56.2052 26.2075 55.912 26.5001C55.6188 26.7927 55.6183 27.2676 55.9109 27.5608L56.9727 26.5012ZM65.9609 9.44548C65.6997 9.18363 65.1085 8.80883 64.4238 8.57991C63.7303 8.34805 62.7789 8.21213 61.8841 8.66007L62.5556 10.0014C62.9448 9.80651 63.4379 9.8319 63.9482 10.0025C64.1943 10.0848 64.4184 10.1929 64.5958 10.2963C64.684 10.3477 64.7569 10.3958 64.8121 10.4358C64.8396 10.4557 64.8611 10.4725 64.8768 10.4855C64.8932 10.4991 64.8997 10.5056 64.8989 10.5048L65.9609 9.44548ZM61.8841 8.66007C61.4137 8.89558 61.1141 9.18062 60.8971 9.44694C60.796 9.57115 60.7118 9.69314 60.655 9.77337C60.59 9.86523 60.5604 9.90283 60.539 9.92503C60.5257 9.93885 60.537 9.92385 60.5676 9.91124C60.5976 9.89884 60.6041 9.90618 60.5592 9.90432C60.4397 9.89939 60.1739 9.84208 59.6269 9.60706L59.0347 10.9852C59.6113 11.2329 60.0888 11.3862 60.4973 11.403C60.7164 11.4121 60.933 11.3832 61.14 11.2977C61.3474 11.2121 61.5023 11.0873 61.6199 10.9651C61.7295 10.8512 61.8182 10.7264 61.8794 10.6399C61.9488 10.5419 61.9987 10.4697 62.0601 10.3943C62.1684 10.2613 62.308 10.1253 62.5556 10.0014L61.8841 8.66007ZM59.6269 9.60706C58.54 9.1401 58.0814 8.79415 57.4802 8.46962C56.8439 8.12614 56.2391 7.93711 55.1577 7.93711V9.43711C56.0024 9.43711 56.3607 9.56989 56.7676 9.78958C57.2097 10.0282 57.8746 10.4868 59.0347 10.9852L59.6269 9.60706ZM55.1577 7.93711C54.4109 7.93711 54.0791 7.71013 53.6985 7.48125C53.5028 7.36349 53.2044 7.18423 52.8264 7.13011C52.4217 7.07215 52.0249 7.16586 51.6116 7.37301L52.2838 8.71398C52.5125 8.59932 52.5972 8.61258 52.6138 8.61496C52.6572 8.62117 52.7199 8.64304 52.9254 8.76664C53.3474 9.02048 53.9786 9.43711 55.1577 9.43711V7.93711ZM51.6116 7.37301C51.1308 7.61404 50.7944 7.6153 50.4229 7.6153C50.0307 7.6153 49.4094 7.59528 48.8487 8.15744L49.9107 9.21678C49.9919 9.13533 50.0126 9.1153 50.4229 9.1153C50.854 9.1153 51.4806 9.11657 52.2838 8.71398L51.6116 7.37301ZM49.3797 7.93711C48.8934 7.93711 48.535 8.1534 48.2806 8.40022C48.059 8.61523 47.8753 8.89944 47.7616 9.06226C47.4886 9.45325 47.3653 9.54615 47.1326 9.54615V11.0462C48.1839 11.0462 48.7027 10.3345 48.9915 9.92101C49.1586 9.68156 49.2357 9.56351 49.3251 9.47682C49.3591 9.44383 49.3753 9.43642 49.3754 9.43639C49.3755 9.43631 49.3751 9.4365 49.3743 9.43679C49.3735 9.43707 49.3726 9.4373 49.372 9.43744C49.3703 9.43782 49.3723 9.43711 49.3797 9.43711V7.93711ZM47.1326 9.54615C46.7697 9.54615 46.325 9.64028 46.0387 10.0228C45.7632 10.3908 45.7986 10.811 45.855 11.0633C45.9682 11.5702 46.314 12.0824 46.5463 12.3737L47.719 11.4383C47.6326 11.3301 47.5377 11.1945 47.4593 11.0568C47.377 10.9124 47.3334 10.8015 47.3189 10.7364C47.3003 10.6533 47.3518 10.7717 47.2395 10.9217C47.1164 11.0862 46.982 11.0462 47.1326 11.0462V9.54615ZM46.9502 12.6335C47.1402 12.6811 47.3791 12.7603 47.5216 12.8353C47.5366 12.8432 47.5481 12.8498 47.5565 12.855C47.5651 12.8602 47.5687 12.8629 47.5684 12.8627C47.5684 12.8627 47.5615 12.8576 47.5505 12.8469C47.5398 12.8366 47.5204 12.8164 47.4987 12.7854C47.4563 12.7247 47.3846 12.5911 47.3967 12.4041C47.4092 12.2107 47.5032 12.0811 47.5642 12.02L48.6262 13.0793C48.7515 12.9537 48.8769 12.7591 48.8936 12.5008C48.9099 12.2489 48.8151 12.0504 48.7279 11.9257C48.5743 11.7061 48.3478 11.575 48.2198 11.5077C47.9238 11.352 47.5529 11.2382 47.315 11.1785L46.9502 12.6335ZM47.5642 12.02C47.4093 12.1753 47.3315 12.3522 47.2916 12.4967C47.2532 12.6353 47.2439 12.7649 47.2406 12.8531C47.2376 12.9313 47.2386 13.0384 47.2383 13.0748C47.2381 13.1018 47.2375 13.1206 47.2366 13.1348C47.2358 13.149 47.2349 13.1534 47.2353 13.1511C47.2355 13.1502 47.244 13.094 47.291 13.0228C47.3458 12.9397 47.4239 12.8799 47.5006 12.8491C47.5643 12.8235 47.5947 12.831 47.5563 12.8296C47.5192 12.8283 47.4434 12.8197 47.3149 12.7875L46.9504 14.2426C47.3025 14.3308 47.7022 14.3844 48.0589 14.2413C48.5187 14.0569 48.6713 13.6611 48.7151 13.3962C48.7351 13.2759 48.7376 13.1625 48.7382 13.088C48.7391 12.991 48.7375 12.9624 48.7395 12.9098C48.744 12.7897 48.7667 12.9385 48.6262 13.0793L47.5642 12.02ZM47.3149 12.7875C47.109 12.7359 46.8824 12.7031 46.6579 12.7346C46.4106 12.7692 46.1551 12.8858 45.9753 13.1259C45.8133 13.3422 45.7773 13.575 45.7686 13.7187C45.7598 13.8653 45.7754 14.0041 45.7861 14.0904C45.8003 14.2044 45.8069 14.2392 45.8108 14.2894C45.8152 14.3456 45.8005 14.2783 45.8373 14.1729C45.8603 14.107 45.9072 14.0148 45.9979 13.9313C46.0909 13.8457 46.1944 13.8023 46.2795 13.7843C46.4183 13.7551 46.4886 13.7964 46.4069 13.7691L45.9315 15.1918C46.0906 15.245 46.3314 15.3064 46.5893 15.252C46.734 15.2215 46.8842 15.1542 47.0135 15.0352C47.1404 14.9185 47.2129 14.7835 47.2535 14.6674C47.3254 14.4614 47.3133 14.2633 47.3063 14.1738C47.299 14.0781 47.2805 13.952 47.2746 13.9051C47.2654 13.8306 47.266 13.8084 47.2659 13.8092C47.2657 13.813 47.2641 13.8368 47.2535 13.8729C47.2425 13.9103 47.2202 13.9659 47.176 14.0249C46.9478 14.3297 46.6529 14.168 46.9504 14.2426L47.3149 12.7875ZM46.4069 13.7691C46.2829 13.7277 46.1294 13.6813 45.9825 13.6685C45.9188 13.663 45.7517 13.6523 45.5685 13.7303C45.464 13.7748 45.3454 13.8522 45.2498 13.9792C45.1534 14.107 45.1108 14.2448 45.0978 14.3627C45.0751 14.5672 45.1393 14.7261 45.1595 14.7748C45.1874 14.8419 45.2198 14.8975 45.2379 14.9279C45.2574 14.9605 45.2789 14.9938 45.2916 15.0136C45.3069 15.0375 45.3167 15.0529 45.325 15.0668C45.3462 15.1021 45.3322 15.0865 45.3191 15.04C45.3052 14.9909 45.2688 14.8209 45.3706 14.628C45.473 14.4341 45.6307 14.3768 45.6563 14.3686C45.6799 14.3611 45.6514 14.3741 45.5272 14.3741V15.8741C45.724 15.8741 45.9262 15.8569 46.1116 15.7978C46.299 15.7381 46.5494 15.6079 46.697 15.3285C46.844 15.0502 46.805 14.7821 46.7623 14.6312C46.7203 14.4829 46.6512 14.3617 46.6121 14.2964C46.5903 14.26 46.5688 14.2264 46.5542 14.2037C46.5369 14.1767 46.5299 14.1657 46.525 14.1575C46.5187 14.147 46.5306 14.1652 46.5449 14.1995C46.5515 14.2154 46.6088 14.346 46.5886 14.5279C46.5768 14.6344 46.5378 14.7623 46.4478 14.8818C46.3584 15.0004 46.2488 15.071 46.1563 15.1104C45.9971 15.1782 45.866 15.1641 45.8531 15.1629C45.8078 15.159 45.8147 15.1528 45.9315 15.1918L46.4069 13.7691ZM45.5272 14.3741C44.9321 14.3741 44.3341 14.3683 43.9004 14.477C43.6653 14.5359 43.3808 14.6494 43.1604 14.898C42.9267 15.1616 42.8512 15.4778 42.8512 15.7677H44.3512C44.3512 15.7358 44.3559 15.8107 44.2827 15.8932C44.2228 15.9608 44.1791 15.9536 44.265 15.932C44.3502 15.9107 44.4898 15.8929 44.7159 15.8835C44.9377 15.8742 45.2013 15.8741 45.5272 15.8741V14.3741ZM42.8512 15.7677C42.8512 16.2208 43.0923 16.5306 43.304 16.7152C43.4901 16.8775 43.7265 17.0027 43.8303 17.0621C43.9942 17.156 43.9816 17.1662 43.9486 17.1221C43.9162 17.0788 43.8742 16.9994 43.8668 16.8935C43.8597 16.7923 43.8887 16.7289 43.893 16.7202L45.2353 17.3897C45.32 17.22 45.379 17.0158 45.3632 16.789C45.347 16.5574 45.2573 16.3674 45.1497 16.2235C44.9662 15.9782 44.6928 15.8275 44.5759 15.7605C44.3987 15.6591 44.3342 15.6233 44.2896 15.5845C44.2706 15.5679 44.3512 15.6364 44.3512 15.7677H42.8512ZM43.893 16.7202C43.9662 16.5735 44.0644 16.5803 43.9296 16.6238C43.8218 16.6586 43.6505 16.6873 43.422 16.7004C42.9705 16.7262 42.4452 16.6834 42.1025 16.6343L41.8898 18.1192C42.2961 18.1774 42.9264 18.2311 43.5075 18.1979C43.7952 18.1815 44.1095 18.1419 44.3902 18.0513C44.644 17.9694 45.0338 17.7938 45.2353 17.3897L43.893 16.7202ZM41.6601 16.7063C41.3356 16.8689 41.0782 17.2062 40.9068 17.6013C40.7244 18.0218 40.6041 18.5829 40.6041 19.3076H42.1041C42.1041 18.7451 42.1979 18.3944 42.283 18.1981C42.3791 17.9764 42.4427 17.9919 42.3322 18.0472L41.6601 16.7063ZM40.6576 19.0297C40.3724 19.7444 40.2792 20.3315 40.3368 20.8059C40.3923 21.2635 40.6088 21.7038 41.0181 21.9089L41.6902 20.568C41.8855 20.6658 41.8452 20.7844 41.8258 20.6251C41.8085 20.4827 41.8223 20.1581 42.0507 19.5855L40.6576 19.0297ZM41.3541 21.9884C41.3548 21.9884 41.3554 21.9884 41.356 21.9884C41.3567 21.9884 41.3573 21.9884 41.3579 21.9884C41.3586 21.9884 41.3592 21.9884 41.3598 21.9884C41.3605 21.9884 41.3611 21.9884 41.3617 21.9884C41.3624 21.9884 41.363 21.9884 41.3637 21.9884C41.3643 21.9884 41.3649 21.9884 41.3656 21.9884C41.3662 21.9884 41.3669 21.9884 41.3675 21.9884C41.3682 21.9884 41.3688 21.9884 41.3695 21.9884C41.3701 21.9884 41.3708 21.9884 41.3714 21.9884C41.3721 21.9884 41.3727 21.9884 41.3734 21.9884C41.374 21.9884 41.3747 21.9884 41.3754 21.9884C41.376 21.9884 41.3767 21.9884 41.3773 21.9884C41.378 21.9884 41.3787 21.9884 41.3793 21.9884C41.38 21.9884 41.3807 21.9884 41.3813 21.9884C41.382 21.9884 41.3827 21.9884 41.3833 21.9884C41.384 21.9884 41.3847 21.9884 41.3853 21.9884C41.386 21.9884 41.3867 21.9884 41.3874 21.9884C41.388 21.9884 41.3887 21.9884 41.3894 21.9884C41.3901 21.9884 41.3907 21.9884 41.3914 21.9884C41.3921 21.9884 41.3928 21.9884 41.3935 21.9884C41.3942 21.9884 41.3948 21.9884 41.3955 21.9884C41.3962 21.9884 41.3969 21.9884 41.3976 21.9884C41.3983 21.9884 41.399 21.9884 41.3997 21.9884C41.4003 21.9884 41.401 21.9884 41.4017 21.9884C41.4024 21.9884 41.4031 21.9884 41.4038 21.9884C41.4045 21.9884 41.4052 21.9884 41.4059 21.9884C41.4066 21.9884 41.4073 21.9884 41.408 21.9884C41.4087 21.9884 41.4094 21.9884 41.4101 21.9884C41.4108 21.9884 41.4115 21.9884 41.4122 21.9884C41.4129 21.9884 41.4137 21.9884 41.4144 21.9884C41.4151 21.9884 41.4158 21.9884 41.4165 21.9884C41.4172 21.9884 41.4179 21.9884 41.4186 21.9884C41.4193 21.9884 41.4201 21.9884 41.4208 21.9884C41.4215 21.9884 41.4222 21.9884 41.4229 21.9884C41.4237 21.9884 41.4244 21.9884 41.4251 21.9884C41.4258 21.9884 41.4265 21.9884 41.4273 21.9884C41.428 21.9884 41.4287 21.9884 41.4294 21.9884C41.4302 21.9884 41.4309 21.9884 41.4316 21.9884C41.4324 21.9884 41.4331 21.9884 41.4338 21.9884C41.4346 21.9884 41.4353 21.9884 41.436 21.9884C41.4368 21.9884 41.4375 21.9884 41.4382 21.9884C41.439 21.9884 41.4397 21.9884 41.4404 21.9884C41.4412 21.9884 41.4419 21.9884 41.4427 21.9884C41.4434 21.9884 41.4441 21.9884 41.4449 21.9884C41.4456 21.9884 41.4464 21.9884 41.4471 21.9884C41.4479 21.9884 41.4486 21.9884 41.4494 21.9884C41.4501 21.9884 41.4509 21.9884 41.4516 21.9884C41.4524 21.9884 41.4531 21.9884 41.4539 21.9884C41.4546 21.9884 41.4554 21.9884 41.4561 21.9884C41.4569 21.9884 41.4577 21.9884 41.4584 21.9884C41.4592 21.9884 41.4599 21.9884 41.4607 21.9884C41.4615 21.9884 41.4622 21.9884 41.463 21.9884C41.4637 21.9884 41.4645 21.9884 41.4653 21.9884C41.466 21.9884 41.4668 21.9884 41.4676 21.9884C41.4683 21.9884 41.4691 21.9884 41.4699 21.9884C41.4706 21.9884 41.4714 21.9884 41.4722 21.9884C41.473 21.9884 41.4737 21.9884 41.4745 21.9884C41.4753 21.9884 41.4761 21.9884 41.4768 21.9884C41.4776 21.9884 41.4784 21.9884 41.4792 21.9884C41.4799 21.9884 41.4807 21.9884 41.4815 21.9884C41.4823 21.9884 41.4831 21.9884 41.4838 21.9884C41.4846 21.9884 41.4854 21.9884 41.4862 21.9884C41.487 21.9884 41.4878 21.9884 41.4886 21.9884C41.4893 21.9884 41.4901 21.9884 41.4909 21.9884C41.4917 21.9884 41.4925 21.9884 41.4933 21.9884C41.4941 21.9884 41.4949 21.9884 41.4957 21.9884C41.4965 21.9884 41.4973 21.9884 41.4981 21.9884C41.4989 21.9884 41.4996 21.9884 41.5004 21.9884C41.5012 21.9884 41.502 21.9884 41.5028 21.9884C41.5036 21.9884 41.5044 21.9884 41.5052 21.9884C41.506 21.9884 41.5069 21.9884 41.5077 21.9884C41.5085 21.9884 41.5093 21.9884 41.5101 21.9884C41.5109 21.9884 41.5117 21.9884 41.5125 21.9884C41.5133 21.9884 41.5141 21.9884 41.5149 21.9884C41.5157 21.9884 41.5165 21.9884 41.5174 21.9884C41.5182 21.9884 41.519 21.9884 41.5198 21.9884C41.5206 21.9884 41.5214 21.9884 41.5222 21.9884C41.5231 21.9884 41.5239 21.9884 41.5247 21.9884C41.5255 21.9884 41.5263 21.9884 41.5271 21.9884C41.528 21.9884 41.5288 21.9884 41.5296 21.9884C41.5304 21.9884 41.5313 21.9884 41.5321 21.9884C41.5329 21.9884 41.5337 21.9884 41.5346 21.9884C41.5354 21.9884 41.5362 21.9884 41.537 21.9884C41.5379 21.9884 41.5387 21.9884 41.5395 21.9884C41.5404 21.9884 41.5412 21.9884 41.542 21.9884C41.5428 21.9884 41.5437 21.9884 41.5445 21.9884C41.5453 21.9884 41.5462 21.9884 41.547 21.9884C41.5479 21.9884 41.5487 21.9884 41.5495 21.9884C41.5504 21.9884 41.5512 21.9884 41.552 21.9884C41.5529 21.9884 41.5537 21.9884 41.5546 21.9884C41.5554 21.9884 41.5562 21.9884 41.5571 21.9884C41.5579 21.9884 41.5588 21.9884 41.5596 21.9884C41.5605 21.9884 41.5613 21.9884 41.5622 21.9884C41.563 21.9884 41.5638 21.9884 41.5647 21.9884C41.5655 21.9884 41.5664 21.9884 41.5672 21.9884C41.5681 21.9884 41.5689 21.9884 41.5698 21.9884C41.5706 21.9884 41.5715 21.9884 41.5724 21.9884C41.5732 21.9884 41.5741 21.9884 41.5749 21.9884C41.5758 21.9884 41.5766 21.9884 41.5775 21.9884C41.5783 21.9884 41.5792 21.9884 41.5801 21.9884C41.5809 21.9884 41.5818 21.9884 41.5826 21.9884C41.5835 21.9884 41.5844 21.9884 41.5852 21.9884C41.5861 21.9884 41.5869 21.9884 41.5878 21.9884C41.5887 21.9884 41.5895 21.9884 41.5904 21.9884C41.5913 21.9884 41.5921 21.9884 41.593 21.9884C41.5939 21.9884 41.5947 21.9884 41.5956 21.9884C41.5965 21.9884 41.5973 21.9884 41.5982 21.9884C41.5991 21.9884 41.5999 21.9884 41.6008 21.9884C41.6017 21.9884 41.6026 21.9884 41.6034 21.9884C41.6043 21.9884 41.6052 21.9884 41.6061 21.9884C41.6069 21.9884 41.6078 21.9884 41.6087 21.9884C41.6096 21.9884 41.6104 21.9884 41.6113 21.9884C41.6122 21.9884 41.6131 21.9884 41.614 21.9884C41.6148 21.9884 41.6157 21.9884 41.6166 21.9884C41.6175 21.9884 41.6184 21.9884 41.6192 21.9884C41.6201 21.9884 41.621 21.9884 41.6219 21.9884C41.6228 21.9884 41.6237 21.9884 41.6245 21.9884C41.6254 21.9884 41.6263 21.9884 41.6272 21.9884C41.6281 21.9884 41.629 21.9884 41.6299 21.9884C41.6308 21.9884 41.6316 21.9884 41.6325 21.9884C41.6334 21.9884 41.6343 21.9884 41.6352 21.9884C41.6361 21.9884 41.637 21.9884 41.6379 21.9884C41.6388 21.9884 41.6397 21.9884 41.6406 21.9884C41.6415 21.9884 41.6424 21.9884 41.6432 21.9884C41.6441 21.9884 41.645 21.9884 41.6459 21.9884C41.6468 21.9884 41.6477 21.9884 41.6486 21.9884C41.6495 21.9884 41.6504 21.9884 41.6513 21.9884C41.6522 21.9884 41.6531 21.9884 41.654 21.9884C41.6549 21.9884 41.6558 21.9884 41.6567 21.9884C41.6576 21.9884 41.6585 21.9884 41.6594 21.9884C41.6603 21.9884 41.6612 21.9884 41.6622 21.9884C41.6631 21.9884 41.664 21.9884 41.6649 21.9884C41.6658 21.9884 41.6667 21.9884 41.6676 21.9884C41.6685 21.9884 41.6694 21.9884 41.6703 21.9884C41.6712 21.9884 41.6721 21.9884 41.673 21.9884C41.674 21.9884 41.6749 21.9884 41.6758 21.9884C41.6767 21.9884 41.6776 21.9884 41.6785 21.9884C41.6794 21.9884 41.6803 21.9884 41.6813 21.9884C41.6822 21.9884 41.6831 21.9884 41.684 21.9884C41.6849 21.9884 41.6858 21.9884 41.6867 21.9884C41.6877 21.9884 41.6886 21.9884 41.6895 21.9884C41.6904 21.9884 41.6913 21.9884 41.6923 21.9884C41.6932 21.9884 41.6941 21.9884 41.695 21.9884C41.6959 21.9884 41.6968 21.9884 41.6978 21.9884C41.6987 21.9884 41.6996 21.9884 41.7005 21.9884C41.7015 21.9884 41.7024 21.9884 41.7033 21.9884C41.7042 21.9884 41.7052 21.9884 41.7061 21.9884C41.707 21.9884 41.7079 21.9884 41.7089 21.9884C41.7098 21.9884 41.7107 21.9884 41.7116 21.9884C41.7126 21.9884 41.7135 21.9884 41.7144 21.9884C41.7153 21.9884 41.7163 21.9884 41.7172 21.9884C41.7181 21.9884 41.7191 21.9884 41.72 21.9884C41.7209 21.9884 41.7218 21.9884 41.7228 21.9884C41.7237 21.9884 41.7246 21.9884 41.7256 21.9884C41.7265 21.9884 41.7274 21.9884 41.7284 21.9884C41.7293 21.9884 41.7302 21.9884 41.7312 21.9884C41.7321 21.9884 41.733 21.9884 41.734 21.9884C41.7349 21.9884 41.7358 21.9884 41.7368 21.9884C41.7377 21.9884 41.7386 21.9884 41.7396 21.9884C41.7405 21.9884 41.7415 21.9884 41.7424 21.9884C41.7433 21.9884 41.7443 21.9884 41.7452 21.9884C41.7461 21.9884 41.7471 21.9884 41.748 21.9884C41.749 21.9884 41.7499 21.9884 41.7508 21.9884C41.7518 21.9884 41.7527 21.9884 41.7537 21.9884C41.7546 21.9884 41.7556 21.9884 41.7565 21.9884C41.7574 21.9884 41.7584 21.9884 41.7593 21.9884C41.7603 21.9884 41.7612 21.9884 41.7622 21.9884C41.7631 21.9884 41.764 21.9884 41.765 21.9884C41.7659 21.9884 41.7669 21.9884 41.7678 21.9884C41.7688 21.9884 41.7697 21.9884 41.7707 21.9884C41.7716 21.9884 41.7726 21.9884 41.7735 21.9884C41.7745 21.9884 41.7754 21.9884 41.7764 21.9884C41.7773 21.9884 41.7782 21.9884 41.7792 21.9884C41.7801 21.9884 41.7811 21.9884 41.782 21.9884C41.783 21.9884 41.7839 21.9884 41.7849 21.9884C41.7858 21.9884 41.7868 21.9884 41.7878 21.9884C41.7887 21.9884 41.7897 21.9884 41.7906 21.9884C41.7916 21.9884 41.7925 21.9884 41.7935 21.9884C41.7944 21.9884 41.7954 21.9884 41.7963 21.9884C41.7973 21.9884 41.7982 21.9884 41.7992 21.9884C41.8001 21.9884 41.8011 21.9884 41.802 21.9884C41.803 21.9884 41.804 21.9884 41.8049 21.9884C41.8059 21.9884 41.8068 21.9884 41.8078 21.9884C41.8087 21.9884 41.8097 21.9884 41.8107 21.9884C41.8116 21.9884 41.8126 21.9884 41.8135 21.9884C41.8145 21.9884 41.8154 21.9884 41.8164 21.9884C41.8174 21.9884 41.8183 21.9884 41.8193 21.9884C41.8202 21.9884 41.8212 21.9884 41.8222 21.9884C41.8231 21.9884 41.8241 21.9884 41.825 21.9884C41.826 21.9884 41.827 21.9884 41.8279 21.9884C41.8289 21.9884 41.8298 21.9884 41.8308 21.9884C41.8318 21.9884 41.8327 21.9884 41.8337 21.9884C41.8346 21.9884 41.8356 21.9884 41.8366 21.9884C41.8375 21.9884 41.8385 21.9884 41.8395 21.9884C41.8404 21.9884 41.8414 21.9884 41.8423 21.9884C41.8433 21.9884 41.8443 21.9884 41.8452 21.9884C41.8462 21.9884 41.8472 21.9884 41.8481 21.9884C41.8491 21.9884 41.8501 21.9884 41.851 21.9884C41.852 21.9884 41.853 21.9884 41.8539 21.9884C41.8549 21.9884 41.8558 21.9884 41.8568 21.9884C41.8578 21.9884 41.8587 21.9884 41.8597 21.9884C41.8607 21.9884 41.8616 21.9884 41.8626 21.9884C41.8636 21.9884 41.8645 21.9884 41.8655 21.9884C41.8665 21.9884 41.8674 21.9884 41.8684 21.9884C41.8694 21.9884 41.8703 21.9884 41.8713 21.9884C41.8723 21.9884 41.8733 21.9884 41.8742 21.9884C41.8752 21.9884 41.8762 21.9884 41.8771 21.9884C41.8781 21.9884 41.8791 21.9884 41.88 21.9884C41.881 21.9884 41.882 21.9884 41.8829 21.9884C41.8839 21.9884 41.8849 21.9884 41.8859 21.9884C41.8868 21.9884 41.8878 21.9884 41.8888 21.9884C41.8897 21.9884 41.8907 21.9884 41.8917 21.9884C41.8926 21.9884 41.8936 21.9884 41.8946 21.9884C41.8956 21.9884 41.8965 21.9884 41.8975 21.9884C41.8985 21.9884 41.8994 21.9884 41.9004 21.9884C41.9014 21.9884 41.9024 21.9884 41.9033 21.9884C41.9043 21.9884 41.9053 21.9884 41.9062 21.9884C41.9072 21.9884 41.9082 21.9884 41.9092 21.9884C41.9101 21.9884 41.9111 21.9884 41.9121 21.9884C41.913 21.9884 41.914 21.9884 41.915 21.9884C41.916 21.9884 41.9169 21.9884 41.9179 21.9884C41.9189 21.9884 41.9198 21.9884 41.9208 21.9884C41.9218 21.9884 41.9228 21.9884 41.9237 21.9884C41.9247 21.9884 41.9257 21.9884 41.9267 21.9884C41.9276 21.9884 41.9286 21.9884 41.9296 21.9884C41.9306 21.9884 41.9315 21.9884 41.9325 21.9884C41.9335 21.9884 41.9344 21.9884 41.9354 21.9884C41.9364 21.9884 41.9374 21.9884 41.9383 21.9884C41.9393 21.9884 41.9403 21.9884 41.9413 21.9884C41.9422 21.9884 41.9432 21.9884 41.9442 21.9884C41.9452 21.9884 41.9461 21.9884 41.9471 21.9884C41.9481 21.9884 41.949 21.9884 41.95 21.9884C41.951 21.9884 41.952 21.9884 41.9529 21.9884C41.9539 21.9884 41.9549 21.9884 41.9559 21.9884C41.9568 21.9884 41.9578 21.9884 41.9588 21.9884C41.9598 21.9884 41.9607 21.9884 41.9617 21.9884C41.9627 21.9884 41.9637 21.9884 41.9646 21.9884C41.9656 21.9884 41.9666 21.9884 41.9676 21.9884C41.9685 21.9884 41.9695 21.9884 41.9705 21.9884C41.9715 21.9884 41.9724 21.9884 41.9734 21.9884C41.9744 21.9884 41.9753 21.9884 41.9763 21.9884C41.9773 21.9884 41.9783 21.9884 41.9792 21.9884C41.9802 21.9884 41.9812 21.9884 41.9822 21.9884C41.9831 21.9884 41.9841 21.9884 41.9851 21.9884C41.9861 21.9884 41.987 21.9884 41.988 21.9884C41.989 21.9884 41.99 21.9884 41.9909 21.9884C41.9919 21.9884 41.9929 21.9884 41.9938 21.9884C41.9948 21.9884 41.9958 21.9884 41.9968 21.9884C41.9977 21.9884 41.9987 21.9884 41.9997 21.9884C42.0007 21.9884 42.0016 21.9884 42.0026 21.9884C42.0036 21.9884 42.0046 21.9884 42.0055 21.9884C42.0065 21.9884 42.0075 21.9884 42.0084 21.9884C42.0094 21.9884 42.0104 21.9884 42.0114 21.9884C42.0123 21.9884 42.0133 21.9884 42.0143 21.9884C42.0152 21.9884 42.0162 21.9884 42.0172 21.9884C42.0182 21.9884 42.0191 21.9884 42.0201 21.9884C42.0211 21.9884 42.022 21.9884 42.023 21.9884C42.024 21.9884 42.025 21.9884 42.0259 21.9884C42.0269 21.9884 42.0279 21.9884 42.0288 21.9884C42.0298 21.9884 42.0308 21.9884 42.0318 21.9884C42.0327 21.9884 42.0337 21.9884 42.0347 21.9884C42.0356 21.9884 42.0366 21.9884 42.0376 21.9884C42.0386 21.9884 42.0395 21.9884 42.0405 21.9884C42.0415 21.9884 42.0424 21.9884 42.0434 21.9884C42.0444 21.9884 42.0453 21.9884 42.0463 21.9884C42.0473 21.9884 42.0482 21.9884 42.0492 21.9884C42.0502 21.9884 42.0511 21.9884 42.0521 21.9884C42.0531 21.9884 42.0541 21.9884 42.055 21.9884C42.056 21.9884 42.057 21.9884 42.0579 21.9884C42.0589 21.9884 42.0599 21.9884 42.0608 21.9884C42.0618 21.9884 42.0628 21.9884 42.0637 21.9884C42.0647 21.9884 42.0657 21.9884 42.0666 21.9884C42.0676 21.9884 42.0686 21.9884 42.0695 21.9884C42.0705 21.9884 42.0715 21.9884 42.0724 21.9884C42.0734 21.9884 42.0743 21.9884 42.0753 21.9884C42.0763 21.9884 42.0772 21.9884 42.0782 21.9884C42.0792 21.9884 42.0801 21.9884 42.0811 21.9884C42.0821 21.9884 42.083 21.9884 42.084 21.9884C42.085 21.9884 42.0859 21.9884 42.0869 21.9884C42.0878 21.9884 42.0888 21.9884 42.0898 21.9884C42.0907 21.9884 42.0917 21.9884 42.0927 21.9884C42.0936 21.9884 42.0946 21.9884 42.0955 21.9884C42.0965 21.9884 42.0975 21.9884 42.0984 21.9884C42.0994 21.9884 42.1003 21.9884 42.1013 21.9884C42.1023 21.9884 42.1032 21.9884 42.1042 21.9884C42.1051 21.9884 42.1061 21.9884 42.1071 21.9884C42.108 21.9884 42.109 21.9884 42.1099 21.9884C42.1109 21.9884 42.1118 21.9884 42.1128 21.9884C42.1138 21.9884 42.1147 21.9884 42.1157 21.9884C42.1166 21.9884 42.1176 21.9884 42.1185 21.9884C42.1195 21.9884 42.1205 21.9884 42.1214 21.9884C42.1224 21.9884 42.1233 21.9884 42.1243 21.9884C42.1252 21.9884 42.1262 21.9884 42.1271 21.9884C42.1281 21.9884 42.129 21.9884 42.13 21.9884C42.131 21.9884 42.1319 21.9884 42.1329 21.9884C42.1338 21.9884 42.1348 21.9884 42.1357 21.9884C42.1367 21.9884 42.1376 21.9884 42.1386 21.9884C42.1395 21.9884 42.1405 21.9884 42.1414 21.9884C42.1424 21.9884 42.1433 21.9884 42.1443 21.9884C42.1452 21.9884 42.1462 21.9884 42.1471 21.9884C42.1481 21.9884 42.149 21.9884 42.15 21.9884C42.1509 21.9884 42.1519 21.9884 42.1528 21.9884C42.1538 21.9884 42.1547 21.9884 42.1556 21.9884C42.1566 21.9884 42.1575 21.9884 42.1585 21.9884C42.1594 21.9884 42.1604 21.9884 42.1613 21.9884C42.1623 21.9884 42.1632 21.9884 42.1642 21.9884C42.1651 21.9884 42.166 21.9884 42.167 21.9884C42.1679 21.9884 42.1689 21.9884 42.1698 21.9884C42.1708 21.9884 42.1717 21.9884 42.1726 21.9884C42.1736 21.9884 42.1745 21.9884 42.1755 21.9884C42.1764 21.9884 42.1773 21.9884 42.1783 21.9884C42.1792 21.9884 42.1802 21.9884 42.1811 21.9884C42.182 21.9884 42.183 21.9884 42.1839 21.9884C42.1848 21.9884 42.1858 21.9884 42.1867 21.9884C42.1877 21.9884 42.1886 21.9884 42.1895 21.9884C42.1905 21.9884 42.1914 21.9884 42.1923 21.9884C42.1933 21.9884 42.1942 21.9884 42.1951 21.9884C42.1961 21.9884 42.197 21.9884 42.1979 21.9884C42.1989 21.9884 42.1998 21.9884 42.2007 21.9884C42.2017 21.9884 42.2026 21.9884 42.2035 21.9884C42.2045 21.9884 42.2054 21.9884 42.2063 21.9884C42.2072 21.9884 42.2082 21.9884 42.2091 21.9884C42.21 21.9884 42.211 21.9884 42.2119 21.9884C42.2128 21.9884 42.2137 21.9884 42.2147 21.9884C42.2156 21.9884 42.2165 21.9884 42.2174 21.9884C42.2184 21.9884 42.2193 21.9884 42.2202 21.9884C42.2211 21.9884 42.2221 21.9884 42.223 21.9884C42.2239 21.9884 42.2248 21.9884 42.2258 21.9884C42.2267 21.9884 42.2276 21.9884 42.2285 21.9884C42.2294 21.9884 42.2304 21.9884 42.2313 21.9884C42.2322 21.9884 42.2331 21.9884 42.234 21.9884C42.235 21.9884 42.2359 21.9884 42.2368 21.9884C42.2377 21.9884 42.2386 21.9884 42.2395 21.9884C42.2405 21.9884 42.2414 21.9884 42.2423 21.9884C42.2432 21.9884 42.2441 21.9884 42.245 21.9884C42.2459 21.9884 42.2469 21.9884 42.2478 21.9884C42.2487 21.9884 42.2496 21.9884 42.2505 21.9884C42.2514 21.9884 42.2523 21.9884 42.2532 21.9884C42.2541 21.9884 42.2551 21.9884 42.256 21.9884C42.2569 21.9884 42.2578 21.9884 42.2587 21.9884C42.2596 21.9884 42.2605 21.9884 42.2614 21.9884C42.2623 21.9884 42.2632 21.9884 42.2641 21.9884C42.265 21.9884 42.2659 21.9884 42.2668 21.9884C42.2677 21.9884 42.2686 21.9884 42.2695 21.9884C42.2704 21.9884 42.2713 21.9884 42.2722 21.9884C42.2731 21.9884 42.274 21.9884 42.2749 21.9884C42.2758 21.9884 42.2767 21.9884 42.2776 21.9884C42.2785 21.9884 42.2794 21.9884 42.2803 21.9884C42.2812 21.9884 42.2821 21.9884 42.283 21.9884C42.2839 21.9884 42.2848 21.9884 42.2857 21.9884C42.2866 21.9884 42.2875 21.9884 42.2884 21.9884C42.2893 21.9884 42.2902 21.9884 42.2911 21.9884C42.2919 21.9884 42.2928 21.9884 42.2937 21.9884C42.2946 21.9884 42.2955 21.9884 42.2964 21.9884C42.2973 21.9884 42.2982 21.9884 42.2991 21.9884C42.2999 21.9884 42.3008 21.9884 42.3017 21.9884C42.3026 21.9884 42.3035 21.9884 42.3044 21.9884C42.3052 21.9884 42.3061 21.9884 42.307 21.9884C42.3079 21.9884 42.3088 21.9884 42.3097 21.9884C42.3105 21.9884 42.3114 21.9884 42.3123 21.9884C42.3132 21.9884 42.314 21.9884 42.3149 21.9884C42.3158 21.9884 42.3167 21.9884 42.3176 21.9884C42.3184 21.9884 42.3193 21.9884 42.3202 21.9884C42.3211 21.9884 42.3219 21.9884 42.3228 21.9884C42.3237 21.9884 42.3245 21.9884 42.3254 21.9884C42.3263 21.9884 42.3272 21.9884 42.328 21.9884C42.3289 21.9884 42.3298 21.9884 42.3306 21.9884C42.3315 21.9884 42.3324 21.9884 42.3332 21.9884C42.3341 21.9884 42.335 21.9884 42.3358 21.9884C42.3367 21.9884 42.3376 21.9884 42.3384 21.9884C42.3393 21.9884 42.3401 21.9884 42.341 21.9884C42.3419 21.9884 42.3427 21.9884 42.3436 21.9884C42.3444 21.9884 42.3453 21.9884 42.3462 21.9884C42.347 21.9884 42.3479 21.9884 42.3487 21.9884C42.3496 21.9884 42.3504 21.9884 42.3513 21.9884C42.3522 21.9884 42.353 21.9884 42.3539 21.9884C42.3547 21.9884 42.3556 21.9884 42.3564 21.9884C42.3573 21.9884 42.3581 21.9884 42.359 21.9884C42.3598 21.9884 42.3607 21.9884 42.3615 21.9884C42.3624 21.9884 42.3632 21.9884 42.3641 21.9884C42.3649 21.9884 42.3657 21.9884 42.3666 21.9884C42.3674 21.9884 42.3683 21.9884 42.3691 21.9884C42.37 21.9884 42.3708 21.9884 42.3716 21.9884C42.3725 21.9884 42.3733 21.9884 42.3742 21.9884C42.375 21.9884 42.3758 21.9884 42.3767 21.9884C42.3775 21.9884 42.3783 21.9884 42.3792 21.9884C42.38 21.9884 42.3808 21.9884 42.3817 21.9884C42.3825 21.9884 42.3833 21.9884 42.3842 21.9884C42.385 21.9884 42.3858 21.9884 42.3867 21.9884C42.3875 21.9884 42.3883 21.9884 42.3892 21.9884C42.39 21.9884 42.3908 21.9884 42.3916 21.9884C42.3925 21.9884 42.3933 21.9884 42.3941 21.9884C42.3949 21.9884 42.3958 21.9884 42.3966 21.9884C42.3974 21.9884 42.3982 21.9884 42.399 21.9884C42.3999 21.9884 42.4007 21.9884 42.4015 21.9884C42.4023 21.9884 42.4031 21.9884 42.4039 21.9884C42.4048 21.9884 42.4056 21.9884 42.4064 21.9884C42.4072 21.9884 42.408 21.9884 42.4088 21.9884C42.4096 21.9884 42.4104 21.9884 42.4113 21.9884C42.4121 21.9884 42.4129 21.9884 42.4137 21.9884C42.4145 21.9884 42.4153 21.9884 42.4161 21.9884C42.4169 21.9884 42.4177 21.9884 42.4185 21.9884C42.4193 21.9884 42.4201 21.9884 42.4209 21.9884C42.4217 21.9884 42.4225 21.9884 42.4233 21.9884C42.4241 21.9884 42.4249 21.9884 42.4257 21.9884C42.4265 21.9884 42.4273 21.9884 42.4281 21.9884C42.4289 21.9884 42.4297 21.9884 42.4305 21.9884C42.4313 21.9884 42.4321 21.9884 42.4329 21.9884C42.4336 21.9884 42.4344 21.9884 42.4352 21.9884C42.436 21.9884 42.4368 21.9884 42.4376 21.9884C42.4384 21.9884 42.4392 21.9884 42.4399 21.9884C42.4407 21.9884 42.4415 21.9884 42.4423 21.9884C42.4431 21.9884 42.4439 21.9884 42.4446 21.9884C42.4454 21.9884 42.4462 21.9884 42.447 21.9884C42.4478 21.9884 42.4485 21.9884 42.4493 21.9884C42.4501 21.9884 42.4509 21.9884 42.4516 21.9884C42.4524 21.9884 42.4532 21.9884 42.4539 21.9884C42.4547 21.9884 42.4555 21.9884 42.4563 21.9884C42.457 21.9884 42.4578 21.9884 42.4586 21.9884C42.4593 21.9884 42.4601 21.9884 42.4609 21.9884C42.4616 21.9884 42.4624 21.9884 42.4631 21.9884C42.4639 21.9884 42.4647 21.9884 42.4654 21.9884C42.4662 21.9884 42.4669 21.9884 42.4677 21.9884C42.4685 21.9884 42.4692 21.9884 42.47 21.9884C42.4707 21.9884 42.4715 21.9884 42.4722 21.9884C42.473 21.9884 42.4737 21.9884 42.4745 21.9884C42.4752 21.9884 42.476 21.9884 42.4767 21.9884C42.4775 21.9884 42.4782 21.9884 42.479 21.9884C42.4797 21.9884 42.4805 21.9884 42.4812 21.9884C42.482 21.9884 42.4827 21.9884 42.4834 21.9884C42.4842 21.9884 42.4849 21.9884 42.4857 21.9884C42.4864 21.9884 42.4871 21.9884 42.4879 21.9884C42.4886 21.9884 42.4893 21.9884 42.4901 21.9884C42.4908 21.9884 42.4915 21.9884 42.4923 21.9884C42.493 21.9884 42.4937 21.9884 42.4945 21.9884C42.4952 21.9884 42.4959 21.9884 42.4966 21.9884C42.4974 21.9884 42.4981 21.9884 42.4988 21.9884C42.4995 21.9884 42.5003 21.9884 42.501 21.9884C42.5017 21.9884 42.5024 21.9884 42.5031 21.9884C42.5039 21.9884 42.5046 21.9884 42.5053 21.9884C42.506 21.9884 42.5067 21.9884 42.5074 21.9884C42.5082 21.9884 42.5089 21.9884 42.5096 21.9884C42.5103 21.9884 42.511 21.9884 42.5117 21.9884C42.5124 21.9884 42.5131 21.9884 42.5138 21.9884C42.5145 21.9884 42.5152 21.9884 42.5159 21.9884C42.5166 21.9884 42.5173 21.9884 42.518 21.9884C42.5187 21.9884 42.5194 21.9884 42.5201 21.9884C42.5208 21.9884 42.5215 21.9884 42.5222 21.9884C42.5229 21.9884 42.5236 21.9884 42.5243 21.9884C42.525 21.9884 42.5257 21.9884 42.5264 21.9884C42.5271 21.9884 42.5278 21.9884 42.5285 21.9884C42.5291 21.9884 42.5298 21.9884 42.5305 21.9884C42.5312 21.9884 42.5319 21.9884 42.5326 21.9884C42.5332 21.9884 42.5339 21.9884 42.5346 21.9884C42.5353 21.9884 42.536 21.9884 42.5366 21.9884C42.5373 21.9884 42.538 21.9884 42.5387 21.9884C42.5393 21.9884 42.54 21.9884 42.5407 21.9884C42.5414 21.9884 42.542 21.9884 42.5427 21.9884C42.5434 21.9884 42.544 21.9884 42.5447 21.9884C42.5454 21.9884 42.546 21.9884 42.5467 21.9884C42.5474 21.9884 42.548 21.9884 42.5487 21.9884C42.5493 21.9884 42.55 21.9884 42.5507 21.9884C42.5513 21.9884 42.552 21.9884 42.5526 21.9884C42.5533 21.9884 42.5539 21.9884 42.5546 21.9884C42.5552 21.9884 42.5559 21.9884 42.5565 21.9884C42.5572 21.9884 42.5578 21.9884 42.5585 21.9884C42.5591 21.9884 42.5598 21.9884 42.5604 21.9884C42.5611 21.9884 42.5617 21.9884 42.5623 21.9884C42.563 21.9884 42.5636 21.9884 42.5642 21.9884C42.5649 21.9884 42.5655 21.9884 42.5662 21.9884C42.5668 21.9884 42.5674 21.9884 42.5681 21.9884C42.5687 21.9884 42.5693 21.9884 42.5699 21.9884C42.5706 21.9884 42.5712 21.9884 42.5718 21.9884C42.5725 21.9884 42.5731 21.9884 42.5737 21.9884C42.5743 21.9884 42.5749 21.9884 42.5756 21.9884C42.5762 21.9884 42.5768 21.9884 42.5774 21.9884C42.578 21.9884 42.5787 21.9884 42.5793 21.9884C42.5799 21.9884 42.5805 21.9884 42.5811 21.9884C42.5817 21.9884 42.5823 21.9884 42.5829 21.9884C42.5835 21.9884 42.5841 21.9884 42.5848 21.9884C42.5854 21.9884 42.586 21.9884 42.5866 21.9884C42.5872 21.9884 42.5878 21.9884 42.5884 21.9884C42.589 21.9884 42.5896 21.9884 42.5902 21.9884C42.5908 21.9884 42.5913 21.9884 42.5919 21.9884C42.5925 21.9884 42.5931 21.9884 42.5937 21.9884C42.5943 21.9884 42.5949 21.9884 42.5955 21.9884C42.5961 21.9884 42.5966 21.9884 42.5972 21.9884C42.5978 21.9884 42.5984 21.9884 42.599 21.9884C42.5996 21.9884 42.6001 21.9884 42.6007 21.9884C42.6013 21.9884 42.6019 21.9884 42.6024 21.9884C42.603 21.9884 42.6036 21.9884 42.6042 21.9884C42.6047 21.9884 42.6053 21.9884 42.6059 21.9884C42.6064 21.9884 42.607 21.9884 42.6076 21.9884C42.6081 21.9884 42.6087 21.9884 42.6092 21.9884C42.6098 21.9884 42.6104 21.9884 42.6109 21.9884C42.6115 21.9884 42.612 21.9884 42.6126 21.9884C42.6132 21.9884 42.6137 21.9884 42.6143 21.9884C42.6148 21.9884 42.6154 21.9884 42.6159 21.9884C42.6165 21.9884 42.617 21.9884 42.6175 21.9884C42.6181 21.9884 42.6186 21.9884 42.6192 21.9884C42.6197 21.9884 42.6203 21.9884 42.6208 21.9884C42.6213 21.9884 42.6219 21.9884 42.6224 21.9884C42.6229 21.9884 42.6235 21.9884 42.624 21.9884C42.6245 21.9884 42.6251 21.9884 42.6256 21.9884C42.6261 21.9884 42.6267 21.9884 42.6272 21.9884C42.6277 21.9884 42.6282 21.9884 42.6288 21.9884C42.6293 21.9884 42.6298 21.9884 42.6303 21.9884C42.6308 21.9884 42.6313 21.9884 42.6319 21.9884C42.6324 21.9884 42.6329 21.9884 42.6334 21.9884C42.6339 21.9884 42.6344 21.9884 42.6349 21.9884C42.6354 21.9884 42.6359 21.9884 42.6365 21.9884C42.637 21.9884 42.6375 21.9884 42.638 21.9884V20.4884C42.6375 20.4884 42.637 20.4884 42.6365 20.4884C42.6359 20.4884 42.6354 20.4884 42.6349 20.4884C42.6344 20.4884 42.6339 20.4884 42.6334 20.4884C42.6329 20.4884 42.6324 20.4884 42.6319 20.4884C42.6313 20.4884 42.6308 20.4884 42.6303 20.4884C42.6298 20.4884 42.6293 20.4884 42.6288 20.4884C42.6282 20.4884 42.6277 20.4884 42.6272 20.4884C42.6267 20.4884 42.6261 20.4884 42.6256 20.4884C42.6251 20.4884 42.6245 20.4884 42.624 20.4884C42.6235 20.4884 42.6229 20.4884 42.6224 20.4884C42.6219 20.4884 42.6213 20.4884 42.6208 20.4884C42.6203 20.4884 42.6197 20.4884 42.6192 20.4884C42.6186 20.4884 42.6181 20.4884 42.6175 20.4884C42.617 20.4884 42.6165 20.4884 42.6159 20.4884C42.6154 20.4884 42.6148 20.4884 42.6143 20.4884C42.6137 20.4884 42.6132 20.4884 42.6126 20.4884C42.612 20.4884 42.6115 20.4884 42.6109 20.4884C42.6104 20.4884 42.6098 20.4884 42.6092 20.4884C42.6087 20.4884 42.6081 20.4884 42.6076 20.4884C42.607 20.4884 42.6064 20.4884 42.6059 20.4884C42.6053 20.4884 42.6047 20.4884 42.6042 20.4884C42.6036 20.4884 42.603 20.4884 42.6024 20.4884C42.6019 20.4884 42.6013 20.4884 42.6007 20.4884C42.6001 20.4884 42.5996 20.4884 42.599 20.4884C42.5984 20.4884 42.5978 20.4884 42.5972 20.4884C42.5966 20.4884 42.5961 20.4884 42.5955 20.4884C42.5949 20.4884 42.5943 20.4884 42.5937 20.4884C42.5931 20.4884 42.5925 20.4884 42.5919 20.4884C42.5913 20.4884 42.5908 20.4884 42.5902 20.4884C42.5896 20.4884 42.589 20.4884 42.5884 20.4884C42.5878 20.4884 42.5872 20.4884 42.5866 20.4884C42.586 20.4884 42.5854 20.4884 42.5848 20.4884C42.5841 20.4884 42.5835 20.4884 42.5829 20.4884C42.5823 20.4884 42.5817 20.4884 42.5811 20.4884C42.5805 20.4884 42.5799 20.4884 42.5793 20.4884C42.5787 20.4884 42.578 20.4884 42.5774 20.4884C42.5768 20.4884 42.5762 20.4884 42.5756 20.4884C42.5749 20.4884 42.5743 20.4884 42.5737 20.4884C42.5731 20.4884 42.5725 20.4884 42.5718 20.4884C42.5712 20.4884 42.5706 20.4884 42.5699 20.4884C42.5693 20.4884 42.5687 20.4884 42.5681 20.4884C42.5674 20.4884 42.5668 20.4884 42.5662 20.4884C42.5655 20.4884 42.5649 20.4884 42.5642 20.4884C42.5636 20.4884 42.563 20.4884 42.5623 20.4884C42.5617 20.4884 42.5611 20.4884 42.5604 20.4884C42.5598 20.4884 42.5591 20.4884 42.5585 20.4884C42.5578 20.4884 42.5572 20.4884 42.5565 20.4884C42.5559 20.4884 42.5552 20.4884 42.5546 20.4884C42.5539 20.4884 42.5533 20.4884 42.5526 20.4884C42.552 20.4884 42.5513 20.4884 42.5507 20.4884C42.55 20.4884 42.5493 20.4884 42.5487 20.4884C42.548 20.4884 42.5474 20.4884 42.5467 20.4884C42.546 20.4884 42.5454 20.4884 42.5447 20.4884C42.544 20.4884 42.5434 20.4884 42.5427 20.4884C42.542 20.4884 42.5414 20.4884 42.5407 20.4884C42.54 20.4884 42.5393 20.4884 42.5387 20.4884C42.538 20.4884 42.5373 20.4884 42.5366 20.4884C42.536 20.4884 42.5353 20.4884 42.5346 20.4884C42.5339 20.4884 42.5332 20.4884 42.5326 20.4884C42.5319 20.4884 42.5312 20.4884 42.5305 20.4884C42.5298 20.4884 42.5291 20.4884 42.5285 20.4884C42.5278 20.4884 42.5271 20.4884 42.5264 20.4884C42.5257 20.4884 42.525 20.4884 42.5243 20.4884C42.5236 20.4884 42.5229 20.4884 42.5222 20.4884C42.5215 20.4884 42.5208 20.4884 42.5201 20.4884C42.5194 20.4884 42.5187 20.4884 42.518 20.4884C42.5173 20.4884 42.5166 20.4884 42.5159 20.4884C42.5152 20.4884 42.5145 20.4884 42.5138 20.4884C42.5131 20.4884 42.5124 20.4884 42.5117 20.4884C42.511 20.4884 42.5103 20.4884 42.5096 20.4884C42.5089 20.4884 42.5082 20.4884 42.5074 20.4884C42.5067 20.4884 42.506 20.4884 42.5053 20.4884C42.5046 20.4884 42.5039 20.4884 42.5031 20.4884C42.5024 20.4884 42.5017 20.4884 42.501 20.4884C42.5003 20.4884 42.4995 20.4884 42.4988 20.4884C42.4981 20.4884 42.4974 20.4884 42.4966 20.4884C42.4959 20.4884 42.4952 20.4884 42.4945 20.4884C42.4937 20.4884 42.493 20.4884 42.4923 20.4884C42.4915 20.4884 42.4908 20.4884 42.4901 20.4884C42.4893 20.4884 42.4886 20.4884 42.4879 20.4884C42.4871 20.4884 42.4864 20.4884 42.4857 20.4884C42.4849 20.4884 42.4842 20.4884 42.4834 20.4884C42.4827 20.4884 42.482 20.4884 42.4812 20.4884C42.4805 20.4884 42.4797 20.4884 42.479 20.4884C42.4782 20.4884 42.4775 20.4884 42.4767 20.4884C42.476 20.4884 42.4752 20.4884 42.4745 20.4884C42.4737 20.4884 42.473 20.4884 42.4722 20.4884C42.4715 20.4884 42.4707 20.4884 42.47 20.4884C42.4692 20.4884 42.4685 20.4884 42.4677 20.4884C42.4669 20.4884 42.4662 20.4884 42.4654 20.4884C42.4647 20.4884 42.4639 20.4884 42.4631 20.4884C42.4624 20.4884 42.4616 20.4884 42.4609 20.4884C42.4601 20.4884 42.4593 20.4884 42.4586 20.4884C42.4578 20.4884 42.457 20.4884 42.4563 20.4884C42.4555 20.4884 42.4547 20.4884 42.4539 20.4884C42.4532 20.4884 42.4524 20.4884 42.4516 20.4884C42.4509 20.4884 42.4501 20.4884 42.4493 20.4884C42.4485 20.4884 42.4478 20.4884 42.447 20.4884C42.4462 20.4884 42.4454 20.4884 42.4446 20.4884C42.4439 20.4884 42.4431 20.4884 42.4423 20.4884C42.4415 20.4884 42.4407 20.4884 42.4399 20.4884C42.4392 20.4884 42.4384 20.4884 42.4376 20.4884C42.4368 20.4884 42.436 20.4884 42.4352 20.4884C42.4344 20.4884 42.4336 20.4884 42.4329 20.4884C42.4321 20.4884 42.4313 20.4884 42.4305 20.4884C42.4297 20.4884 42.4289 20.4884 42.4281 20.4884C42.4273 20.4884 42.4265 20.4884 42.4257 20.4884C42.4249 20.4884 42.4241 20.4884 42.4233 20.4884C42.4225 20.4884 42.4217 20.4884 42.4209 20.4884C42.4201 20.4884 42.4193 20.4884 42.4185 20.4884C42.4177 20.4884 42.4169 20.4884 42.4161 20.4884C42.4153 20.4884 42.4145 20.4884 42.4137 20.4884C42.4129 20.4884 42.4121 20.4884 42.4113 20.4884C42.4104 20.4884 42.4096 20.4884 42.4088 20.4884C42.408 20.4884 42.4072 20.4884 42.4064 20.4884C42.4056 20.4884 42.4048 20.4884 42.4039 20.4884C42.4031 20.4884 42.4023 20.4884 42.4015 20.4884C42.4007 20.4884 42.3999 20.4884 42.399 20.4884C42.3982 20.4884 42.3974 20.4884 42.3966 20.4884C42.3958 20.4884 42.3949 20.4884 42.3941 20.4884C42.3933 20.4884 42.3925 20.4884 42.3916 20.4884C42.3908 20.4884 42.39 20.4884 42.3892 20.4884C42.3883 20.4884 42.3875 20.4884 42.3867 20.4884C42.3858 20.4884 42.385 20.4884 42.3842 20.4884C42.3833 20.4884 42.3825 20.4884 42.3817 20.4884C42.3808 20.4884 42.38 20.4884 42.3792 20.4884C42.3783 20.4884 42.3775 20.4884 42.3767 20.4884C42.3758 20.4884 42.375 20.4884 42.3742 20.4884C42.3733 20.4884 42.3725 20.4884 42.3716 20.4884C42.3708 20.4884 42.37 20.4884 42.3691 20.4884C42.3683 20.4884 42.3674 20.4884 42.3666 20.4884C42.3657 20.4884 42.3649 20.4884 42.3641 20.4884C42.3632 20.4884 42.3624 20.4884 42.3615 20.4884C42.3607 20.4884 42.3598 20.4884 42.359 20.4884C42.3581 20.4884 42.3573 20.4884 42.3564 20.4884C42.3556 20.4884 42.3547 20.4884 42.3539 20.4884C42.353 20.4884 42.3522 20.4884 42.3513 20.4884C42.3504 20.4884 42.3496 20.4884 42.3487 20.4884C42.3479 20.4884 42.347 20.4884 42.3462 20.4884C42.3453 20.4884 42.3444 20.4884 42.3436 20.4884C42.3427 20.4884 42.3419 20.4884 42.341 20.4884C42.3401 20.4884 42.3393 20.4884 42.3384 20.4884C42.3376 20.4884 42.3367 20.4884 42.3358 20.4884C42.335 20.4884 42.3341 20.4884 42.3332 20.4884C42.3324 20.4884 42.3315 20.4884 42.3306 20.4884C42.3298 20.4884 42.3289 20.4884 42.328 20.4884C42.3272 20.4884 42.3263 20.4884 42.3254 20.4884C42.3245 20.4884 42.3237 20.4884 42.3228 20.4884C42.3219 20.4884 42.3211 20.4884 42.3202 20.4884C42.3193 20.4884 42.3184 20.4884 42.3176 20.4884C42.3167 20.4884 42.3158 20.4884 42.3149 20.4884C42.314 20.4884 42.3132 20.4884 42.3123 20.4884C42.3114 20.4884 42.3105 20.4884 42.3097 20.4884C42.3088 20.4884 42.3079 20.4884 42.307 20.4884C42.3061 20.4884 42.3052 20.4884 42.3044 20.4884C42.3035 20.4884 42.3026 20.4884 42.3017 20.4884C42.3008 20.4884 42.2999 20.4884 42.2991 20.4884C42.2982 20.4884 42.2973 20.4884 42.2964 20.4884C42.2955 20.4884 42.2946 20.4884 42.2937 20.4884C42.2928 20.4884 42.2919 20.4884 42.2911 20.4884C42.2902 20.4884 42.2893 20.4884 42.2884 20.4884C42.2875 20.4884 42.2866 20.4884 42.2857 20.4884C42.2848 20.4884 42.2839 20.4884 42.283 20.4884C42.2821 20.4884 42.2812 20.4884 42.2803 20.4884C42.2794 20.4884 42.2785 20.4884 42.2776 20.4884C42.2767 20.4884 42.2758 20.4884 42.2749 20.4884C42.274 20.4884 42.2731 20.4884 42.2722 20.4884C42.2713 20.4884 42.2704 20.4884 42.2695 20.4884C42.2686 20.4884 42.2677 20.4884 42.2668 20.4884C42.2659 20.4884 42.265 20.4884 42.2641 20.4884C42.2632 20.4884 42.2623 20.4884 42.2614 20.4884C42.2605 20.4884 42.2596 20.4884 42.2587 20.4884C42.2578 20.4884 42.2569 20.4884 42.256 20.4884C42.2551 20.4884 42.2541 20.4884 42.2532 20.4884C42.2523 20.4884 42.2514 20.4884 42.2505 20.4884C42.2496 20.4884 42.2487 20.4884 42.2478 20.4884C42.2469 20.4884 42.2459 20.4884 42.245 20.4884C42.2441 20.4884 42.2432 20.4884 42.2423 20.4884C42.2414 20.4884 42.2405 20.4884 42.2395 20.4884C42.2386 20.4884 42.2377 20.4884 42.2368 20.4884C42.2359 20.4884 42.235 20.4884 42.234 20.4884C42.2331 20.4884 42.2322 20.4884 42.2313 20.4884C42.2304 20.4884 42.2294 20.4884 42.2285 20.4884C42.2276 20.4884 42.2267 20.4884 42.2258 20.4884C42.2248 20.4884 42.2239 20.4884 42.223 20.4884C42.2221 20.4884 42.2211 20.4884 42.2202 20.4884C42.2193 20.4884 42.2184 20.4884 42.2174 20.4884C42.2165 20.4884 42.2156 20.4884 42.2147 20.4884C42.2137 20.4884 42.2128 20.4884 42.2119 20.4884C42.211 20.4884 42.21 20.4884 42.2091 20.4884C42.2082 20.4884 42.2072 20.4884 42.2063 20.4884C42.2054 20.4884 42.2045 20.4884 42.2035 20.4884C42.2026 20.4884 42.2017 20.4884 42.2007 20.4884C42.1998 20.4884 42.1989 20.4884 42.1979 20.4884C42.197 20.4884 42.1961 20.4884 42.1951 20.4884C42.1942 20.4884 42.1933 20.4884 42.1923 20.4884C42.1914 20.4884 42.1905 20.4884 42.1895 20.4884C42.1886 20.4884 42.1877 20.4884 42.1867 20.4884C42.1858 20.4884 42.1848 20.4884 42.1839 20.4884C42.183 20.4884 42.182 20.4884 42.1811 20.4884C42.1802 20.4884 42.1792 20.4884 42.1783 20.4884C42.1773 20.4884 42.1764 20.4884 42.1755 20.4884C42.1745 20.4884 42.1736 20.4884 42.1726 20.4884C42.1717 20.4884 42.1708 20.4884 42.1698 20.4884C42.1689 20.4884 42.1679 20.4884 42.167 20.4884C42.166 20.4884 42.1651 20.4884 42.1642 20.4884C42.1632 20.4884 42.1623 20.4884 42.1613 20.4884C42.1604 20.4884 42.1594 20.4884 42.1585 20.4884C42.1575 20.4884 42.1566 20.4884 42.1556 20.4884C42.1547 20.4884 42.1538 20.4884 42.1528 20.4884C42.1519 20.4884 42.1509 20.4884 42.15 20.4884C42.149 20.4884 42.1481 20.4884 42.1471 20.4884C42.1462 20.4884 42.1452 20.4884 42.1443 20.4884C42.1433 20.4884 42.1424 20.4884 42.1414 20.4884C42.1405 20.4884 42.1395 20.4884 42.1386 20.4884C42.1376 20.4884 42.1367 20.4884 42.1357 20.4884C42.1348 20.4884 42.1338 20.4884 42.1329 20.4884C42.1319 20.4884 42.131 20.4884 42.13 20.4884C42.129 20.4884 42.1281 20.4884 42.1271 20.4884C42.1262 20.4884 42.1252 20.4884 42.1243 20.4884C42.1233 20.4884 42.1224 20.4884 42.1214 20.4884C42.1205 20.4884 42.1195 20.4884 42.1185 20.4884C42.1176 20.4884 42.1166 20.4884 42.1157 20.4884C42.1147 20.4884 42.1138 20.4884 42.1128 20.4884C42.1118 20.4884 42.1109 20.4884 42.1099 20.4884C42.109 20.4884 42.108 20.4884 42.1071 20.4884C42.1061 20.4884 42.1051 20.4884 42.1042 20.4884C42.1032 20.4884 42.1023 20.4884 42.1013 20.4884C42.1003 20.4884 42.0994 20.4884 42.0984 20.4884C42.0975 20.4884 42.0965 20.4884 42.0955 20.4884C42.0946 20.4884 42.0936 20.4884 42.0927 20.4884C42.0917 20.4884 42.0907 20.4884 42.0898 20.4884C42.0888 20.4884 42.0878 20.4884 42.0869 20.4884C42.0859 20.4884 42.085 20.4884 42.084 20.4884C42.083 20.4884 42.0821 20.4884 42.0811 20.4884C42.0801 20.4884 42.0792 20.4884 42.0782 20.4884C42.0772 20.4884 42.0763 20.4884 42.0753 20.4884C42.0743 20.4884 42.0734 20.4884 42.0724 20.4884C42.0715 20.4884 42.0705 20.4884 42.0695 20.4884C42.0686 20.4884 42.0676 20.4884 42.0666 20.4884C42.0657 20.4884 42.0647 20.4884 42.0637 20.4884C42.0628 20.4884 42.0618 20.4884 42.0608 20.4884C42.0599 20.4884 42.0589 20.4884 42.0579 20.4884C42.057 20.4884 42.056 20.4884 42.055 20.4884C42.0541 20.4884 42.0531 20.4884 42.0521 20.4884C42.0511 20.4884 42.0502 20.4884 42.0492 20.4884C42.0482 20.4884 42.0473 20.4884 42.0463 20.4884C42.0453 20.4884 42.0444 20.4884 42.0434 20.4884C42.0424 20.4884 42.0415 20.4884 42.0405 20.4884C42.0395 20.4884 42.0386 20.4884 42.0376 20.4884C42.0366 20.4884 42.0356 20.4884 42.0347 20.4884C42.0337 20.4884 42.0327 20.4884 42.0318 20.4884C42.0308 20.4884 42.0298 20.4884 42.0288 20.4884C42.0279 20.4884 42.0269 20.4884 42.0259 20.4884C42.025 20.4884 42.024 20.4884 42.023 20.4884C42.022 20.4884 42.0211 20.4884 42.0201 20.4884C42.0191 20.4884 42.0182 20.4884 42.0172 20.4884C42.0162 20.4884 42.0152 20.4884 42.0143 20.4884C42.0133 20.4884 42.0123 20.4884 42.0114 20.4884C42.0104 20.4884 42.0094 20.4884 42.0084 20.4884C42.0075 20.4884 42.0065 20.4884 42.0055 20.4884C42.0046 20.4884 42.0036 20.4884 42.0026 20.4884C42.0016 20.4884 42.0007 20.4884 41.9997 20.4884C41.9987 20.4884 41.9977 20.4884 41.9968 20.4884C41.9958 20.4884 41.9948 20.4884 41.9938 20.4884C41.9929 20.4884 41.9919 20.4884 41.9909 20.4884C41.99 20.4884 41.989 20.4884 41.988 20.4884C41.987 20.4884 41.9861 20.4884 41.9851 20.4884C41.9841 20.4884 41.9831 20.4884 41.9822 20.4884C41.9812 20.4884 41.9802 20.4884 41.9792 20.4884C41.9783 20.4884 41.9773 20.4884 41.9763 20.4884C41.9753 20.4884 41.9744 20.4884 41.9734 20.4884C41.9724 20.4884 41.9715 20.4884 41.9705 20.4884C41.9695 20.4884 41.9685 20.4884 41.9676 20.4884C41.9666 20.4884 41.9656 20.4884 41.9646 20.4884C41.9637 20.4884 41.9627 20.4884 41.9617 20.4884C41.9607 20.4884 41.9598 20.4884 41.9588 20.4884C41.9578 20.4884 41.9568 20.4884 41.9559 20.4884C41.9549 20.4884 41.9539 20.4884 41.9529 20.4884C41.952 20.4884 41.951 20.4884 41.95 20.4884C41.949 20.4884 41.9481 20.4884 41.9471 20.4884C41.9461 20.4884 41.9452 20.4884 41.9442 20.4884C41.9432 20.4884 41.9422 20.4884 41.9413 20.4884C41.9403 20.4884 41.9393 20.4884 41.9383 20.4884C41.9374 20.4884 41.9364 20.4884 41.9354 20.4884C41.9344 20.4884 41.9335 20.4884 41.9325 20.4884C41.9315 20.4884 41.9306 20.4884 41.9296 20.4884C41.9286 20.4884 41.9276 20.4884 41.9267 20.4884C41.9257 20.4884 41.9247 20.4884 41.9237 20.4884C41.9228 20.4884 41.9218 20.4884 41.9208 20.4884C41.9198 20.4884 41.9189 20.4884 41.9179 20.4884C41.9169 20.4884 41.916 20.4884 41.915 20.4884C41.914 20.4884 41.913 20.4884 41.9121 20.4884C41.9111 20.4884 41.9101 20.4884 41.9092 20.4884C41.9082 20.4884 41.9072 20.4884 41.9062 20.4884C41.9053 20.4884 41.9043 20.4884 41.9033 20.4884C41.9024 20.4884 41.9014 20.4884 41.9004 20.4884C41.8994 20.4884 41.8985 20.4884 41.8975 20.4884C41.8965 20.4884 41.8956 20.4884 41.8946 20.4884C41.8936 20.4884 41.8926 20.4884 41.8917 20.4884C41.8907 20.4884 41.8897 20.4884 41.8888 20.4884C41.8878 20.4884 41.8868 20.4884 41.8859 20.4884C41.8849 20.4884 41.8839 20.4884 41.8829 20.4884C41.882 20.4884 41.881 20.4884 41.88 20.4884C41.8791 20.4884 41.8781 20.4884 41.8771 20.4884C41.8762 20.4884 41.8752 20.4884 41.8742 20.4884C41.8733 20.4884 41.8723 20.4884 41.8713 20.4884C41.8703 20.4884 41.8694 20.4884 41.8684 20.4884C41.8674 20.4884 41.8665 20.4884 41.8655 20.4884C41.8645 20.4884 41.8636 20.4884 41.8626 20.4884C41.8616 20.4884 41.8607 20.4884 41.8597 20.4884C41.8587 20.4884 41.8578 20.4884 41.8568 20.4884C41.8558 20.4884 41.8549 20.4884 41.8539 20.4884C41.853 20.4884 41.852 20.4884 41.851 20.4884C41.8501 20.4884 41.8491 20.4884 41.8481 20.4884C41.8472 20.4884 41.8462 20.4884 41.8452 20.4884C41.8443 20.4884 41.8433 20.4884 41.8423 20.4884C41.8414 20.4884 41.8404 20.4884 41.8395 20.4884C41.8385 20.4884 41.8375 20.4884 41.8366 20.4884C41.8356 20.4884 41.8346 20.4884 41.8337 20.4884C41.8327 20.4884 41.8318 20.4884 41.8308 20.4884C41.8298 20.4884 41.8289 20.4884 41.8279 20.4884C41.827 20.4884 41.826 20.4884 41.825 20.4884C41.8241 20.4884 41.8231 20.4884 41.8222 20.4884C41.8212 20.4884 41.8202 20.4884 41.8193 20.4884C41.8183 20.4884 41.8174 20.4884 41.8164 20.4884C41.8154 20.4884 41.8145 20.4884 41.8135 20.4884C41.8126 20.4884 41.8116 20.4884 41.8107 20.4884C41.8097 20.4884 41.8087 20.4884 41.8078 20.4884C41.8068 20.4884 41.8059 20.4884 41.8049 20.4884C41.804 20.4884 41.803 20.4884 41.802 20.4884C41.8011 20.4884 41.8001 20.4884 41.7992 20.4884C41.7982 20.4884 41.7973 20.4884 41.7963 20.4884C41.7954 20.4884 41.7944 20.4884 41.7935 20.4884C41.7925 20.4884 41.7916 20.4884 41.7906 20.4884C41.7897 20.4884 41.7887 20.4884 41.7878 20.4884C41.7868 20.4884 41.7858 20.4884 41.7849 20.4884C41.7839 20.4884 41.783 20.4884 41.782 20.4884C41.7811 20.4884 41.7801 20.4884 41.7792 20.4884C41.7782 20.4884 41.7773 20.4884 41.7764 20.4884C41.7754 20.4884 41.7745 20.4884 41.7735 20.4884C41.7726 20.4884 41.7716 20.4884 41.7707 20.4884C41.7697 20.4884 41.7688 20.4884 41.7678 20.4884C41.7669 20.4884 41.7659 20.4884 41.765 20.4884C41.764 20.4884 41.7631 20.4884 41.7622 20.4884C41.7612 20.4884 41.7603 20.4884 41.7593 20.4884C41.7584 20.4884 41.7574 20.4884 41.7565 20.4884C41.7556 20.4884 41.7546 20.4884 41.7537 20.4884C41.7527 20.4884 41.7518 20.4884 41.7508 20.4884C41.7499 20.4884 41.749 20.4884 41.748 20.4884C41.7471 20.4884 41.7461 20.4884 41.7452 20.4884C41.7443 20.4884 41.7433 20.4884 41.7424 20.4884C41.7415 20.4884 41.7405 20.4884 41.7396 20.4884C41.7386 20.4884 41.7377 20.4884 41.7368 20.4884C41.7358 20.4884 41.7349 20.4884 41.734 20.4884C41.733 20.4884 41.7321 20.4884 41.7312 20.4884C41.7302 20.4884 41.7293 20.4884 41.7284 20.4884C41.7274 20.4884 41.7265 20.4884 41.7256 20.4884C41.7246 20.4884 41.7237 20.4884 41.7228 20.4884C41.7218 20.4884 41.7209 20.4884 41.72 20.4884C41.7191 20.4884 41.7181 20.4884 41.7172 20.4884C41.7163 20.4884 41.7153 20.4884 41.7144 20.4884C41.7135 20.4884 41.7126 20.4884 41.7116 20.4884C41.7107 20.4884 41.7098 20.4884 41.7089 20.4884C41.7079 20.4884 41.707 20.4884 41.7061 20.4884C41.7052 20.4884 41.7042 20.4884 41.7033 20.4884C41.7024 20.4884 41.7015 20.4884 41.7005 20.4884C41.6996 20.4884 41.6987 20.4884 41.6978 20.4884C41.6968 20.4884 41.6959 20.4884 41.695 20.4884C41.6941 20.4884 41.6932 20.4884 41.6923 20.4884C41.6913 20.4884 41.6904 20.4884 41.6895 20.4884C41.6886 20.4884 41.6877 20.4884 41.6867 20.4884C41.6858 20.4884 41.6849 20.4884 41.684 20.4884C41.6831 20.4884 41.6822 20.4884 41.6813 20.4884C41.6803 20.4884 41.6794 20.4884 41.6785 20.4884C41.6776 20.4884 41.6767 20.4884 41.6758 20.4884C41.6749 20.4884 41.674 20.4884 41.673 20.4884C41.6721 20.4884 41.6712 20.4884 41.6703 20.4884C41.6694 20.4884 41.6685 20.4884 41.6676 20.4884C41.6667 20.4884 41.6658 20.4884 41.6649 20.4884C41.664 20.4884 41.6631 20.4884 41.6622 20.4884C41.6612 20.4884 41.6603 20.4884 41.6594 20.4884C41.6585 20.4884 41.6576 20.4884 41.6567 20.4884C41.6558 20.4884 41.6549 20.4884 41.654 20.4884C41.6531 20.4884 41.6522 20.4884 41.6513 20.4884C41.6504 20.4884 41.6495 20.4884 41.6486 20.4884C41.6477 20.4884 41.6468 20.4884 41.6459 20.4884C41.645 20.4884 41.6441 20.4884 41.6432 20.4884C41.6424 20.4884 41.6415 20.4884 41.6406 20.4884C41.6397 20.4884 41.6388 20.4884 41.6379 20.4884C41.637 20.4884 41.6361 20.4884 41.6352 20.4884C41.6343 20.4884 41.6334 20.4884 41.6325 20.4884C41.6316 20.4884 41.6308 20.4884 41.6299 20.4884C41.629 20.4884 41.6281 20.4884 41.6272 20.4884C41.6263 20.4884 41.6254 20.4884 41.6245 20.4884C41.6237 20.4884 41.6228 20.4884 41.6219 20.4884C41.621 20.4884 41.6201 20.4884 41.6192 20.4884C41.6184 20.4884 41.6175 20.4884 41.6166 20.4884C41.6157 20.4884 41.6148 20.4884 41.614 20.4884C41.6131 20.4884 41.6122 20.4884 41.6113 20.4884C41.6104 20.4884 41.6096 20.4884 41.6087 20.4884C41.6078 20.4884 41.6069 20.4884 41.6061 20.4884C41.6052 20.4884 41.6043 20.4884 41.6034 20.4884C41.6026 20.4884 41.6017 20.4884 41.6008 20.4884C41.5999 20.4884 41.5991 20.4884 41.5982 20.4884C41.5973 20.4884 41.5965 20.4884 41.5956 20.4884C41.5947 20.4884 41.5939 20.4884 41.593 20.4884C41.5921 20.4884 41.5913 20.4884 41.5904 20.4884C41.5895 20.4884 41.5887 20.4884 41.5878 20.4884C41.5869 20.4884 41.5861 20.4884 41.5852 20.4884C41.5844 20.4884 41.5835 20.4884 41.5826 20.4884C41.5818 20.4884 41.5809 20.4884 41.5801 20.4884C41.5792 20.4884 41.5783 20.4884 41.5775 20.4884C41.5766 20.4884 41.5758 20.4884 41.5749 20.4884C41.5741 20.4884 41.5732 20.4884 41.5724 20.4884C41.5715 20.4884 41.5706 20.4884 41.5698 20.4884C41.5689 20.4884 41.5681 20.4884 41.5672 20.4884C41.5664 20.4884 41.5655 20.4884 41.5647 20.4884C41.5638 20.4884 41.563 20.4884 41.5622 20.4884C41.5613 20.4884 41.5605 20.4884 41.5596 20.4884C41.5588 20.4884 41.5579 20.4884 41.5571 20.4884C41.5562 20.4884 41.5554 20.4884 41.5546 20.4884C41.5537 20.4884 41.5529 20.4884 41.552 20.4884C41.5512 20.4884 41.5504 20.4884 41.5495 20.4884C41.5487 20.4884 41.5479 20.4884 41.547 20.4884C41.5462 20.4884 41.5453 20.4884 41.5445 20.4884C41.5437 20.4884 41.5428 20.4884 41.542 20.4884C41.5412 20.4884 41.5404 20.4884 41.5395 20.4884C41.5387 20.4884 41.5379 20.4884 41.537 20.4884C41.5362 20.4884 41.5354 20.4884 41.5346 20.4884C41.5337 20.4884 41.5329 20.4884 41.5321 20.4884C41.5313 20.4884 41.5304 20.4884 41.5296 20.4884C41.5288 20.4884 41.528 20.4884 41.5271 20.4884C41.5263 20.4884 41.5255 20.4884 41.5247 20.4884C41.5239 20.4884 41.5231 20.4884 41.5222 20.4884C41.5214 20.4884 41.5206 20.4884 41.5198 20.4884C41.519 20.4884 41.5182 20.4884 41.5174 20.4884C41.5165 20.4884 41.5157 20.4884 41.5149 20.4884C41.5141 20.4884 41.5133 20.4884 41.5125 20.4884C41.5117 20.4884 41.5109 20.4884 41.5101 20.4884C41.5093 20.4884 41.5085 20.4884 41.5077 20.4884C41.5069 20.4884 41.506 20.4884 41.5052 20.4884C41.5044 20.4884 41.5036 20.4884 41.5028 20.4884C41.502 20.4884 41.5012 20.4884 41.5004 20.4884C41.4996 20.4884 41.4989 20.4884 41.4981 20.4884C41.4973 20.4884 41.4965 20.4884 41.4957 20.4884C41.4949 20.4884 41.4941 20.4884 41.4933 20.4884C41.4925 20.4884 41.4917 20.4884 41.4909 20.4884C41.4901 20.4884 41.4893 20.4884 41.4886 20.4884C41.4878 20.4884 41.487 20.4884 41.4862 20.4884C41.4854 20.4884 41.4846 20.4884 41.4838 20.4884C41.4831 20.4884 41.4823 20.4884 41.4815 20.4884C41.4807 20.4884 41.4799 20.4884 41.4792 20.4884C41.4784 20.4884 41.4776 20.4884 41.4768 20.4884C41.4761 20.4884 41.4753 20.4884 41.4745 20.4884C41.4737 20.4884 41.473 20.4884 41.4722 20.4884C41.4714 20.4884 41.4706 20.4884 41.4699 20.4884C41.4691 20.4884 41.4683 20.4884 41.4676 20.4884C41.4668 20.4884 41.466 20.4884 41.4653 20.4884C41.4645 20.4884 41.4637 20.4884 41.463 20.4884C41.4622 20.4884 41.4615 20.4884 41.4607 20.4884C41.4599 20.4884 41.4592 20.4884 41.4584 20.4884C41.4577 20.4884 41.4569 20.4884 41.4561 20.4884C41.4554 20.4884 41.4546 20.4884 41.4539 20.4884C41.4531 20.4884 41.4524 20.4884 41.4516 20.4884C41.4509 20.4884 41.4501 20.4884 41.4494 20.4884C41.4486 20.4884 41.4479 20.4884 41.4471 20.4884C41.4464 20.4884 41.4456 20.4884 41.4449 20.4884C41.4441 20.4884 41.4434 20.4884 41.4427 20.4884C41.4419 20.4884 41.4412 20.4884 41.4404 20.4884C41.4397 20.4884 41.439 20.4884 41.4382 20.4884C41.4375 20.4884 41.4368 20.4884 41.436 20.4884C41.4353 20.4884 41.4346 20.4884 41.4338 20.4884C41.4331 20.4884 41.4324 20.4884 41.4316 20.4884C41.4309 20.4884 41.4302 20.4884 41.4294 20.4884C41.4287 20.4884 41.428 20.4884 41.4273 20.4884C41.4265 20.4884 41.4258 20.4884 41.4251 20.4884C41.4244 20.4884 41.4237 20.4884 41.4229 20.4884C41.4222 20.4884 41.4215 20.4884 41.4208 20.4884C41.4201 20.4884 41.4193 20.4884 41.4186 20.4884C41.4179 20.4884 41.4172 20.4884 41.4165 20.4884C41.4158 20.4884 41.4151 20.4884 41.4144 20.4884C41.4137 20.4884 41.4129 20.4884 41.4122 20.4884C41.4115 20.4884 41.4108 20.4884 41.4101 20.4884C41.4094 20.4884 41.4087 20.4884 41.408 20.4884C41.4073 20.4884 41.4066 20.4884 41.4059 20.4884C41.4052 20.4884 41.4045 20.4884 41.4038 20.4884C41.4031 20.4884 41.4024 20.4884 41.4017 20.4884C41.401 20.4884 41.4003 20.4884 41.3997 20.4884C41.399 20.4884 41.3983 20.4884 41.3976 20.4884C41.3969 20.4884 41.3962 20.4884 41.3955 20.4884C41.3948 20.4884 41.3942 20.4884 41.3935 20.4884C41.3928 20.4884 41.3921 20.4884 41.3914 20.4884C41.3907 20.4884 41.3901 20.4884 41.3894 20.4884C41.3887 20.4884 41.388 20.4884 41.3874 20.4884C41.3867 20.4884 41.386 20.4884 41.3853 20.4884C41.3847 20.4884 41.384 20.4884 41.3833 20.4884C41.3827 20.4884 41.382 20.4884 41.3813 20.4884C41.3807 20.4884 41.38 20.4884 41.3793 20.4884C41.3787 20.4884 41.378 20.4884 41.3773 20.4884C41.3767 20.4884 41.376 20.4884 41.3754 20.4884C41.3747 20.4884 41.374 20.4884 41.3734 20.4884C41.3727 20.4884 41.3721 20.4884 41.3714 20.4884C41.3708 20.4884 41.3701 20.4884 41.3695 20.4884C41.3688 20.4884 41.3682 20.4884 41.3675 20.4884C41.3669 20.4884 41.3662 20.4884 41.3656 20.4884C41.3649 20.4884 41.3643 20.4884 41.3637 20.4884C41.363 20.4884 41.3624 20.4884 41.3617 20.4884C41.3611 20.4884 41.3605 20.4884 41.3598 20.4884C41.3592 20.4884 41.3586 20.4884 41.3579 20.4884C41.3573 20.4884 41.3567 20.4884 41.356 20.4884C41.3554 20.4884 41.3548 20.4884 41.3541 20.4884V21.9884ZM42.638 21.9884C42.8261 21.9884 43.0474 21.927 43.1802 21.8886C43.3502 21.8395 43.5476 21.774 43.7448 21.7049C44.1407 21.5661 44.5688 21.401 44.8433 21.291L44.2851 19.8987C44.0245 20.0032 43.6179 20.1599 43.2487 20.2893C43.0633 20.3543 42.8955 20.4095 42.7638 20.4475C42.595 20.4963 42.5782 20.4884 42.638 20.4884V21.9884ZM45.095 20.065C45.1304 20.1005 45.1617 20.1492 45.1759 20.213C45.1923 20.2868 45.1784 20.3487 45.1641 20.3794C45.1538 20.4018 45.1624 20.3666 45.2608 20.2912C45.3592 20.2159 45.5286 20.1151 45.8063 20.0037L45.2481 18.6115C44.5476 18.8923 44.0321 19.2553 43.8034 19.7483C43.5425 20.3107 43.7427 20.8334 44.0334 21.1247L45.095 20.065ZM45.8063 20.0037C46.2099 19.8419 46.5314 19.6913 46.7519 19.5276C46.8653 19.4434 47.0073 19.3162 47.1031 19.1297C47.2136 18.9143 47.2289 18.6864 47.1779 18.4823C47.1355 18.3123 47.0524 18.1838 47.0152 18.1274C46.994 18.0953 46.9712 18.063 46.9579 18.0441C46.9421 18.0215 46.9322 18.0072 46.9239 17.9943C46.8959 17.9512 46.9192 17.9753 46.9192 18.0204H45.4192C45.4192 18.3872 45.563 18.6527 45.6655 18.8107C45.6897 18.8481 45.7131 18.8815 45.7294 18.9048C45.7483 18.9318 45.7566 18.9435 45.7636 18.9541C45.7828 18.9833 45.7449 18.9352 45.7226 18.8457C45.7095 18.7932 45.701 18.7252 45.709 18.6475C45.7171 18.5691 45.7401 18.5003 45.7686 18.4447C45.8205 18.3436 45.8798 18.3069 45.8577 18.3233C45.8405 18.336 45.7907 18.3686 45.6837 18.4214C45.5797 18.4727 45.4384 18.5352 45.2481 18.6115L45.8063 20.0037ZM46.9192 18.0204C46.9192 17.9326 46.9194 17.8918 46.9204 17.868C46.9209 17.8568 46.9209 17.8686 46.9174 17.8919C46.9154 17.9056 46.904 17.9869 46.8549 18.0848C46.7976 18.1992 46.6635 18.3805 46.4097 18.4549C46.1895 18.5194 46.0136 18.4608 45.9597 18.4408C45.925 18.4279 45.8992 18.4151 45.8855 18.4079C45.8711 18.4004 45.8614 18.3945 45.8583 18.3926C45.8548 18.3904 45.8547 18.3902 45.8736 18.4028C45.944 18.4498 46.094 18.5509 46.315 18.633C46.536 18.715 46.8051 18.7704 47.1326 18.7704V17.2704C46.857 17.2704 46.7621 17.1924 46.7063 17.1552C46.695 17.1477 46.6686 17.1299 46.642 17.1136C46.6198 17.1 46.5596 17.0634 46.4807 17.0342C46.4099 17.008 46.2198 16.9474 45.9878 17.0154C45.7223 17.0933 45.5787 17.2833 45.5138 17.4129C45.4572 17.5258 45.4401 17.6286 45.4338 17.6708C45.4261 17.7227 45.4233 17.7703 45.4218 17.8032C45.4191 17.8673 45.4192 17.9472 45.4192 18.0204H46.9192ZM47.1326 18.7704C47.4331 18.7704 47.708 18.7063 47.9467 18.564C48.1834 18.4229 48.3252 18.2398 48.4117 18.1063C48.4514 18.0449 48.4865 17.9823 48.5027 17.9542C48.5253 17.9148 48.5259 17.9161 48.518 17.9266C48.5082 17.9398 48.4659 17.9944 48.3848 18.044C48.2933 18.1001 48.1905 18.1267 48.0952 18.1267V16.6267C47.9197 16.6267 47.7505 16.6735 47.6015 16.7648C47.463 16.8496 47.372 16.9545 47.317 17.028C47.264 17.0988 47.2229 17.1706 47.2022 17.2066C47.175 17.2539 47.165 17.2718 47.1527 17.2908C47.1349 17.3182 47.1445 17.296 47.1787 17.2756C47.215 17.2539 47.2172 17.2704 47.1326 17.2704V18.7704ZM48.0952 18.1267C47.8688 18.1267 47.7319 18.0108 47.6982 17.9792C47.6645 17.9476 47.6606 17.9326 47.6871 17.975C47.7101 18.012 47.7379 18.0621 47.7793 18.1391C47.817 18.2093 47.866 18.3018 47.9188 18.3937C48.0893 18.6907 48.5233 19.414 49.3797 19.414V17.914C49.4661 17.914 49.4187 17.9936 49.2198 17.647C49.1802 17.5781 49.1438 17.5096 49.1005 17.4289C49.0608 17.3551 49.0118 17.2645 48.9595 17.1807C48.9106 17.1024 48.8329 16.9869 48.7241 16.8849C48.6153 16.7829 48.4021 16.6267 48.0952 16.6267V18.1267ZM49.3797 19.414C49.4319 19.414 49.4352 19.4238 49.4409 19.4289C49.4668 19.4521 49.5147 19.5123 49.5765 19.6518C49.6428 19.8012 49.6826 19.9345 49.7576 20.1414C49.8086 20.2822 49.9158 20.5855 50.1316 20.8022L51.1946 19.7439C51.2501 19.7997 51.2371 19.8214 51.1678 19.6303C51.1225 19.5053 51.042 19.2564 50.9478 19.0438C50.8491 18.8213 50.6963 18.5396 50.4414 18.3114C50.1663 18.065 49.8086 17.914 49.3797 17.914V19.414ZM52.895 21.2653C53.0171 21.3265 53.1478 21.4075 53.3006 21.5045C53.4354 21.5901 53.6149 21.7066 53.7778 21.7883C53.8614 21.8301 53.9735 21.8801 54.1002 21.9111C54.2209 21.9406 54.4286 21.9712 54.6576 21.8892C55.2256 21.6859 55.2651 21.1101 55.2651 20.9166H53.7651C53.7651 20.9478 53.7593 20.8922 53.7982 20.8024C53.8479 20.6877 53.9611 20.5454 54.152 20.477C54.3108 20.4202 54.4332 20.4483 54.4561 20.4539C54.485 20.461 54.4868 20.4657 54.45 20.4473C54.3721 20.4082 54.2707 20.3437 54.1046 20.2382C53.9564 20.1442 53.7661 20.0241 53.5672 19.9243L52.895 21.2653ZM55.2651 20.9166C55.2651 20.5582 55.1287 20.2721 54.9904 20.0682C54.8588 19.8742 54.6966 19.7148 54.6047 19.6227C54.5507 19.5686 54.5195 19.5369 54.4959 19.5104C54.4707 19.4819 54.4825 19.4902 54.5012 19.5256C54.5217 19.5643 54.571 19.675 54.5543 19.8308C54.5364 19.9969 54.4555 20.1076 54.4041 20.1591L53.3421 19.0997C53.2105 19.2317 53.0895 19.4228 53.0628 19.6706C53.0373 19.9081 53.1092 20.1018 53.1748 20.226C53.2848 20.4343 53.4745 20.6136 53.5428 20.682C53.6515 20.791 53.71 20.8528 53.749 20.9102C53.7812 20.9578 53.7651 20.9532 53.7651 20.9166H55.2651ZM54.4041 20.1591C54.4859 20.0771 54.5735 19.9895 54.6629 19.9084C54.7574 19.8226 54.8248 19.7713 54.8616 19.7492C54.8802 19.738 54.8626 19.7517 54.8156 19.7647C54.7723 19.7766 54.6332 19.8073 54.461 19.7409C54.2649 19.6653 54.1597 19.5171 54.1162 19.4134C54.0807 19.3286 54.0861 19.2778 54.0861 19.3076H55.5861C55.5861 19.1196 55.5505 18.5533 55.0006 18.3413C54.7632 18.2498 54.5463 18.2829 54.4165 18.3188C54.283 18.3556 54.1701 18.4146 54.0884 18.4638C53.791 18.6426 53.4791 18.9624 53.3421 19.0997L54.4041 20.1591ZM54.0861 19.3076C54.0861 19.419 54.0718 19.5562 54.0506 19.7479C54.0317 19.9182 54.0059 20.143 54.0059 20.3535C54.0059 20.5457 54.0237 20.8588 54.1926 21.1409C54.4067 21.4986 54.7709 21.6666 55.1571 21.6666V20.1666C55.1706 20.1666 55.2307 20.1694 55.3077 20.2099C55.3892 20.2527 55.4464 20.3149 55.4797 20.3706C55.5282 20.4516 55.5059 20.4831 55.5059 20.3535C55.5059 20.2421 55.5202 20.1049 55.5414 19.9132C55.5603 19.7428 55.5861 19.518 55.5861 19.3076H54.0861ZM55.1571 21.6666C55.078 21.6666 55.0785 21.6332 55.1988 21.7188C55.317 21.8029 55.4161 21.8981 55.5912 22.0486C55.6668 22.1135 55.7601 22.191 55.8602 22.2593C55.9554 22.3241 56.099 22.4104 56.2765 22.4568C56.4717 22.5079 56.7273 22.514 56.9801 22.3793C57.2155 22.2538 57.3529 22.0563 57.4333 21.895L56.091 21.2255C56.0912 21.2251 56.1383 21.1282 56.2746 21.0555C56.4284 20.9736 56.5762 20.9847 56.656 21.0056C56.7181 21.0219 56.7389 21.0428 56.7048 21.0196C56.6759 20.9999 56.6337 20.9667 56.5688 20.911C56.4631 20.8201 56.2612 20.6338 56.0684 20.4966C55.8778 20.361 55.5573 20.1666 55.1571 20.1666V21.6666ZM57.4333 21.895C57.4698 21.8218 57.4981 21.802 57.4949 21.8042C57.4931 21.8056 57.484 21.8118 57.4671 21.8175C57.4499 21.8234 57.4284 21.8275 57.4042 21.8275C57.38 21.8275 57.3584 21.8234 57.3412 21.8175C57.3244 21.8118 57.3153 21.8056 57.3134 21.8042C57.3103 21.802 57.3385 21.8218 57.375 21.895L58.7173 21.2255C58.4722 20.734 58.013 20.3275 57.4042 20.3275C56.7954 20.3275 56.3362 20.734 56.091 21.2255L57.4333 21.895ZM57.375 21.895C57.4891 22.1236 57.6269 22.593 57.6599 22.9901C57.6676 23.0833 57.6685 23.1608 57.6645 23.221C57.6604 23.284 57.6522 23.3096 57.6527 23.3082C57.6535 23.306 57.6588 23.2908 57.6729 23.2679C57.6872 23.2445 57.712 23.2109 57.7515 23.1766C57.8432 23.0969 57.9554 23.0629 58.0462 23.0629V24.5629C58.2975 24.5629 58.5401 24.4787 58.7358 24.3085C58.9178 24.1502 59.0165 23.9553 59.0716 23.7947C59.1771 23.4871 59.1777 23.1427 59.1547 22.8658C59.1075 22.2975 58.9243 21.6405 58.7173 21.2255L57.375 21.895ZM58.0462 23.0629C58.0224 23.0629 58.0943 23.0613 58.1792 23.1282C58.2276 23.1663 58.2645 23.2292 58.1892 23.116C58.1448 23.0493 57.9602 22.7558 57.5717 22.6724C57.2362 22.6003 56.9354 22.7262 56.7471 22.8206L57.4192 24.1616C57.4701 24.1361 57.4803 24.1363 57.4609 24.141C57.4394 24.1463 57.3628 24.1617 57.2567 24.1389C57.0086 24.0856 56.9042 23.8926 56.9402 23.9466C56.9451 23.9541 57.0623 24.1578 57.2511 24.3066C57.4764 24.484 57.7489 24.5629 58.0462 24.5629V23.0629ZM56.7471 22.8206C56.3964 22.9964 56.1956 23.0878 56.0269 23.109C55.9615 23.1172 55.9186 23.1111 55.883 23.0988C55.8465 23.0862 55.7809 23.0544 55.6881 22.9614L54.6261 24.0208C55.1102 24.506 55.6614 24.6665 56.2134 24.5973C56.6867 24.538 57.1279 24.3076 57.4192 24.1616L56.7471 22.8206ZM55.6881 22.9614C55.3393 22.6117 54.8618 22.2166 54.379 22.0015C54.1417 21.8958 53.8196 21.7954 53.4745 21.8431C53.0729 21.8986 52.7457 22.1403 52.56 22.5127L53.9023 23.1822C53.897 23.1928 53.8745 23.2312 53.8231 23.2689C53.7708 23.3072 53.7172 23.3238 53.6799 23.329C53.6257 23.3365 53.6447 23.3165 53.7685 23.3717C54.008 23.4784 54.333 23.7269 54.6261 24.0208L55.6881 22.9614ZM52.56 22.5127C52.3507 22.9323 52.4338 23.3453 52.5104 23.5898C52.5512 23.7199 52.6017 23.8382 52.6429 23.9298C52.6939 24.0433 52.7135 24.081 52.7421 24.148C52.7698 24.2127 52.7554 24.1943 52.7478 24.1369C52.739 24.0703 52.7253 23.7969 52.9717 23.5879C53.0725 23.5024 53.1721 23.4705 53.2257 23.4586C53.2535 23.4524 53.2748 23.4502 53.287 23.4493C53.2934 23.4488 53.2982 23.4487 53.3013 23.4487C53.3043 23.4486 53.306 23.4487 53.306 23.4487C53.3061 23.4487 53.3049 23.4486 53.3023 23.4484C53.2997 23.4482 53.296 23.4479 53.291 23.4473C53.2808 23.4462 53.2667 23.4443 53.248 23.4411C53.2101 23.4346 53.1592 23.4239 53.0924 23.4072L52.7278 24.8622C52.9077 24.9073 53.087 24.9418 53.2527 24.9477C53.3874 24.9525 53.6873 24.9479 53.942 24.7318C54.2535 24.4675 54.2574 24.1112 54.2348 23.9403C54.2134 23.7784 54.1539 23.6344 54.1214 23.5583C54.0258 23.3348 53.9829 23.2724 53.9418 23.141C53.908 23.0335 53.951 23.0845 53.9023 23.1822L52.56 22.5127ZM53.0924 23.4072C52.6586 23.2985 52.4591 23.1033 52.1972 22.8408C51.9185 22.5614 51.4814 22.0975 50.6631 22.0975V23.5975C50.8077 23.5975 50.8522 23.6163 51.1352 23.9001C51.4351 24.2007 51.8776 24.6491 52.7278 24.8622L53.0924 23.4072ZM50.6631 22.0975C50.3356 22.0975 50.0668 22.1529 49.8588 22.2081C49.7625 22.2336 49.665 22.2633 49.6077 22.2799C49.5382 22.3001 49.5095 22.3067 49.4962 22.3089C49.4852 22.3107 49.524 22.3023 49.5883 22.3141C49.6636 22.3279 49.7351 22.3621 49.7897 22.4077C49.8681 22.4732 49.8413 22.5042 49.7697 22.289L48.3464 22.7623C48.4353 23.0298 48.569 23.3425 48.828 23.5588C49.1504 23.8282 49.5064 23.828 49.7434 23.7884C49.8505 23.7705 49.9522 23.7418 50.0257 23.7205C50.1113 23.6957 50.1693 23.6776 50.2435 23.6579C50.3766 23.6226 50.5091 23.5975 50.6631 23.5975V22.0975ZM49.7697 22.289C49.7061 22.0976 49.7172 22.0465 49.715 22.0726C49.7098 22.1317 49.6781 22.1835 49.6826 22.1767C49.6852 22.1727 49.6882 22.1683 49.6934 22.1606C49.698 22.1539 49.705 22.1436 49.7122 22.1328C49.7266 22.1111 49.7485 22.0773 49.7711 22.0364C49.8198 21.9482 49.8714 21.8273 49.8918 21.6742C49.9313 21.3768 49.833 21.1119 49.7292 20.9037L48.3869 21.5732C48.4436 21.6868 48.3854 21.623 48.4049 21.4765C48.4233 21.338 48.5181 21.2189 48.4335 21.3461C48.3578 21.46 48.2458 21.6525 48.2206 21.943C48.1982 22.2004 48.2495 22.471 48.3464 22.7623L49.7697 22.289ZM49.7292 20.9037C49.6937 20.8326 49.6575 20.7554 49.6158 20.6667C49.5756 20.5812 49.5305 20.4853 49.4833 20.3907C49.3932 20.2102 49.2714 19.9842 49.1129 19.7935C48.9609 19.6108 48.682 19.3481 48.2601 19.3142C47.823 19.2792 47.4787 19.5069 47.2428 19.7436L48.3053 20.8024C48.3901 20.7173 48.3265 20.8244 48.1401 20.8094C47.969 20.7957 47.9107 20.6939 47.9595 20.7526C48.0017 20.8032 48.0606 20.899 48.1411 21.0605C48.1792 21.1368 48.217 21.2169 48.2583 21.3048C48.2981 21.3896 48.3421 21.4834 48.3869 21.5732L49.7292 20.9037ZM47.2428 19.7436C47.0164 19.9708 46.8089 20.0683 46.645 20.1152C46.4728 20.1645 46.3229 20.1666 46.1692 20.1666V21.6666C46.5489 21.6666 47.4478 21.6629 48.3053 20.8024L47.2428 19.7436ZM46.1692 20.1666C46.0097 20.1666 45.6461 20.166 45.2734 20.2127C45.0871 20.236 44.8764 20.2737 44.6753 20.3386C44.4858 20.3996 44.2353 20.5063 44.0334 20.7086L45.095 21.7683C45.0537 21.8097 45.044 21.7957 45.1354 21.7663C45.2151 21.7406 45.3254 21.7179 45.46 21.701C45.7292 21.6673 46.0075 21.6666 46.1692 21.6666V20.1666ZM44.0334 20.7086C44.1177 20.6241 44.1912 20.6081 44.1671 20.6155C44.1523 20.6201 44.1112 20.6298 44.0294 20.6401C43.8454 20.6631 43.6684 20.6679 43.378 20.6922C43.1298 20.7129 42.8149 20.748 42.5259 20.8421C42.242 20.9346 41.8559 21.1258 41.6457 21.5475L42.9882 22.2166C42.9384 22.3166 42.8733 22.3065 42.9906 22.2683C43.1029 22.2317 43.2695 22.2065 43.5029 22.187C43.694 22.171 43.9986 22.1557 44.2159 22.1284C44.3348 22.1135 44.4743 22.0906 44.61 22.0487C44.7364 22.0096 44.9304 21.9332 45.095 21.7683L44.0334 20.7086ZM41.6457 21.5475C41.6189 21.6013 41.5427 21.6743 41.2586 21.7964C41.1646 21.8367 40.9591 21.9173 40.812 22.0027C40.6881 22.0746 40.2829 22.3279 40.2829 22.8475H41.7829C41.7829 23.2062 41.4982 23.3388 41.5649 23.3001C41.6084 23.2748 41.6638 23.2549 41.8507 23.1746C42.1284 23.0552 42.6942 22.8064 42.9882 22.2166L41.6457 21.5475ZM40.2829 22.8475C40.2829 22.6931 40.3552 22.6133 40.3075 22.6872C40.2894 22.7152 40.2701 22.7422 40.2314 22.7977C40.1977 22.8461 40.1527 22.9115 40.1085 22.9853C40.02 23.1331 39.9144 23.3473 39.882 23.6182C39.8481 23.9011 39.9006 24.1885 40.0408 24.4695L41.3831 23.8C41.3627 23.7592 41.3751 23.765 41.3714 23.7965C41.369 23.816 41.3637 23.8089 41.3956 23.7556C41.4117 23.7288 41.4318 23.6987 41.4621 23.6553C41.4873 23.619 41.5307 23.558 41.5678 23.5006C41.6304 23.4035 41.7829 23.1628 41.7829 22.8475H40.2829ZM40.0408 24.4695C40.0087 24.4052 39.9845 24.3063 40.0037 24.1938C40.0213 24.0904 40.0664 24.0284 40.0828 24.0085C40.102 23.9855 40.0753 24.0231 39.9313 24.0898C39.6641 24.2136 39.2724 24.3122 38.9837 24.3604L39.2309 25.8399C39.5841 25.7809 40.1231 25.6542 40.562 25.4508C40.771 25.3539 41.0412 25.2024 41.2368 24.9669C41.3415 24.8408 41.4448 24.6666 41.4824 24.4455C41.5216 24.2152 41.4793 23.9929 41.3831 23.8L40.0408 24.4695ZM38.5763 24.5705C38.4272 24.72 38.226 24.964 38.0573 25.2549C37.8947 25.5352 37.7153 25.9391 37.7153 26.3874H39.2153C39.2153 26.3208 39.2499 26.1884 39.3549 26.0074C39.4536 25.837 39.5734 25.6949 39.6383 25.6298L38.5763 24.5705ZM37.7153 26.3874C37.7153 26.2499 37.789 26.228 37.6632 26.3671C37.5532 26.4887 37.41 26.6093 37.204 26.7929C37.0307 26.9473 36.7863 27.1691 36.619 27.4247C36.4389 27.6998 36.2624 28.1563 36.5101 28.653L37.8524 27.9835C37.9397 28.1584 37.8434 28.293 37.874 28.2463C37.9173 28.1802 38.014 28.0802 38.2019 27.9127C38.357 27.7745 38.5949 27.5733 38.7759 27.373C38.941 27.1904 39.2153 26.8466 39.2153 26.3874H37.7153ZM36.5101 28.653C36.6091 28.8515 36.7293 29.0431 36.8258 29.1978C36.93 29.365 37.0105 29.4951 37.072 29.6185C37.1969 29.8687 37.1536 29.9117 37.1523 29.9143L38.4946 30.5838C38.8143 29.9428 38.6105 29.3423 38.4143 28.9488C38.3152 28.7504 38.195 28.5587 38.0986 28.4041C37.9944 28.237 37.9139 28.1068 37.8524 27.9835L36.5101 28.653ZM37.1523 29.9143C37.0908 30.0376 37.0104 30.1678 36.9062 30.3349C36.8097 30.4895 36.6895 30.6812 36.5905 30.8797C36.3942 31.2731 36.1903 31.8738 36.5102 32.5148L37.8524 31.845C37.8511 31.8425 37.8078 31.7996 37.9327 31.5494C37.9942 31.426 38.0747 31.2959 38.1789 31.1287C38.2754 30.974 38.3956 30.7823 38.4946 30.5838L37.1523 29.9143ZM36.5102 32.5148C36.6541 32.8031 36.9241 33.0844 37.138 33.2939C37.37 33.5212 37.6514 33.7713 37.8775 33.9791C38.1233 34.2051 38.3017 34.3792 38.4006 34.5032C38.455 34.5712 38.4387 34.5678 38.4188 34.5085C38.3933 34.4324 38.3363 34.1437 38.5761 33.9031L39.6385 34.9621C39.9585 34.641 39.9116 34.2417 39.8408 34.0311C39.7758 33.8373 39.6592 33.6755 39.5731 33.5676C39.3912 33.3396 39.1282 33.0913 38.8926 32.8747C38.6372 32.6401 38.3971 32.4276 38.1877 32.2225C38.0856 32.1225 38.0031 32.0359 37.941 31.9627C37.9103 31.9266 37.8879 31.8976 37.8721 31.8752C37.8558 31.8521 37.8511 31.8425 37.8524 31.845L36.5102 32.5148ZM38.5761 33.9031C38.1958 34.2847 38.0827 34.9003 38.2261 35.4027C38.3056 35.6815 38.4725 35.962 38.7548 36.1689C39.0373 36.3759 39.3814 36.4698 39.7496 36.4698V34.9698C39.6918 34.9698 39.659 34.9626 39.645 34.9584C39.6318 34.9545 39.633 34.9528 39.6414 34.959C39.6498 34.9651 39.6577 34.9735 39.6633 34.982C39.6685 34.9898 39.6692 34.9937 39.6685 34.9911C39.6676 34.9881 39.6659 34.9802 39.6657 34.9679C39.6655 34.9555 39.6668 34.9427 39.6693 34.9314C39.6719 34.9197 39.6745 34.9151 39.6732 34.9176C39.6724 34.9193 39.6634 34.9371 39.6385 34.9621L38.5761 33.9031ZM39.7496 36.4698C39.8351 36.4698 39.8528 36.4777 39.8325 36.4723C39.807 36.4654 39.711 36.4339 39.6181 36.3328C39.522 36.2282 39.4924 36.1179 39.4838 36.0677C39.4782 36.0355 39.4803 36.0151 39.4803 36.0813C39.4802 36.1617 39.4668 36.4684 39.6388 36.7701C39.823 37.0931 40.1325 37.2825 40.4744 37.3966L40.9495 35.9739C40.8095 35.9271 40.8782 35.9154 40.9419 36.0271C40.9935 36.1177 40.9802 36.2031 40.9803 36.0825C40.9803 36.0629 41.0174 35.6388 40.7227 35.318C40.4288 34.9981 40.008 34.9698 39.7496 34.9698V36.4698ZM40.4744 37.3966C40.7589 37.4917 41.0462 37.551 41.3261 37.5144C41.654 37.4716 41.8683 37.3124 42.0057 37.1747C42.0347 37.1457 42.0594 37.1185 42.0763 37.0997C42.0976 37.076 42.1028 37.07 42.1141 37.0576C42.131 37.0392 42.1243 37.0487 42.1046 37.0631C42.0383 37.1119 41.9791 37.1134 41.9962 37.1134V35.6134C41.6923 35.6134 41.4325 35.6954 41.2159 35.8548C41.121 35.9246 41.0517 35.9969 41.0096 36.0427C40.9496 36.108 40.9614 36.0977 40.9437 36.1154C40.9429 36.1162 40.9657 36.093 41.0077 36.0696C41.0533 36.0442 41.098 36.0315 41.1317 36.0271C41.1807 36.0207 41.1468 36.0397 40.9495 35.9739L40.4744 37.3966ZM41.9962 37.1134C42.3309 37.1134 42.5949 37.1149 42.8125 37.1461C43.0396 37.1786 43.0827 37.2274 43.0705 37.2153L44.1318 36.1552C43.7983 35.8213 43.3597 35.7092 43.0251 35.6612C42.6811 35.612 42.3032 35.6134 41.9962 35.6134V37.1134ZM43.0705 37.2153C43.3985 37.5437 43.8075 37.4791 43.9752 37.4332C44.157 37.3835 44.3223 37.2908 44.4389 37.2196C44.6673 37.0799 44.9769 36.8476 45.1925 36.698C45.4523 36.5177 45.6491 36.4013 45.7885 36.3528C45.9314 36.3031 45.7826 36.3942 45.6384 36.2497L46.7 35.19C46.2346 34.7237 45.6443 34.8148 45.2957 34.936C44.9437 35.0585 44.5989 35.284 44.3371 35.4658C44.0312 35.6781 43.8394 35.828 43.6565 35.9398C43.5674 35.9942 43.5497 35.9945 43.5797 35.9863C43.5957 35.9819 43.8842 35.9073 44.1318 36.1552L43.0705 37.2153ZM45.6384 36.2497C45.8544 36.4661 45.8795 36.5772 45.9804 36.779C46.0395 36.8975 46.1623 37.1228 46.4289 37.2756C46.6709 37.4143 46.9308 37.4353 47.1326 37.4353V35.9353C47.0138 35.9353 47.0732 35.916 47.1748 35.9742C47.301 36.0465 47.3435 36.1512 47.3223 36.1087C47.3172 36.0986 47.232 35.9077 47.1486 35.7646C47.0469 35.59 46.9074 35.3978 46.7 35.19L45.6384 36.2497ZM47.1326 37.4353C47.4541 37.4353 47.7542 37.3205 47.9431 37.2415C48.0459 37.1986 48.1498 37.1509 48.2307 37.1144C48.3187 37.0747 48.3843 37.0461 48.4395 37.0253C48.4977 37.0034 48.5138 37.0022 48.5023 37.0038C48.4931 37.0051 48.3954 37.0187 48.2688 36.9617C47.9351 36.8112 47.9877 36.4997 47.9877 36.6853H49.4877C49.4877 36.3881 49.4198 35.8352 48.8854 35.5943C48.6585 35.4919 48.4402 35.498 48.2956 35.5182C48.1486 35.5386 48.0142 35.5827 47.9118 35.6212C47.8066 35.6607 47.7016 35.7075 47.614 35.747C47.5193 35.7897 47.4426 35.825 47.3649 35.8575C47.1928 35.9294 47.1319 35.9353 47.1326 35.9353V37.4353ZM47.9877 36.6853C47.9877 36.9735 47.9217 37.0347 47.7672 37.3961C47.6868 37.584 47.6069 37.8175 47.5836 38.1213C47.5609 38.4174 47.5947 38.7415 47.689 39.1194L49.1444 38.7564C49.0781 38.4907 49.0718 38.3321 49.0792 38.236C49.086 38.1476 49.1064 38.0794 49.1464 37.9857C49.2327 37.784 49.4877 37.3624 49.4877 36.6853H47.9877ZM47.689 39.1194C47.7938 39.5398 48.0146 39.9928 48.2388 40.4065C48.4633 40.8208 48.7423 41.2852 48.9689 41.6827C49.2082 42.1026 49.4036 42.472 49.5218 42.781C49.6539 43.1262 49.623 43.2307 49.631 43.2066L51.0544 43.6799C51.2229 43.173 51.0716 42.6339 50.9228 42.245C50.7602 41.8199 50.5142 41.3646 50.272 40.9398C50.0171 40.4925 49.7745 40.0921 49.5576 39.6919C49.3404 39.2909 49.2001 38.9797 49.1444 38.7564L47.689 39.1194ZM49.631 43.2066C49.5593 43.4224 49.4484 43.7009 49.3151 44.0352C49.1857 44.3594 49.0394 44.7258 48.913 45.0848C48.788 45.4399 48.6716 45.8175 48.6108 46.165C48.5569 46.4734 48.513 46.9259 48.7085 47.3179L50.0508 46.6484C50.0858 46.7185 50.042 46.6884 50.0884 46.4235C50.1279 46.1978 50.2122 45.9116 50.3279 45.5829C50.4423 45.258 50.5768 44.9205 50.7083 44.5911C50.8357 44.2716 50.9657 43.9468 51.0544 43.6799L49.631 43.2066ZM48.7085 47.3179C48.8879 47.6775 49.1958 48.1057 49.3451 48.3453C49.5408 48.6591 49.5927 48.8223 49.5927 48.914H51.0927C51.0927 48.3621 50.8236 47.8816 50.618 47.5518C50.3661 47.1478 50.1925 46.9324 50.0508 46.6484L48.7085 47.3179ZM49.5927 48.914C49.5927 49.0349 49.5768 49.2142 49.555 49.475C49.535 49.7147 49.512 50.0049 49.5119 50.2813C49.5118 50.5403 49.5298 50.8746 49.6394 51.1678C49.6968 51.3215 49.7965 51.5109 49.9761 51.6652C50.1705 51.8321 50.411 51.9166 50.6631 51.9166V50.4166C50.7545 50.4166 50.8645 50.4509 50.9535 50.5273C51.0277 50.5911 51.0471 50.6497 51.0444 50.6425C51.0337 50.6139 51.0118 50.5058 51.0119 50.282C51.012 50.0757 51.0295 49.843 51.0498 49.5999C51.0683 49.3781 51.0927 49.1149 51.0927 48.914H49.5927ZM50.6631 51.9166C50.7126 51.9166 50.7517 51.9198 50.7812 51.924C50.8109 51.9283 50.8273 51.9332 50.833 51.9352C50.8455 51.9396 50.7961 51.9252 50.7454 51.8575C50.7204 51.8241 50.7024 51.787 50.692 51.7507C50.6819 51.7153 50.6813 51.6894 50.6817 51.6786C50.6822 51.6685 50.6833 51.673 50.6771 51.6943C50.6708 51.7156 50.6583 51.7497 50.6346 51.7973L51.9769 52.4668C52.1879 52.0437 52.319 51.4565 51.9462 50.9585C51.6091 50.5083 51.0585 50.4166 50.6631 50.4166V51.9166ZM50.6346 51.7973C50.5005 52.0661 50.4269 52.3829 50.4977 52.7086C50.5709 53.0458 50.7802 53.3025 51.0399 53.4587C51.5272 53.7517 52.1337 53.6826 52.6051 53.446L51.9324 52.1053C51.8601 52.1416 51.805 52.1509 51.7766 52.1518C51.7444 52.1529 51.7643 52.144 51.8128 52.1731C51.8718 52.2086 51.9405 52.2843 51.9635 52.3902C51.984 52.4846 51.9504 52.5198 51.9769 52.4668L50.6346 51.7973ZM52.6051 53.446C52.9311 53.2824 53.2309 53.1325 53.4874 53.0223C53.6147 52.9676 53.7174 52.9289 53.7965 52.9048C53.8849 52.8778 53.9027 52.8821 53.8738 52.8821V51.3821C53.6843 51.3821 53.5014 51.4266 53.359 51.47C53.2072 51.5163 53.049 51.5781 52.8954 51.6441C52.5899 51.7753 52.2477 51.9471 51.9324 52.1053L52.6051 53.446ZM53.8738 52.8821C54.0596 52.8821 54.2125 52.8155 54.2586 52.7958C54.334 52.7634 54.409 52.7235 54.4767 52.6848C54.6139 52.6061 54.7737 52.5014 54.9409 52.3844C55.2778 52.1484 55.6869 51.8325 56.0827 51.4983C56.4764 51.1659 56.8743 50.8007 57.1804 50.4659C57.3322 50.2998 57.477 50.1245 57.5884 49.9521C57.6789 49.812 57.8332 49.5483 57.8332 49.2358H56.3332C56.3332 49.0842 56.3972 49.0317 56.3285 49.138C56.2807 49.212 56.1972 49.3182 56.0733 49.4538C55.8278 49.7224 55.4835 50.0411 55.115 50.3522C54.7486 50.6616 54.3753 50.9492 54.0804 51.1557C53.9317 51.2599 53.8131 51.3362 53.731 51.3833C53.7113 51.3945 53.6957 51.403 53.6839 51.409C53.6718 51.4153 53.6664 51.4176 53.6668 51.4175C53.6672 51.4173 53.6703 51.416 53.6758 51.4139C53.6811 51.412 53.6907 51.4086 53.7038 51.4048C53.7219 51.3996 53.7851 51.3821 53.8738 51.3821V52.8821ZM57.8332 49.2358C57.8332 49.1732 57.848 49.4284 57.5824 49.5924C57.4844 49.6529 57.4017 49.6626 57.3897 49.664C57.3815 49.6649 57.3832 49.664 57.4441 49.664C57.5246 49.664 57.7731 49.6716 58.0275 49.5744C58.3247 49.461 58.5608 49.2401 58.7171 48.9274L57.3753 48.2569C57.3707 48.2661 57.4061 48.2061 57.4925 48.1731C57.5363 48.1564 57.564 48.164 57.4441 48.164C57.4047 48.164 57.3111 48.163 57.2164 48.174C57.1179 48.1855 56.9575 48.2153 56.7944 48.316C56.3985 48.5604 56.3332 48.9766 56.3332 49.2358H57.8332ZM58.7171 48.9274C58.9312 48.4989 58.9538 48.023 58.9314 47.6681C58.9082 47.3008 58.8302 46.9635 58.7577 46.7461L57.3346 47.2202C57.3694 47.3246 57.42 47.5343 57.4344 47.7624C57.4495 48.0028 57.4184 48.1705 57.3753 48.2569L58.7171 48.9274ZM58.7427 47.2613C58.8279 47.0479 59.0002 46.7182 59.2175 46.4566C59.4586 46.1662 59.614 46.1241 59.6518 46.1241V44.6241C58.9192 44.6241 58.379 45.1183 58.0634 45.4984C57.724 45.9072 57.4787 46.382 57.3497 46.7049L58.7427 47.2613ZM59.6518 46.1241C60.0893 46.1241 60.4417 45.9264 60.6777 45.6316C60.8896 45.3669 60.9882 45.0517 61.0383 44.792C61.1391 44.2695 61.0951 43.6894 61.0337 43.3202L59.554 43.5662C59.5996 43.8406 59.6198 44.226 59.5654 44.508C59.5379 44.6506 59.5042 44.6974 59.5067 44.6942C59.5334 44.6609 59.5996 44.6241 59.6518 44.6241V46.1241ZM61.0363 43.3374C60.9852 42.9788 60.9244 42.4272 60.9069 41.9438C60.8981 41.6997 60.9013 41.4963 60.9164 41.3522C60.924 41.2794 60.9326 41.2433 60.9353 41.2341C60.9429 41.208 60.9245 41.2986 60.8248 41.3984L59.7629 40.3391C59.599 40.5033 59.5291 40.6991 59.4962 40.8109C59.4583 40.9396 59.4373 41.0739 59.4245 41.1959C59.3988 41.4414 59.398 41.7246 59.4079 41.9981C59.4279 42.5499 59.4954 43.1568 59.5513 43.549L61.0363 43.3374ZM60.8248 41.3984C60.925 41.298 61.0176 41.1624 61.0825 41.0642C61.1585 40.9493 61.2449 40.8096 61.3358 40.6603C61.5223 40.3539 61.7349 39.9951 61.9717 39.6193C62.2074 39.2452 62.4534 38.8763 62.6925 38.5674C62.942 38.2452 63.1424 38.0434 63.2786 37.9524L62.4451 36.7053C62.0998 36.9361 61.7786 37.2976 61.5064 37.6491C61.224 38.014 60.9484 38.4295 60.7025 38.8197C60.4578 39.2082 60.2291 39.5935 60.0544 39.8805C59.9647 40.0278 59.8906 40.1471 59.8312 40.2371C59.7607 40.3438 59.7429 40.3591 59.7629 40.3391L60.8248 41.3984ZM63.2786 37.9524C63.6881 37.6787 64.0016 37.1857 64.2323 36.7489C64.4808 36.2783 64.705 35.7293 64.8919 35.209C65.0798 34.6858 65.2361 34.174 65.3461 33.7696C65.401 33.5677 65.4457 33.3879 65.4773 33.2436C65.5015 33.1331 65.5379 32.96 65.5379 32.8236H64.0379C64.0379 32.7675 64.0442 32.7755 64.012 32.9227C63.9872 33.0361 63.9491 33.1907 63.8987 33.3759C63.798 33.7459 63.6534 34.2196 63.4802 34.7021C63.3059 35.1874 63.1088 35.6641 62.9059 36.0484C62.6852 36.4664 62.5171 36.6572 62.4451 36.7053L63.2786 37.9524ZM65.5379 32.8236C65.5379 32.6352 65.4715 32.3995 65.2704 32.2192C65.0936 32.0608 64.8973 32.0229 64.7921 32.0124C64.5946 31.9929 64.412 32.0422 64.3225 32.0682C64.1076 32.1308 63.8501 32.2438 63.6343 32.3422C63.3912 32.453 63.1892 32.5505 62.9979 32.6341C62.9065 32.674 62.8386 32.7013 62.7919 32.7174C62.7187 32.7427 62.7642 32.7172 62.8619 32.7172V34.2172C63.0399 34.2172 63.2057 34.1615 63.2817 34.1352C63.3842 34.0998 63.4943 34.0541 63.5986 34.0086C63.7985 33.9212 64.0579 33.7975 64.2563 33.7072C64.4818 33.6044 64.6457 33.5364 64.7417 33.5085C64.8077 33.4893 64.753 33.5159 64.6445 33.5052C64.5838 33.4992 64.4224 33.4735 64.2692 33.3363C64.0917 33.1772 64.0379 32.9717 64.0379 32.8236H65.5379ZM62.8619 32.7172C62.9755 32.7172 63.0331 32.7505 62.9942 32.734C62.975 32.7258 62.9355 32.7062 62.8789 32.6707C62.7658 32.5999 62.6299 32.4944 62.5101 32.3743C62.3853 32.2493 62.3128 32.1431 62.2836 32.0771C62.2553 32.0133 62.3045 32.0817 62.249 32.1929L60.9067 31.5234C60.6907 31.9564 60.78 32.3868 60.9123 32.685C61.0435 32.9811 61.2519 33.2369 61.4481 33.4337C61.6493 33.6354 61.8746 33.8115 62.0825 33.9418C62.1863 34.0069 62.2973 34.0677 62.4085 34.1149C62.5 34.1537 62.668 34.2172 62.8619 34.2172V32.7172ZM64.0349 32.3878C63.9979 32.4249 63.993 32.4179 64.0991 32.3558C64.184 32.3061 64.2972 32.2452 64.4407 32.1695C64.7178 32.0233 65.0893 31.8317 65.4498 31.6192C65.8061 31.4091 66.1939 31.1544 66.5007 30.8656C66.7812 30.6016 67.1429 30.1717 67.1429 29.6055H65.6429C65.6429 29.5219 65.6837 29.5747 65.4726 29.7733C65.2879 29.9472 65.0136 30.135 64.6878 30.3271C64.3661 30.5168 64.0354 30.6873 63.7407 30.8428C63.5984 30.9179 63.4583 30.9928 63.3413 31.0613C63.2455 31.1174 63.0901 31.2109 62.9729 31.3285L64.0349 32.3878ZM67.1429 29.6055C67.1429 29.1892 67.2143 28.7994 67.296 28.581C67.3463 28.4467 67.3586 28.4891 67.2684 28.5614C67.2058 28.6116 67.0658 28.6947 66.8675 28.6821C66.6716 28.6696 66.5496 28.5719 66.5039 28.5261L67.5659 27.4668C67.44 27.3405 67.2378 27.2026 66.9628 27.1851C66.6856 27.1674 66.4679 27.2806 66.33 27.3912C66.0893 27.5843 65.9612 27.868 65.8911 28.0555C65.7321 28.4806 65.6429 29.0563 65.6429 29.6055H67.1429ZM66.5039 28.5261C66.5327 28.555 66.5681 28.5888 66.6071 28.6209C66.6165 28.6287 66.7259 28.725 66.8857 28.7756C66.9468 28.7949 67.268 28.8901 67.5741 28.6562C67.887 28.417 67.8733 28.0739 67.8686 28.004C67.857 27.8317 67.7855 27.7003 67.7813 27.6919C67.7149 27.5587 67.5964 27.4021 67.4913 27.2756C67.2703 27.0097 66.8692 26.5917 66.408 26.3605L65.7358 27.7015C65.9166 27.7921 66.1576 28.0177 66.3378 28.2345C66.4333 28.3494 66.4553 28.3939 66.439 28.3613C66.4343 28.3519 66.4238 28.3302 66.4127 28.2996C66.405 28.2785 66.3787 28.2053 66.372 28.1048C66.3677 28.0408 66.3528 27.7017 66.663 27.4645C66.9663 27.2327 67.2832 27.328 67.3384 27.3455C67.4308 27.3748 67.4934 27.4153 67.5112 27.427C67.537 27.4438 67.5544 27.4579 67.5611 27.4634C67.5745 27.4744 67.5773 27.4781 67.5659 27.4668L66.5039 28.5261ZM66.408 26.3605C65.6082 25.9596 64.7894 26.1913 64.4518 26.3605L65.124 27.7015C65.124 27.7015 65.1246 27.7012 65.1257 27.7007C65.1269 27.7001 65.1285 27.6994 65.1307 27.6984C65.1351 27.6965 65.141 27.6941 65.1486 27.6912C65.1639 27.6854 65.1838 27.6787 65.2078 27.6721C65.2563 27.6585 65.315 27.6469 65.3786 27.6417C65.5077 27.6312 65.6306 27.6487 65.7358 27.7015L66.408 26.3605ZM65.2688 26.4554C64.9702 26.206 64.5424 25.8051 64.2289 25.4218C64.0696 25.227 63.9669 25.0693 63.9173 24.9607C63.8511 24.8155 63.9488 24.923 63.854 25.1131L62.5117 24.4436C62.2885 24.8911 62.4425 25.3419 62.5527 25.5835C62.6798 25.8618 62.874 26.1345 63.0678 26.3714C63.4605 26.8517 63.9637 27.3197 64.3071 27.6066L65.2688 26.4554ZM63.854 25.1131C63.8906 25.0399 63.9188 25.02 63.9156 25.0223C63.9138 25.0237 63.9047 25.0298 63.8878 25.0356C63.8707 25.0415 63.8491 25.0456 63.8249 25.0456C63.8007 25.0456 63.7791 25.0415 63.762 25.0356C63.7451 25.0298 63.736 25.0237 63.7341 25.0223C63.731 25.02 63.7592 25.0399 63.7957 25.1131L65.1381 24.4436C64.8929 23.952 64.4337 23.5456 63.8249 23.5456C63.2161 23.5456 62.7569 23.952 62.5117 24.4436L63.854 25.1131ZM63.7957 25.1131C63.9106 25.3433 63.8524 25.3332 63.9398 25.6839C63.9816 25.8513 64.0846 26.1339 64.3891 26.3217C64.6395 26.4762 64.9174 26.4938 65.1089 26.4938V24.9938C65.0565 24.9938 65.0413 24.9902 65.0492 24.9917C65.0583 24.9934 65.1102 25.0041 65.1767 25.0451C65.2505 25.0907 65.3101 25.1536 65.3506 25.2209C65.3688 25.2509 65.3799 25.2765 65.3863 25.2935C65.3925 25.31 65.3951 25.3204 65.3952 25.3209C65.3953 25.3214 65.3942 25.3166 65.3916 25.3029C65.3891 25.2889 65.3863 25.2721 65.3822 25.2466C65.3746 25.1999 65.3632 25.1277 65.3467 25.0481C65.3118 24.8804 65.2536 24.6754 65.1381 24.4436L63.7957 25.1131ZM65.1089 26.4938C65.2775 26.4938 65.3747 26.494 65.4456 26.4978C65.5143 26.5014 65.5068 26.5066 65.4731 26.4953C65.4258 26.4795 65.3969 26.4564 65.4007 26.4594C65.4204 26.4756 65.4509 26.505 65.5409 26.5952L66.6029 25.5359C66.4827 25.4154 66.272 25.1808 65.9485 25.0727C65.7945 25.0212 65.6465 25.0063 65.5246 24.9998C65.4049 24.9935 65.2614 24.9938 65.1089 24.9938V26.4938ZM65.5409 26.5952C65.5778 26.6322 65.6095 26.6727 65.6622 26.7447C65.705 26.8031 65.7923 26.9277 65.9021 27.0377C66.1919 27.3283 66.5595 27.4592 67.0349 27.4592V25.9592C66.9346 25.9592 66.9076 25.9463 66.9186 25.9503C66.9249 25.9527 66.9354 25.9575 66.947 25.9652C66.9583 25.9726 66.9642 25.9786 66.964 25.9784C66.9534 25.9678 66.9405 25.9515 66.8729 25.8591C66.8152 25.7803 66.7266 25.6599 66.6029 25.5359L65.5409 26.5952ZM67.0349 27.4592C67.2571 27.4592 67.446 27.431 67.5806 27.4102C67.7319 27.3869 67.7875 27.3787 67.8375 27.3787C67.8648 27.3787 67.8753 27.3814 67.8937 27.3899C67.9213 27.4027 67.9908 27.4422 68.109 27.5607L69.171 26.5013C68.7413 26.0706 68.3187 25.8787 67.8375 25.8787C67.6467 25.8787 67.4615 25.9108 67.352 25.9277C67.2257 25.9472 67.1338 25.9592 67.0349 25.9592V27.4592ZM68.109 27.5607C68.2785 27.7306 68.3974 28.0321 68.5233 28.4528C68.5737 28.6212 68.6405 28.8624 68.7164 29.0423C68.7549 29.1336 68.821 29.2734 68.9319 29.3998C69.0527 29.5376 69.2771 29.7119 69.603 29.7119V28.2119C69.8486 28.2119 70.0027 28.3459 70.0596 28.4107C70.1066 28.4643 70.115 28.4985 70.0984 28.4591C70.0639 28.3774 70.0304 28.2567 69.9604 28.0228C69.8455 27.639 69.6434 26.975 69.171 26.5013L68.109 27.5607ZM69.603 29.7119C69.8895 29.7119 70.0926 29.5727 70.2026 29.4701C70.3079 29.3719 70.3761 29.2642 70.4136 29.2003C70.4539 29.1314 70.4879 29.0614 70.5092 29.0176C70.5354 28.9634 70.5468 28.9397 70.5574 28.9203C70.5707 28.8961 70.556 28.9297 70.5115 28.9763C70.4696 29.0204 70.3116 29.1688 70.0454 29.1688C69.7787 29.1688 69.6243 29.0201 69.5885 28.9819C69.5495 28.9403 69.5474 28.9219 69.5738 28.9748L70.9161 28.3053C70.8623 28.1973 70.788 28.0683 70.6831 27.9563C70.5813 27.8476 70.3672 27.6688 70.0454 27.6688C69.724 27.6688 69.5153 27.8474 69.4255 27.9417C69.3331 28.0387 69.2732 28.1426 69.2424 28.1988C69.2089 28.2599 69.1771 28.3268 69.1595 28.3631C69.1369 28.4097 69.1262 28.4303 69.1194 28.4419C69.1097 28.4584 69.1282 28.421 69.1796 28.3731C69.2357 28.3208 69.3807 28.2119 69.603 28.2119V29.7119ZM69.5738 28.9748C69.5738 28.9747 69.599 29.0357 69.6398 29.2011C69.6764 29.35 69.7158 29.5408 69.7572 29.7656C69.8401 30.2151 69.9246 30.7625 70.0093 31.3126C70.0929 31.8553 70.1771 32.4037 70.257 32.8323C70.2967 33.0453 70.3383 33.2449 70.3817 33.4065C70.4031 33.4864 70.429 33.5726 70.4608 33.6531C70.4816 33.7057 70.5439 33.8634 70.677 33.9968L71.739 32.9375C71.84 33.0388 71.8692 33.1356 71.8559 33.1021C71.8537 33.0965 71.8448 33.0713 71.8305 33.018C71.8023 32.9131 71.7691 32.7586 71.7316 32.5574C71.657 32.1573 71.5768 31.6357 71.4918 31.0842C71.408 30.5402 71.32 29.9693 71.2323 29.4937C71.1885 29.2558 71.143 29.0323 71.0962 28.8422C71.0535 28.6688 70.9964 28.4663 70.9161 28.3053L69.5738 28.9748ZM70.677 33.9968C70.783 34.1031 70.9675 34.233 71.2269 34.2473C71.4855 34.2615 71.6811 34.1532 71.7947 34.0629C71.9879 33.9092 72.0869 33.6968 72.1302 33.5983C72.2383 33.3528 72.3211 33.0276 72.3828 32.739C72.5061 32.1624 72.6 31.4564 72.6 31.2145H71.1C71.1 31.2131 71.0987 31.2502 71.0895 31.3404C71.0812 31.4213 71.0686 31.5252 71.052 31.6438C71.0188 31.8818 70.9716 32.1653 70.9159 32.4254C70.8573 32.7 70.7997 32.8977 70.7573 32.9941C70.7254 33.0666 70.7466 32.9799 70.8608 32.8891C70.9348 32.8301 71.0907 32.7375 71.3093 32.7496C71.5287 32.7616 71.6731 32.8714 71.739 32.9375L70.677 33.9968ZM72.6 31.2145C72.6 31.2521 72.5968 31.2393 72.6161 31.1362C72.6316 31.0532 72.6557 30.9424 72.6881 30.8127C72.753 30.5524 72.8453 30.2385 72.9537 29.9487C73.0674 29.6448 73.1781 29.4242 73.2631 29.3106C73.3078 29.2508 73.303 29.2787 73.2348 29.3134C73.1305 29.3665 72.9582 29.3909 72.7979 29.3105L73.4701 27.9696C73.1493 27.8088 72.8165 27.8432 72.5542 27.9767C72.3281 28.0919 72.1678 28.2706 72.062 28.412C71.8461 28.7006 71.6759 29.0835 71.5488 29.4232C71.4164 29.777 71.3082 30.1469 71.2326 30.4498C71.1948 30.6017 71.1637 30.7422 71.1416 30.8604C71.1233 30.9584 71.1 31.0965 71.1 31.2145H72.6ZM50.1316 20.8022C50.3004 20.9718 50.5111 21.0516 50.6276 21.0905C50.7684 21.1376 50.9223 21.1717 51.0688 21.1976C51.3638 21.2498 51.7058 21.2821 52.0172 21.3029C52.3325 21.324 52.635 21.3344 52.8574 21.3396C52.969 21.3422 53.0614 21.3435 53.1263 21.3442C53.1588 21.3445 53.1844 21.3447 53.2022 21.3447C53.2111 21.3448 53.2181 21.3448 53.2229 21.3448C53.2254 21.3448 53.2273 21.3448 53.2286 21.3448C53.2293 21.3448 53.2299 21.3448 53.2303 21.3448C53.2305 21.3448 53.2307 21.3448 53.2308 21.3448C53.2309 21.3448 53.2309 21.3448 53.231 21.3448C53.231 21.3448 53.2311 21.3448 53.2311 20.5948C53.2311 19.8448 53.2312 19.8448 53.2312 19.8448C53.2312 19.8448 53.2312 19.8448 53.2312 19.8448C53.2312 19.8448 53.2312 19.8448 53.2311 19.8448C53.231 19.8448 53.2307 19.8448 53.2303 19.8448C53.2295 19.8448 53.2282 19.8448 53.2264 19.8448C53.2227 19.8448 53.217 19.8448 53.2094 19.8448C53.1941 19.8447 53.1711 19.8445 53.1415 19.8442C53.0822 19.8436 52.9965 19.8424 52.8924 19.84C52.6833 19.8351 52.4039 19.8254 52.1172 19.8063C51.8266 19.7869 51.5467 19.7589 51.3302 19.7205C51.2209 19.7012 51.1466 19.6825 51.1032 19.6679C51.0354 19.6453 51.1058 19.6547 51.1946 19.7439L50.1316 20.8022ZM62.249 32.1929C62.2439 32.2032 62.2144 32.2554 62.1431 32.3039C62.0703 32.3535 61.9999 32.3679 61.9614 32.3707C61.928 32.3732 61.9506 32.3646 62.1396 32.4263C62.2765 32.471 62.5276 32.5621 62.7764 32.6117C63.0407 32.6645 63.3808 32.69 63.7416 32.5695L63.2662 31.1468C63.2418 31.155 63.1887 31.1644 63.0698 31.1407C62.9353 31.1139 62.8132 31.0683 62.6051 31.0003C62.449 30.9494 62.1546 30.8523 61.8503 30.8749C61.6765 30.8878 61.4821 30.9394 61.2992 31.0639C61.1178 31.1873 60.9921 31.3522 60.9067 31.5234L62.249 32.1929ZM61.9139 31.1876C60.0883 30.2725 58.9926 29.2418 58.3054 28.4053C57.9599 27.9847 57.7118 27.6061 57.5197 27.2979C57.4301 27.1542 57.3327 26.9931 57.259 26.878C57.1888 26.7683 57.0901 26.6189 56.9727 26.5012L55.9109 27.5608C55.9006 27.5504 55.9222 27.5719 55.9958 27.6868C56.0659 27.7964 56.1358 27.9135 56.2468 28.0915C56.456 28.427 56.7429 28.8663 57.1463 29.3575C57.9572 30.3445 59.2154 31.5129 61.2418 32.5286L61.9139 31.1876Z" fill="#C2410C"/>
<path id="Vector 40" d="M14.7116 31.5397C15.1396 31.7542 16.0598 32.3764 16.3167 33.1487C17.2797 35.0796 17.6007 35.0796 17.2797 36.045C16.9587 37.0104 16.9587 38.2977 17.2797 38.6195C17.6007 38.9413 18.5637 37.9759 18.5637 37.6541C18.5637 37.3323 19.8477 37.9759 19.5267 38.6195C19.2057 39.2631 18.5637 39.9067 18.8847 40.2285C19.2057 40.5503 18.8847 41.194 19.8477 42.1594C20.8107 43.1248 20.4897 44.7338 20.4897 45.0557C20.4897 45.3775 21.1317 49.561 22.0947 49.8828M14.3906 28.9645C14.4976 28.8572 15.0326 28.6403 15.6746 28.3216C16.7119 27.8068 15.9956 29.6089 16.3167 30.2525C16.6377 30.8961 17.6007 31.2171 17.2797 31.8607C16.9587 32.5043 17.6007 33.4698 17.9217 33.4698C18.2427 33.4698 18.8847 32.1825 19.2057 32.5043C19.5267 32.8262 19.5267 33.4698 20.4897 33.4698C21.4527 33.4698 21.7737 32.8262 22.0947 33.4698C22.4157 34.1134 21.7737 34.757 22.7367 35.0788C23.6998 35.4006 24.6628 35.7224 24.6628 36.366C24.6628 37.0097 23.6998 37.9743 24.9838 38.2969C26.2678 38.6195 26.5888 38.6187 27.2308 39.2623C27.8728 39.9059 28.8358 39.5857 29.4778 40.2285C30.1198 40.8714 31.0829 42.4804 30.4408 43.124C29.7988 43.7676 28.8358 44.4128 29.1568 45.0557C29.4778 45.6985 29.7988 47.6293 29.1568 47.6293C28.5148 47.6293 27.2308 47.3075 27.2308 48.273C27.2308 49.2384 28.1938 49.5602 27.5518 50.2038C26.9098 50.8474 26.2678 50.5256 26.2678 51.491C26.2678 52.2634 25.9468 53.4219 25.9468 53.7437" stroke="#C2410C" stroke-width="1.5"/>
<path id="Vector 41" d="M24.0201 8.69037C24.0201 8.90491 24.0843 9.26963 24.3411 9.01218C24.6621 8.69037 24.9831 9.01218 25.3041 8.69037C25.6251 8.36857 25.6251 8.36857 25.9461 8.04676C26.2671 7.72495 24.9831 7.72495 26.5881 7.40314C28.1931 7.08133 27.8721 7.08133 28.8351 6.75952C29.7981 6.43771 30.1192 6.43771 30.7612 6.11591C31.4032 5.7941 32.3662 5.47229 33.0082 5.7941C33.6502 6.11591 36.5392 5.47224 36.8602 5.15043C37.1813 4.82862 41.6753 5.79405 43.2803 5.15043C44.8854 4.50682 40.3913 6.11591 40.3913 7.40314C40.3913 8.69037 40.3913 8.04525 39.4283 8.36781C38.4653 8.69037 38.4653 9.01218 37.1813 9.01218C35.8972 9.01218 35.8972 8.68962 35.2552 9.33324C34.6132 9.97685 35.2552 9.97685 34.2922 9.97685C33.3292 9.97685 33.3292 9.97685 33.0082 10.6205C32.6872 11.2641 32.6872 11.2641 32.0452 11.5859C31.4032 11.9077 31.4032 11.9077 31.0822 11.5859C30.7612 11.2641 30.4402 11.2641 30.4402 10.6205C30.4402 9.97685 30.4402 9.65429 30.7612 9.33324C31.0822 9.01218 31.7242 8.04525 31.4032 7.72419C31.0822 7.40314 29.7981 8.36932 29.4771 8.04676C29.1561 7.72419 28.5141 7.7257 28.1931 8.04676C27.8721 8.36781 26.9091 9.01143 26.9091 9.33324C26.9091 9.65504 27.5511 9.33324 27.8721 9.65504C28.1931 10.2987 28.8351 11.2641 27.8721 11.2641C26.9091 11.2641 26.5881 11.2641 26.5881 11.5859C26.5881 11.8433 26.1601 12.1222 25.9461 12.2295C25.6251 11.9077 25.0473 11.5215 25.3041 12.5513C25.5609 13.5811 26.2671 14.0531 26.5881 14.1604C26.8021 14.2676 27.1659 14.6109 26.9091 15.1258C26.6523 15.6407 26.3741 16.1985 26.2671 16.413C26.2671 16.5203 26.2671 16.7992 26.2671 17.0566C26.2671 17.3141 25.1971 17.593 24.6621 17.7003C24.3411 17.8075 23.6349 18.1508 23.3781 18.6657C23.0571 19.3093 21.773 18.0221 21.773 18.9875C21.773 19.9529 21.452 19.3093 21.131 19.9529C20.81 20.5965 20.489 20.2747 20.168 20.9183C19.847 21.562 19.205 22.2056 19.205 22.8492C19.205 23.4928 17.279 23.8146 17.279 24.78C17.279 25.7455 17.279 27.3545 16.958 26.7109C16.637 26.0673 16.637 26.0673 15.995 25.7455C15.4813 25.488 15.0319 25.7455 14.7109 26.0673" stroke="#C2410C" stroke-width="1.5"/>
<path id="Vector 42" d="M43.6014 15.4449C42.6383 14.8013 43.25 14.1577 43.9224 14.1577C44.0625 14.0213 43.8839 13.3177 43.5476 12.9904C43.3992 12.6641 43.0936 12.7744 42.9594 12.8704C42.9594 13.2795 42.7069 13.8087 42.2866 13.8087C41.8662 13.8087 41.4459 14.6269 41.0256 14.2178C40.6052 13.8087 39.7645 14.6269 40.1849 13.8087C40.6052 12.9904 40.1853 13.3995 40.1853 12.9904C40.1853 12.5813 40.6056 12.9904 40.6056 12.5813C40.6056 12.1722 41.4463 12.5813 41.4463 12.1722C41.4463 11.7631 41.4467 11.7631 41.8666 11.7631C42.2866 11.7631 42.287 11.7631 42.287 11.3539C42.287 11.0266 42.172 10.8797 42.287 10.5357C42.4019 10.1917 43.1277 10.1266 43.1277 10.1266C43.2678 10.1266 43.6321 10.0448 43.9683 9.71746C44.3887 9.30834 43.548 10.9448 43.9683 11.3539C44.3046 11.6812 44.8854 11.5832 45.2064 11.905C45.5274 12.2268 44.9772 13.3983 45.6497 13.3983C46.3223 13.3983 46.4904 13.6711 46.4904 13.8075" stroke="#C2410C" stroke-width="1.5"/>
<path id="Ellipse 164" d="M73.3488 30.25C73.3488 46.5442 60.1733 59.75 43.9244 59.75C27.6755 59.75 14.5 46.5442 14.5 30.25C14.5 13.9558 27.6755 0.75 43.9244 0.75C60.1733 0.75 73.3488 13.9558 73.3488 30.25Z" stroke="#C2410C" stroke-width="1.5"/>
</g>
</svg>
